<?xml version="1.0" standalone="no"?>
<!DOCTYPE svg PUBLIC "-//W3C//DTD SVG 1.1//EN" "http://www.w3.org/Graphics/SVG/1.1/DTD/svg11.dtd" >
<svg xmlns="http://www.w3.org/2000/svg">
<metadata></metadata>
<defs>
<font id="frank_ruehl_clmbold" horiz-adv-x="0" >
<font-face units-per-em="1200" ascent="960" descent="-240" />
<missing-glyph horiz-adv-x="361" />
<glyph horiz-adv-x="800" d="M180 620v-640h440v640h-440zM100 700h600v-800h-600v800z" />
<glyph horiz-adv-x="800" d="M180 620v-640h440v640h-440zM100 700h600v-800h-600v800z" />
<glyph unicode="&#xd;" horiz-adv-x="400" />
<glyph unicode=" "  horiz-adv-x="361" />
<glyph unicode="&#x09;" horiz-adv-x="361" />
<glyph unicode="&#xa0;" horiz-adv-x="361" />
<glyph unicode="!" horiz-adv-x="326" d="M83 129l66 99q9 13 14 13t14 -13l67 -99q13 -19 0 -38l-67 -99q-8 -13 -13.5 -13t-14.5 13l-66 99q-8 12 -8 19.5t8 18.5zM196 324l53 242q8 35 8 66q0 105 -93 105q-94 0 -94 -103q0 -35 7 -68l53 -242q3 -13 13 -24q14 -16 21 -16t20 16q10 12 12 24z" />
<glyph unicode="&#x22;" horiz-adv-x="479" d="M50 378l17 246q1 8 5 21q9 28 35 43.5t63 15.5q39 0 55 -15t7 -44q-5 -14 -8 -21l-141 -246h-33zM277 378l18 246q1 8 5 21q9 28 35.5 43.5t64 15.5t54 -15.5t7.5 -42.5q-2 -6 -10 -22l-141 -246h-33z" />
<glyph unicode="#" horiz-adv-x="574" d="M135 220h-94v83h106l16 108h-96v83h107l30 206h90l-30 -206h86l29 206h90l-29 -206h93v-83h-105l-15 -108h94v-83h-106l-32 -220h-90l32 220h-86l-32 -220h-90zM253 411l-16 -108h85l16 108h-85z" />
<glyph unicode="$" horiz-adv-x="574" d="M319 433l26 -8q108 -33 156 -83.5t48 -130.5q0 -94 -60 -152t-170 -71v-125h-58v123q-39 3 -55 7q-87 17 -134 58.5t-47 101.5q0 41 24 67.5t62 26.5q35 0 58 -21t23 -52q0 -46 -35 -74q-7 -7 -7 -11q0 -16 33.5 -30.5t77.5 -17.5v238l-34 11q-95 29 -138.5 74.5 t-43.5 115.5q0 64 32.5 115.5t90.5 79.5q33 17 93 24v102h58v-101q101 -7 160 -45.5t59 -97.5q0 -39 -24.5 -64.5t-62.5 -25.5q-32 0 -54 20.5t-22 50.5q0 26 17 54q6 8 6 15q0 31 -79 39v-213zM261 451v194q-96 -17 -96 -96q0 -69 83 -94zM319 261v-217q25 2 43 10 q28 11 45 37t17 58q0 80 -95 109z" />
<glyph unicode="%" horiz-adv-x="833" d="M686 722l-414 -722h-86l330 579q-29 -9 -74.5 -10.5t-71.5 4.5q0 -44 -19.5 -93.5t-51.5 -87.5q-64 -77 -149 -77q-58 0 -95.5 36t-37.5 92q0 52 30.5 112.5t75.5 99.5q62 53 129 53q57 0 94 -48q39 -19 92 -19q56 0 95 19t72 62h81zM258 628q-22 -7 -34.5 -20t-33.5 -51 q-48 -84 -48 -122q0 -19 11.5 -31t29.5 -12q45 0 85.5 56t40.5 119q0 14 -5 31q-28 10 -46 30zM699 407q53 0 87.5 -35t34.5 -89q0 -45 -20.5 -97.5t-55.5 -96.5q-61 -75 -144 -75q-59 0 -97 35.5t-38 90.5q0 92 69 179q73 88 164 88zM714 326q-32 0 -66 -56 q-58 -94 -58 -137q0 -18 12 -30.5t29 -12.5q46 0 87.5 56t41.5 119q0 25 -13.5 43t-32.5 18z" />
<glyph unicode="&#x26;" horiz-adv-x="852" d="M797 408v-54q-53 -2 -78.5 -19.5t-54.5 -74.5q-34 -61 -63 -101q50 -66 102 -66q51 0 69 84l50 -11q-5 -50 -30 -92q-28 -47 -64.5 -68t-89.5 -21q-92 0 -158 66q-94 -67 -211 -67q-116 0 -176 63q-54 57 -54 132q0 115 119 186q32 19 83 42q-39 81 -39 144q0 79 59 133 q59 53 157 53q82 0 132 -39.5t50 -103.5q0 -67 -57 -113q-42 -33 -118 -64q38 -65 80 -128.5t60 -82.5q48 58 48 99q0 25 -21 36.5t-68 12.5v54h273zM265 357q-56 -35 -56 -99q0 -41 23 -87q51 -104 142 -104q35 0 66 22q-110 134 -175 268zM397 464q14 6 16 7q77 39 77 118 q0 41 -22 68.5t-56 27.5q-30 0 -50 -21.5t-20 -53.5q0 -51 55 -146z" />
<glyph unicode="'" horiz-adv-x="252" d="M50 378l17 246q1 8 5 21q9 28 35 43.5t63 15.5q39 0 55 -15t7 -44q-5 -14 -8 -21l-141 -246h-33z" />
<glyph unicode="(" horiz-adv-x="389" d="M338 -68v-50q-100 52 -165 135q-101 129 -101 293q0 175 116 311q59 69 150 116v-50q-41 -29 -63 -56.5t-39 -72.5q-39 -98 -39 -249q0 -163 47 -268q31 -66 94 -109z" />
<glyph unicode=")" horiz-adv-x="389" d="M50 687v50q100 -52 165 -135q101 -129 101 -293q0 -175 -116 -311q-59 -69 -150 -116v50q41 29 63 56.5t39 72.5q39 97 39 249q0 163 -47 268q-31 66 -94 109z" />
<glyph unicode="*" horiz-adv-x="500" d="M239 495l-16 -10q-21 -13 -32 -24t-32 -42q-23 -35 -56 -35q-19 0 -33 13.5t-14 32.5q0 34 33 49q16 6 55 8q36 3 66 20l16 10l-16 9q-23 13 -37.5 16.5t-52.5 5.5q-29 2 -46.5 17.5t-17.5 38.5q0 19 14 32.5t34 13.5q22 0 40 -16q8 -8 28 -38q22 -30 51 -47l16 -10v19 q0 24 -4 38t-22 51q-10 19 -10 37q0 22 14 37.5t34 15.5t34.5 -16t14.5 -38q0 -16 -20 -58q-16 -31 -16 -67v-19l16 10q23 14 33 24.5t31 41.5q23 35 56 35q20 0 33.5 -13.5t13.5 -32.5q0 -32 -33 -49q-11 -5 -55 -9q-33 -1 -66 -20l-16 -9l16 -9q23 -13 37.5 -16.5 t51.5 -5.5q29 -2 47 -18t18 -39q0 -19 -13 -31.5t-32 -12.5q-20 0 -33 10t-38 44q-20 28 -51 46l-16 10v-19q0 -24 4 -38.5t21 -50.5q10 -19 10 -36q0 -23 -14 -38.5t-34 -15.5t-34 15.5t-14 37.5q0 16 20 59q16 31 16 67v19z" />
<glyph unicode="+" horiz-adv-x="606" d="M246 195h-195v115h195v195h115v-195h194v-115h-194v-195h-115v195z" />
<glyph unicode="," horiz-adv-x="329" d="M89 92q-9 11 -9 18t9 18l79 97q10 12 16 12t16 -12l76 -97q8 -10 8.5 -17.5t-5.5 -18.5l-139 -234q-13 -22 -30 -15t-11 31l34 138q5 20 -5 32z" />
<glyph unicode="-" horiz-adv-x="422" d="M381 353l-28 -114q-3 -9 -6 -12t-13 -3h-284q-14 0 -16.5 4.5t1.5 15.5l29 114q2 9 5 12t13 3h284q15 0 17 -4.5t-2 -15.5z" />
<glyph unicode="." horiz-adv-x="332" d="M89 128l79 97q10 12 16 12t16 -12l79 -97q15 -18 0 -36l-79 -97q-10 -12 -16 -12t-16 12l-79 97q-9 11 -9 18t9 18z" />
<glyph unicode="/" horiz-adv-x="278" d="M228 737h74l-251 -752h-74z" />
<glyph unicode="0" horiz-adv-x="574" d="M287 708q101 0 173 -87q86 -108 86 -279q0 -152 -74.5 -254t-184.5 -102q-112 0 -186 102.5t-74 258.5t74 258.5t186 102.5zM286 656q-53 0 -70 -61q-17 -64 -17 -248q0 -201 21 -259q19 -50 66 -50q52 0 69 61q17 64 17 246q0 208 -21 261q-17 50 -65 50z" />
<glyph unicode="1" horiz-adv-x="574" d="M371 708v-564q0 -48 1 -58.5t6 -16.5q11 -15 81 -15h32v-54h-399v54h32q71 0 83 15q5 6 6 16.5t1 58.5v355q0 62 -11 72.5t-78 11.5h-42v56q166 3 253 69h35z" />
<glyph unicode="2" horiz-adv-x="574" d="M477 266h54l-23 -270q-40 4 -61 4h-376q-17 0 -52 -4v47q38 54 77.5 101t123.5 135q80 85 109 139t29 116q0 56 -29 86.5t-81 30.5q-38 0 -71 -21t-33 -45q0 -12 16 -19q35 -17 50 -37.5t15 -52.5q0 -39 -23 -62t-62 -23q-45 0 -72 31.5t-27 83.5q0 85 69.5 143.5 t171.5 58.5q106 0 176 -54t70 -134q0 -74 -54 -145q-22 -28 -58 -55t-141 -95q-56 -38 -100 -75h193q48 1 58 2t17 6q12 7 23 58z" />
<glyph unicode="3" horiz-adv-x="574" d="M351 368q68 -9 105 -30q34 -20 54 -59t20 -86q0 -48 -20.5 -90.5t-55.5 -66.5q-72 -50 -188 -50q-108 0 -175 47t-67 123q0 42 25 68.5t65 26.5q37 0 62 -24t25 -59q0 -21 -7 -34.5t-30 -35.5q-10 -9 -10 -18q0 -16 27 -29t59 -13q55 0 85.5 41.5t30.5 116.5 q0 142 -93 142l-50 -5q-6 -1 -16 -1q-16 0 -26 10.5t-10 27.5q0 33 36 33q13 0 41 -6q27 -5 35 -5q35 0 56 38t21 102q0 59 -26.5 91.5t-73.5 32.5q-28 0 -52 -12t-24 -26q0 -5 7 -12q40 -37 40 -75q0 -35 -22.5 -57t-58.5 -22q-39 0 -65 26t-26 65q0 61 53 109 q64 56 174 56q106 0 171 -48.5t65 -128.5q0 -118 -135 -156q-14 -4 -26 -7z" />
<glyph unicode="4" horiz-adv-x="574" d="M446 248h100v-67h-100v-37q0 -48 1 -58.5t6 -17.5q12 -14 72 -14h11v-54h-341v54h11q65 0 76 14q5 7 6 17.5t1 58.5v37h-270v74l364 453h69q-6 -111 -6 -152v-308zM289 248v250l-197 -250h197z" />
<glyph unicode="5" horiz-adv-x="574" d="M157 551l-15 -129q84 38 144 38q108 0 178.5 -64t70.5 -162q0 -110 -76.5 -179t-199.5 -69q-104 0 -166 45t-62 120q0 46 26 74t70 28q38 0 61.5 -22.5t23.5 -59.5q0 -25 -12.5 -41.5t-41.5 -30.5q-12 -7 -12 -14q0 -16 27 -29t61 -13q60 0 91.5 47.5t31.5 138.5 q0 163 -113 163q-65 0 -111 -38q2 -12 2 -16q0 -16 -12 -28t-29 -12q-16 0 -26.5 10.5t-10.5 26.5q0 19 26 45q20 262 23 328q81 -17 195 -17q123 0 181 14q9 3 16 3q8 0 8 -11q0 -39 -34 -84q-60 -77 -189 -77q-55 0 -126 15z" />
<glyph unicode="6" horiz-adv-x="574" d="M202 361q31 36 64.5 51t81.5 15q89 0 145 -57t56 -147q0 -103 -72 -170t-182 -67q-124 0 -198 91q-68 84 -68 229q0 176 86 288q86 114 227 114q86 0 137 -38t51 -102q0 -41 -25 -65.5t-68 -24.5q-39 0 -63.5 21.5t-24.5 55.5q0 33 20 59q8 10 8 19q0 23 -43 23 q-51 0 -84 -56.5t-43 -162.5q-5 -47 -5 -76zM296 352q-28 1 -50 -17.5t-30 -50.5q-8 -37 -8 -90q0 -77 22 -119t63 -42q82 0 82 179q0 137 -79 140z" />
<glyph unicode="7" horiz-adv-x="574" d="M546 708v-42q-111 -236 -139.5 -333t-28.5 -236q0 -54 -26 -82.5t-73 -28.5q-42 0 -67 27t-25 71q0 59 53 162q9 18 127 201l68 101q-126 -3 -132 -3q-15 0 -114 3q-7 1 -18 1q-26 0 -36.5 -17.5t-24.5 -83.5l-10 -45l-55 6l34 299q126 -14 239 -14q140 0 228 14z" />
<glyph unicode="8" horiz-adv-x="574" d="M403 411q143 -57 143 -196q0 -103 -74.5 -166t-195.5 -63q-114 0 -181.5 48t-67.5 129q0 90 77 130q16 9 61 23q-116 62 -116 179q0 97 69.5 155t185.5 58q97 0 157 -43t60 -112q0 -72 -61 -114q-17 -12 -57 -28zM352 436l2 2q42 37 42 104q0 53 -29.5 83.5t-79.5 30.5 q-46 0 -77 -27.5t-31 -68.5q0 -33 21 -61t55 -41q29 -11 92 -26q2 1 3 3zM219 289q-35 -29 -48.5 -55.5t-13.5 -67.5q0 -60 34.5 -94t95.5 -34q59 0 97 33t38 84q0 38 -20 60.5t-67 39.5q-25 8 -116 34z" />
<glyph unicode="9" horiz-adv-x="574" d="M369 329q-59 -66 -146 -66q-85 0 -141.5 58t-56.5 147q0 104 70.5 172t179.5 68q129 0 208 -105q62 -84 62 -217q0 -167 -76 -279q-80 -121 -238 -121q-85 0 -135.5 35t-50.5 93q0 43 27 71.5t68 28.5q37 0 60.5 -22.5t23.5 -58.5q0 -25 -20 -57q-6 -9 -6 -18 q0 -20 34 -20q119 0 135 213q2 24 2 78zM283 656q-85 0 -85 -165q0 -73 17 -110q9 -19 27.5 -31t39.5 -12q38 0 60.5 39t22.5 105q0 80 -22 129q-19 45 -60 45z" />
<glyph unicode=":" horiz-adv-x="332" d="M89 466l79 96q10 12 16 12t16 -12l79 -96q15 -19 0 -38l-79 -96q-10 -12 -16 -12t-16 12l-79 96q-9 12 -9 19t9 19zM89 128l79 97q10 12 16 12t16 -12l79 -97q15 -18 0 -36l-79 -97q-10 -12 -16 -12t-16 12l-79 97q-9 11 -9 18t9 18z" />
<glyph unicode=";" horiz-adv-x="332" d="M89 92q-9 11 -9 18t9 18l79 97q10 12 16 12t16 -12l76 -97q8 -10 8.5 -17.5t-5.5 -18.5l-139 -234q-13 -22 -30 -15t-11 31l34 138q5 20 -5 32zM89 466l79 96q10 12 16 12t16 -12l79 -96q15 -19 0 -38l-79 -96q-10 -12 -16 -12t-16 12l-79 96q-9 12 -9 19t9 19z" />
<glyph unicode="&#x3c;" horiz-adv-x="606" d="M558 404l-328 -151l328 -153v-125l-509 232v90l509 232v-125z" />
<glyph unicode="=" horiz-adv-x="606" d="M51 92v115h504v-115h-504zM51 298v115h504v-115h-504z" />
<glyph unicode="&#x3e;" horiz-adv-x="606" d="M48 404v125l509 -232v-90l-509 -232v125l328 153z" />
<glyph unicode="?" horiz-adv-x="525" d="M157 129l67 99q9 13 14 13t14 -13l67 -99q13 -19 0 -38l-67 -99q-9 -13 -14 -13t-14 13l-67 99q-7 12 -7 19.5t7 18.5zM250 434q30 34 43.5 65t13.5 71q0 52 -25.5 82.5t-58.5 22.5q-10 -3 -14.5 -8t-4.5 -15t1.5 -20t3.5 -28.5t2 -35.5q0 -35 -24 -57.5t-62 -22.5 q-41 0 -68 26.5t-27 66.5q0 69 63 112.5t162 43.5q105 0 166.5 -48t61.5 -130q0 -70 -54 -121q-23 -21 -59.5 -44t-67.5 -46t-50 -52q-8 -10 -12 -10.5t-10 9.5l-23 38q-7 12 -4 23q7 33 47 78z" />
<glyph unicode="@" horiz-adv-x="747" d="M644 190h69q-19 -47 -64 -92q-112 -113 -262 -113q-152 0 -257.5 110t-105.5 267q0 156 106.5 265.5t258.5 109.5q139 0 236 -90.5t97 -220.5q0 -109 -73.5 -193.5t-168.5 -84.5q-35 0 -56 15.5t-21 40.5q0 2 2 16q-40 -75 -113 -75q-56 0 -94 43t-38 106q0 102 68 194 q63 85 157 85q33 0 53.5 -11.5t39.5 -39.5l12 34h104l-92 -288q-7 -26 -7 -37q0 -22 24 -22q29 0 64 30q75 63 75 180q0 112 -76 184.5t-194 72.5q-129 0 -214.5 -88.5t-85.5 -221.5q0 -136 86.5 -228t214.5 -92q80 0 146 37t109 107zM406 521q-46 0 -86 -73 q-57 -101 -57 -192q0 -59 46 -59q49 0 84 83q20 48 40 112.5t20 83.5q0 18 -14 31.5t-33 13.5z" />
<glyph unicode="A" horiz-adv-x="759" d="M351 737h76l257 -620q16 -38 33.5 -49.5t60.5 -13.5v-54h-351v54l17 1q33 0 45.5 5t12.5 19t-12 41l-38 98h-249l-16 -38q-16 -36 -16 -57q0 -34 23 -50t77 -19v-54h-289v54q44 5 76 38.5t66 114.5zM330 524l-101 -239h198z" />
<glyph unicode="B" horiz-adv-x="778" d="M17 722h386q90 0 135 -8t86 -32q37 -20 58 -57t21 -80q0 -93 -92 -137q-36 -17 -105 -28q70 -9 116 -31q114 -51 114 -160q0 -50 -29 -93.5t-77 -65.5q-70 -30 -208 -30h-405v54h15q70 0 82 15q5 6 6 16.5t1 58.5v434q0 49 -1 59t-6 17q-13 14 -82 14h-15v54zM301 398h49 q86 0 123 30q49 38 49 113q0 62 -34.5 94.5t-100.5 32.5h-30q-30 0 -44 -13q-12 -10 -12 -45v-212zM301 343v-225q0 -36 3 -44q9 -20 58 -20h30q70 0 106 30q47 39 47 116q0 82 -55 119q-37 24 -120 24h-69z" />
<glyph unicode="C" horiz-adv-x="778" d="M698 733l10 -286l-53 -6q-34 125 -90 184.5t-139 59.5q-92 0 -139.5 -80t-47.5 -235q0 -165 49 -244t151 -79q86 0 144 57t78 161l62 -15q-29 -134 -106.5 -199.5t-210.5 -65.5q-171 0 -271 110q-95 105 -95 257q0 168 106.5 276.5t271.5 108.5q53 0 93.5 -11.5 t89.5 -41.5l54 49h43z" />
<glyph unicode="D" horiz-adv-x="833" d="M123 144v434q0 48 -1 58.5t-6 16.5q-12 15 -82 15h-15v54h356q106 0 168 -12t107 -42q143 -93 143 -299q0 -103 -35.5 -182t-102.5 -126q-88 -61 -268 -61h-368v54h15q70 0 82 15q5 6 6 16.5t1 58.5zM363 54h21q51 0 92.5 18t63.5 50q25 34 39.5 101.5t14.5 147.5 q0 297 -206 297h-25q-36 0 -48 -12t-12 -48v-489q0 -40 11.5 -52.5t48.5 -12.5z" />
<glyph unicode="E" horiz-adv-x="759" d="M687 722l6 -260h-52q-24 84 -58 132q-54 74 -169 74h-28q-60 0 -76 -22q-10 -15 -10 -64v-181h17q59 0 94.5 36.5t43.5 105.5h54v-339h-54q-8 69 -43.5 105.5t-94.5 36.5h-17v-222q0 -41 16 -56q9 -9 23 -11.5t51 -2.5h30q91 0 147 51.5t87 163.5h53l-12 -269h-679v54h15 q70 0 82 15q5 6 6 16.5t1 58.5v434q0 48 -1 58.5t-6 16.5q-12 15 -82 15h-15v54h671z" />
<glyph unicode="F" horiz-adv-x="722" d="M684 722l6 -260h-52q-24 85 -58 132q-54 74 -169 74h-19q-60 0 -76 -22q-10 -15 -10 -64v-181h17q121 0 138 142h54v-339h-54q-8 69 -43.5 105.5t-94.5 36.5h-17v-202q0 -48 1 -58.5t6 -16.5q12 -15 83 -15h26v-54h-400v54h15q70 0 82 15q5 6 6 16.5t1 58.5v434 q0 48 -1 58.5t-6 16.5q-12 15 -82 15h-15v54h662z" />
<glyph unicode="G" horiz-adv-x="833" d="M719 733l9 -287h-53q-25 114 -87 176.5t-151 62.5q-44 0 -81.5 -20t-59.5 -55q-57 -92 -57 -254q0 -145 41 -233q19 -41 54.5 -63.5t81.5 -22.5q67 0 107.5 42.5t40.5 112.5v14q0 55 -13 65.5t-78 10.5h-11v54h355v-54q-71 -1 -82 -14q-5 -6 -6 -17t-1 -59v-206h-53 l-49 98q-37 -38 -70 -58q-73 -41 -168 -41q-155 0 -252 101.5t-97 263.5q0 161 99 266q112 121 287 121q54 0 96 -12t95 -42l59 50h44z" />
<glyph unicode="H" horiz-adv-x="870" d="M565 339h-261v-195q0 -49 1 -59t6 -16q12 -15 83 -15h15v-54h-389v54h15q70 0 82 15q5 6 6 16.5t1 58.5v433q0 49 -1 59.5t-6 16.5q-12 15 -82 15h-15v54h389v-54h-15q-71 0 -83 -15q-5 -6 -6 -16.5t-1 -59.5v-178h261v178q0 49 -1 59.5t-6 16.5q-12 15 -82 15h-15v54 h389v-54h-15q-71 0 -83 -15q-5 -6 -6 -16.5t-1 -59.5v-433q0 -49 1 -59t6 -16q12 -15 83 -15h15v-54h-389v54h15q70 0 82 15q5 6 6 16.5t1 58.5v195z" />
<glyph unicode="I" horiz-adv-x="444" d="M132 144v434q0 48 -1 58.5t-6 16.5q-12 15 -82 15h-15v54h389v-54h-15q-71 0 -83 -15q-5 -6 -6 -16t-1 -59v-434q0 -49 1 -59t6 -16q12 -15 83 -15h15v-54h-389v54h15q70 0 82 15q5 6 6 16.5t1 58.5z" />
<glyph unicode="J" horiz-adv-x="648" d="M534 578v-298q0 -89 -20.5 -142.5t-67.5 -91.5q-76 -61 -200 -61q-112 0 -177 52.5t-65 144.5q0 64 35 106t89 42q45 0 74 -29t29 -73q0 -41 -26 -67.5t-66 -26.5q-11 0 -24 3q-10 2 -12 2q-19 0 -19 -19q0 -29 35.5 -51.5t82.5 -22.5q39 0 72.5 16t52.5 43q27 41 27 140 v333q0 49 -1 59t-6 16q-12 15 -82 15h-15v54h389v-54h-15q-71 0 -83 -15q-5 -6 -6 -16t-1 -59z" />
<glyph unicode="K" horiz-adv-x="815" d="M383 338l-84 -88v-106q0 -48 1 -58.5t6 -16.5q12 -15 83 -15h15v-54h-389v54h15q70 0 82 15q5 6 6 16.5t1 58.5v434q0 48 -1 58.5t-6 16.5q-12 15 -82 15h-15v54h389v-54h-15q-71 0 -83 -15q-5 -6 -6 -16.5t-1 -58.5v-234l221 234q33 37 33 55q0 35 -75 35h-24v54h337 v-54q-50 -3 -94 -28.5t-109 -89.5l-83 -87l208 -332q34 -54 48.5 -64.5t56.5 -12.5v-54h-364v54h13q68 0 68 23q0 11 -12 32z" />
<glyph unicode="L" horiz-adv-x="722" d="M648 269h53l-12 -269h-670v54h15q70 0 82 15q5 6 6 16.5t1 59.5v433q0 48 -1 58.5t-6 16.5q-12 15 -82 15h-15v54h396v-54h-22q-71 0 -83 -15q-5 -6 -6 -16.5t-1 -58.5v-454q0 -41 16 -56q9 -9 23 -11.5t51 -2.5h21q106 0 169 75q38 46 65 140z" />
<glyph unicode="M" horiz-adv-x="981" d="M338 722l155 -430l146 430h326v-54h-11q-71 0 -83 -15q-5 -6 -6 -16.5t-1 -58.5v-434q0 -48 1 -58.5t6 -16.5q12 -15 83 -15h11v-54h-382v54h11q71 0 83 15q5 6 6 16.5t1 58.5v499l-221 -643h-52l-227 633v-416q0 -67 5 -93t21 -43q24 -25 84 -27v-54h-285v54q58 1 82 27 q16 17 21 43.5t5 92.5v361q0 48 -1 58.5t-6 16.5q-12 15 -83 15h-11v54h322z" />
<glyph unicode="N" horiz-adv-x="833" d="M270 722l386 -452v235q0 66 -5 92.5t-21 43.5q-24 26 -82 27v54h285v-54q-60 -2 -84 -27q-16 -17 -21 -43t-5 -93v-512h-67l-465 553v-329q0 -66 5 -92t21 -43q23 -24 84 -27v-54h-285v54q59 3 82 27q16 17 21 43t5 92v394q-38 54 -106 56v55h252z" />
<glyph unicode="O" horiz-adv-x="833" d="M417 737q145 0 243 -85q62 -53 98 -133.5t36 -167.5q0 -180 -134 -288q-99 -78 -248 -78q-163 0 -268 103t-105 262q0 88 35.5 168t98.5 134q97 85 244 85zM418 685q-86 0 -128 -71q-51 -86 -51 -245t51 -255q41 -77 128 -77q86 0 131 80.5t45 232.5q0 165 -51 258 q-44 77 -125 77z" />
<glyph unicode="P" horiz-adv-x="759" d="M308 310v-166q0 -49 1 -59t6 -17q13 -14 83 -14h22v-54h-396v54h15q69 0 82 14q5 7 6 17t1 59v433q0 49 -1 59t-6 17q-13 14 -82 14h-15v55h397q137 0 213 -35q48 -22 74.5 -66t26.5 -100q0 -211 -315 -211h-112zM308 365h58q97 0 136.5 35.5t39.5 121.5q0 75 -34 110 t-105 35h-40q-34 0 -44.5 -11.5t-10.5 -48.5v-242z" />
<glyph unicode="Q" horiz-adv-x="833" d="M472 -25v15q-30 -5 -63 -5q-168 0 -275 122q-96 108 -96 256q0 159 108.5 266.5t269.5 107.5q156 0 265 -109t109 -265q0 -97 -45 -181.5t-125 -137.5q28 -84 45 -111.5t40 -27.5t34 17.5t15 59.5h54v-8q0 -72 -48 -117t-124 -45q-78 0 -121 42.5t-43 120.5zM565 175 q25 66 25 195q0 131 -39 221q-41 94 -137 94q-176 0 -176 -306q0 -126 21 -190q17 43 36 61q42 40 108 40q81 0 132 -59q15 -19 30 -56zM474 53q3 33 3 47q0 64 -23 98.5t-67 34.5q-39 0 -63.5 -28.5t-24.5 -72.5q0 -43 31 -69t81 -26q31 0 63 16z" />
<glyph unicode="R" horiz-adv-x="815" d="M304 347v-202q0 -49 1 -59t6 -17q13 -14 83 -14h26v-54h-400v54h15q69 0 82 14q5 7 6 17t1 59v433q0 49 -1 59t-6 17q-13 14 -82 14h-15v54h427q140 0 197 -36q81 -53 81 -145q0 -102 -96 -151q-32 -15 -104 -29q65 -22 97 -59t43 -105l7 -38l4 -28q6 -39 12 -47 q10 -15 29 -15q44 0 46 95h54v-12q0 -80 -44.5 -123.5t-125.5 -43.5q-134 0 -160 119q-5 29 -14 125q-3 42 -7.5 57.5t-16.5 30.5q-27 30 -89 30h-56zM304 402h55q100 0 137.5 29t37.5 105q0 68 -32.5 100t-102.5 32h-24q-48 0 -59.5 -10.5t-11.5 -53.5v-202z" />
<glyph unicode="S" horiz-adv-x="667" d="M588 729l13 -259h-53q-89 215 -246 215q-59 0 -97 -29.5t-38 -75.5q0 -62 68 -86q25 -9 102 -24l48 -11q130 -29 189 -85t59 -151q0 -105 -73.5 -171.5t-190.5 -66.5q-116 0 -205 67l-62 -59h-45l-6 283h51q41 -113 111.5 -176t155.5 -63q65 0 104.5 32t39.5 85 q0 56 -44 80q-28 15 -108 30l-62 12q-118 22 -182.5 84t-64.5 154q0 100 71.5 161.5t187.5 61.5q100 0 180 -54l52 46h45z" />
<glyph unicode="T" horiz-adv-x="722" d="M692 722l15 -271h-53q-20 109 -59 160q-46 59 -108 59q-22 0 -29 -7.5t-7 -33.5v-485q0 -48 1 -58.5t6 -16.5q12 -15 83 -15h22v-54h-404v54h22q71 0 83 15q5 6 6 16.5t1 58.5v485q0 26 -7 33.5t-29 7.5q-69 0 -116 -71q-34 -49 -51 -148h-53l15 271h662z" />
<glyph unicode="U" horiz-adv-x="833" d="M299 578v-320q0 -108 33 -149q43 -49 128 -49q126 0 170 95q17 37 17 149v201q0 67 -5 93t-21 43q-24 26 -82 27v54h285v-54q-60 -2 -84 -27q-16 -17 -21 -43.5t-5 -92.5v-201q0 -88 -7.5 -131t-28.5 -77q-37 -58 -97.5 -84.5t-156.5 -26.5q-216 0 -279 115 q-26 48 -26 161v317q0 48 -1 58.5t-6 16.5q-12 15 -82 15h-15v54h389v-54h-15q-71 0 -83 -15q-5 -6 -6 -16.5t-1 -58.5z" />
<glyph unicode="V" horiz-adv-x="759" d="M429 206l142 356q9 22 9 38q0 40 -35 57q-19 11 -62 11v54h295v-54q-91 -9 -138 -127l-229 -556h-88l-243 614q-17 43 -35.5 56t-62.5 13v54h362v-54h-21q-62 0 -62 -25q0 -9 9 -33z" />
<glyph unicode="W" horiz-adv-x="981" d="M711 258l87 285q13 43 13 61q0 39 -34 55q-17 8 -56 9v54h252v-54q-45 -9 -65.5 -34.5t-42.5 -99.5l-174 -549h-73l-125 407l-132 -407h-75l-204 625q-12 36 -26 47t-48 11h-2v54h310v-54q-35 -2 -47 -7t-12 -18q0 -11 8 -34l116 -358l80 251l-36 113q-11 32 -23 41.5 t-41 11.5v54h296v-54q-36 -2 -47.5 -7.5t-11.5 -19.5q0 -9 6 -27z" />
<glyph unicode="X" horiz-adv-x="722" d="M431 413l177 -258q46 -67 66.5 -83t60.5 -18v-54h-360v54q37 1 51.5 6t14.5 18q0 18 -13 34l-109 156l-88 -112q-20 -25 -20 -50q0 -26 25.5 -38t82.5 -14v-54h-331v54q44 2 72.5 19.5t71.5 70.5l147 181l-205 292q-21 30 -37 39.5t-49 11.5v54h358v-54q-44 -2 -56 -6 t-12 -18q0 -12 10 -26l105 -151l70 86q34 40 34 64q0 51 -96 51v54h308v-54q-39 -3 -68.5 -20t-63.5 -57z" />
<glyph unicode="Y" horiz-adv-x="722" d="M420 396l100 178q14 28 14 46q0 22 -20 35t-53 13h-21v54h295v-54q-81 -6 -134 -93l-150 -257v-174q0 -48 1 -58.5t6 -16.5q12 -15 83 -15h22v-54h-404v54h22q71 0 83 15q5 6 6 16.5t1 58.5v161l-204 327q-14 22 -29.5 29t-49.5 7v54h360v-54h-16q-56 0 -56 -22 q0 -12 12 -31z" />
<glyph unicode="Z" horiz-adv-x="667" d="M634 722v-56l-401 -611h89q91 0 130 20q48 24 82 76.5t47 124.5h53l-16 -276h-594v58l401 609h-74q-80 0 -122 -17.5t-75 -63.5q-31 -42 -54 -116h-51l12 252h573z" />
<glyph unicode="[" horiz-adv-x="389" d="M339 722v-50h-132v-730h132v-50h-255v830h255z" />
<glyph unicode="\" horiz-adv-x="606" d="M124 737l431 -737h-74l-431 737h74z" />
<glyph unicode="]" horiz-adv-x="389" d="M31 -108v50h132v730h-132v50h255v-830h-255z" />
<glyph unicode="^" horiz-adv-x="606" d="M554 318h-119l-131 250l-133 -250h-119l209 404h85z" />
<glyph unicode="_" horiz-adv-x="500" d="M0 -58h500v-90h-500v90z" />
<glyph unicode="`" horiz-adv-x="333" d="M249 545h-64l-147 87q-36 21 -36 52q0 21 16.5 35.5t40.5 14.5q25 0 48 -18q6 -4 29 -33z" />
<glyph unicode="a" horiz-adv-x="611" d="M516 318v-176q0 -44 5.5 -58t21.5 -14q9 0 19 7q11 7 20 7q15 0 15 -16q0 -32 -33.5 -57.5t-76.5 -25.5q-79 0 -106 71q-40 -39 -83 -55t-108 -16q-73 0 -113.5 31t-40.5 86q0 86 107 130q54 22 183 50q12 1 33 7v52q0 52 -18.5 73.5t-63.5 21.5q-30 0 -52 -9.5 t-22 -22.5q0 -6 9 -17q14 -19 14 -38q0 -28 -23.5 -46.5t-58.5 -18.5t-58 21.5t-23 53.5q0 59 62.5 94t165.5 35q121 0 178 -46q26 -21 36.5 -48t10.5 -76zM359 235l-53 -12q-54 -13 -78.5 -36.5t-24.5 -63.5q0 -32 17.5 -51t46.5 -19q42 0 67 34t25 92v56z" />
<glyph unicode="b" horiz-adv-x="648" d="M240 737v-324q59 75 155 75q95 0 156 -68t61 -175q0 -116 -71 -188t-185 -72q-106 0 -173 81l-65 -80h-49q14 77 14 220v372q0 67 -9 80t-55 13h-19v51zM345 413q-106 0 -106 -201q0 -85 26 -130t75 -45q99 0 99 196q0 180 -94 180z" />
<glyph unicode="c" horiz-adv-x="556" d="M475 177l52 -17q-21 -67 -60 -107q-62 -68 -167 -68q-121 0 -195 67t-74 177q0 113 80.5 186t205.5 73q91 0 145 -37t54 -99q0 -38 -24.5 -61.5t-65.5 -23.5q-36 0 -59 20.5t-23 52.5q0 23 21 49q11 13 11 19q0 12 -15.5 20t-37.5 8q-56 0 -87.5 -50t-31.5 -139 q0 -93 33.5 -143.5t94.5 -50.5q67 0 105 51q21 28 38 73z" />
<glyph unicode="d" horiz-adv-x="667" d="M568 737v-615q0 -39 12 -50q8 -7 47 -7h27v-54l-234 -11v72q-59 -87 -164 -87q-98 0 -158.5 67.5t-60.5 176.5t66 184t162 75q91 0 146 -67v157q0 67 -9 80t-55 13h-32v51zM311 420q-48 0 -74.5 -50t-26.5 -139q0 -85 26 -131.5t73 -46.5q46 0 75 51t29 133q0 83 -28 133 t-74 50z" />
<glyph unicode="e" horiz-adv-x="574" d="M540 228h-335q1 -77 25 -115q39 -60 111 -60q49 0 84.5 26.5t65.5 84.5l49 -20q-65 -159 -238 -159q-117 0 -189 61q-37 32 -59 82.5t-22 103.5q0 104 72 179q75 77 197 77q109 0 174 -66t65 -178v-16zM206 283h150q15 0 21 7t6 25q0 121 -79 121q-45 0 -71.5 -41 t-26.5 -112z" />
<glyph unicode="f" horiz-adv-x="389" d="M383 473v-60h-125v-269v-47q0 -30 13.5 -38.5t61.5 -8.5h18v-50h-330v50h4q49 0 62.5 8.5t13.5 38.5v47v269h-87v60h87v13q0 111 60 179t158 68q62 0 103.5 -31t41.5 -78q0 -35 -23 -58.5t-57 -23.5q-32 0 -53.5 20t-21.5 49q0 33 25 53q5 5 5 9q0 8 -16 8 q-15 0 -30.5 -11.5t-22.5 -28.5q-12 -26 -12 -111v-57h125z" />
<glyph unicode="g" horiz-adv-x="611" d="M263 97h69q104 0 149 -15q37 -11 60 -43.5t23 -74.5q0 -80 -75 -123t-215 -43q-244 0 -244 98q0 35 28 58t78 31q-91 25 -91 93q0 77 116 98q-110 38 -110 141q0 74 66.5 122.5t169.5 48.5q76 0 134 -29q63 79 128 79q33 0 53.5 -18t20.5 -47q0 -27 -18 -45.5t-44 -18.5 q-20 0 -37 14t-17 31v4q0 5 -5 5q-17 0 -37 -28q33 -27 46.5 -52.5t13.5 -60.5q0 -46 -24 -82.5t-68 -56.5q-51 -24 -141 -24h-18q-43 0 -59.5 -7t-16.5 -26q0 -18 12.5 -23.5t52.5 -5.5zM290 436q-77 0 -77 -110q0 -51 16 -83q16 -36 60 -36q35 0 54.5 30t19.5 83 q0 116 -73 116zM328 -43h-131q-37 -16 -37 -49q0 -28 31.5 -43t89.5 -15q153 0 153 61q0 23 -15 33q-13 8 -29 10.5t-62 2.5z" />
<glyph unicode="h" horiz-adv-x="685" d="M256 737v-341q60 92 170 92q81 0 123 -48q38 -41 38 -129v-167v-46q0 -31 13.5 -39t61.5 -8h4v-51h-305v51q44 0 56.5 8.5t12.5 37.5v47v153q0 98 -71 98q-28 0 -52 -16t-36 -43q-15 -33 -15 -95v-97v-46q0 -31 12 -39t56 -8v-51h-305v51h4q49 0 62.5 8t13.5 38v47v430 q-1 71 -9.5 84t-54.5 13h-19v51z" />
<glyph unicode="i" horiz-adv-x="370" d="M263 473v-329v-47q0 -29 13 -37.5t59 -8.5h6v-51h-313v51h4q47 0 60.5 8.5t13.5 38.5v46v177q0 67 -9 80.5t-55 13.5h-14v51zM182 737q36 0 62 -26t26 -62q0 -37 -26 -63t-64 -26q-35 0 -61 26.5t-26 62.5t26 62t63 26z" />
<glyph unicode="j" horiz-adv-x="352" d="M184 737q36 0 62 -26t26 -62q0 -37 -26 -63t-64 -26q-35 0 -61 26.5t-26 62.5t26 62t63 26zM268 473v-364q0 -143 -35 -210q-23 -46 -70.5 -73.5t-104.5 -27.5q-61 0 -100.5 28t-39.5 72q0 32 22 53.5t56 21.5q28 0 46.5 -19t18.5 -48q0 -31 -29 -50q8 -11 26 -11 q53 0 53 99v385q0 60 -10 73t-54 13h-32v51z" />
<glyph unicode="k" horiz-adv-x="667" d="M252 737v-491l124 108q25 22 25 40q0 28 -60 28h-12v51h294v-51h-23q-53 0 -108 -47l-77 -64l157 -196q33 -43 47.5 -53.5t40.5 -10.5v-51h-306v51h10q39 0 39 20q0 15 -13 31l-92 111l-46 -41v-28v-46q0 -30 12.5 -38.5t55.5 -8.5v-51h-305v51h4q49 0 62.5 8t13.5 38v47 v434q0 67 -9 80t-55 13h-19v51z" />
<glyph unicode="l" horiz-adv-x="352" d="M256 737v-593v-47q0 -31 15 -39q12 -7 53 -7h7v-51h-312v51h4q49 0 62.5 8t13.5 38v47v434q0 67 -9 80t-55 13h-19v51z" />
<glyph unicode="m" horiz-adv-x="963" d="M248 473v-79q60 94 160 94q50 0 87.5 -24t53.5 -66q35 48 72 69t85 21q67 0 112 -41.5t45 -103.5v-199v-47q0 -29 13.5 -37.5t61.5 -8.5h4v-51h-294v51q38 1 48 9t10 37v47v162q0 89 -55 89q-42 0 -66.5 -32t-24.5 -85v-134v-47q0 -29 10 -37t48 -9v-51h-272v51 q37 1 47 9t10 38v46v158q0 49 -13 71t-42 22q-41 0 -66 -32t-25 -85v-134v-47q0 -29 10 -37t48 -9v-51h-295v51h5q48 0 61.5 8t13.5 39v46v177q0 67 -9 80.5t-55 13.5h-16v51z" />
<glyph unicode="n" horiz-adv-x="685" d="M249 473v-88q37 56 78 79.5t100 23.5q82 0 124 -48q38 -41 38 -129v-167v-46q0 -31 13.5 -39t61.5 -8h4v-51h-305v51q44 0 56.5 8.5t12.5 37.5v47v153q0 98 -73 98q-27 0 -51 -16t-36 -43q-16 -32 -16 -95v-97v-47q0 -29 12.5 -37.5t56.5 -8.5v-51h-305v51h4q48 0 61.5 8 t13.5 39v46v174q0 70 -9 83.5t-55 13.5h-15v51z" />
<glyph unicode="o" horiz-adv-x="611" d="M308 488q114 0 192.5 -73.5t78.5 -180.5t-78.5 -178t-196.5 -71t-195.5 71t-77.5 180q0 108 79 180t198 72zM306 436q-102 0 -102 -200q0 -199 101 -199q48 0 74.5 51.5t26.5 146.5q0 87 -20 142q-10 26 -32 42.5t-48 16.5z" />
<glyph unicode="p" horiz-adv-x="667" d="M254 473v-64q34 43 69.5 61t86.5 18q96 0 159 -68t63 -171q0 -112 -67.5 -188t-168.5 -76q-83 0 -142 65v-108v-47q0 -30 13.5 -38.5t62.5 -8.5h11v-50h-323v50h4q48 0 61.5 8.5t13.5 38.5v47v376q-1 71 -9.5 84t-54.5 13h-15v51zM366 413q-55 0 -84 -47.5t-29 -136.5 q0 -85 27.5 -130.5t77.5 -45.5q47 0 74 47.5t27 131.5q0 181 -93 181z" />
<glyph unicode="q" horiz-adv-x="648" d="M527 487h49q-15 -119 -15 -215v-330v-47q0 -30 13.5 -38.5t61.5 -8.5h4v-50h-323v50h11q49 0 62.5 8.5t13.5 38.5v47v116q-63 -73 -154 -73q-44 0 -86.5 18.5t-68.5 49.5q-28 31 -44.5 80t-16.5 99q0 110 72.5 183t182.5 73q109 0 174 -81zM308 436q-101 0 -101 -200 q0 -183 97 -183q48 0 75.5 53.5t27.5 146.5q0 77 -17 119q-12 29 -34.5 46.5t-47.5 17.5z" />
<glyph unicode="r" horiz-adv-x="519" d="M241 473v-121q53 136 166 136q48 0 79 -28.5t31 -72.5q0 -37 -24.5 -61.5t-61.5 -24.5q-32 0 -53.5 21t-21.5 53q0 23 17 47q-47 -14 -76 -65q-42 -74 -42 -193v-20v-46q0 -31 13.5 -39t61.5 -8h22v-51h-334v51h4q48 0 61.5 8t13.5 39v46v174q0 70 -9 83.5t-55 13.5h-15 v51z" />
<glyph unicode="s" horiz-adv-x="500" d="M439 478l4 -158h-47q-37 61 -74.5 88.5t-85.5 27.5q-37 0 -60.5 -16.5t-23.5 -41.5q0 -19 12.5 -29t49.5 -20l90 -22q54 -13 76.5 -23t42.5 -27q43 -38 43 -102q0 -75 -56 -122.5t-145 -47.5q-82 0 -141 35l-39 -18h-42l-5 173h45q70 -138 182 -138q40 0 63 16t23 43 q0 43 -70 58l-73 16q-84 18 -124 57q-42 40 -42 99q0 71 54.5 116.5t138.5 45.5q69 0 124 -32l37 22h43z" />
<glyph unicode="t" horiz-adv-x="426" d="M381 473v-60h-130v-257q0 -51 7.5 -68.5t29.5 -17.5q31 0 47.5 30.5t15.5 85.5h53q1 -10 1 -23q0 -72 -40 -123q-41 -55 -129 -55t-121 55q-13 21 -17 47t-4 87v239h-71v52q141 16 165 206h63v-198h130z" />
<glyph unicode="u" horiz-adv-x="685" d="M584 473v-342v-23q0 -27 10 -35t45 -8h28v-54l-233 -11v82q-43 -53 -83.5 -75t-93.5 -22q-106 0 -148 86q-10 21 -13 42.5t-3 77.5v127q-1 71 -9.5 84t-54.5 13h-16v51l237 7v-288q0 -57 16.5 -82t54.5 -25q28 0 52.5 15.5t36.5 41.5q17 33 17 103v80q0 70 -9 83.5 t-55 13.5h-16v51z" />
<glyph unicode="v" horiz-adv-x="611" d="M357 140l73 184q18 44 18 60q0 21 -18 30t-59 9v50h227v-50h-4q-30 0 -49.5 -19t-41.5 -69l-154 -349h-85l-184 384q-16 33 -28 42t-40 11v50h282v-50q-52 0 -52 -23q0 -10 8 -26z" />
<glyph unicode="w" horiz-adv-x="889" d="M642 154l70 170q14 34 14 52q0 21 -19 33.5t-50 12.5h-7v51h226v-51q-34 -2 -53 -19.5t-41 -65.5l-157 -351h-75l-107 263l-114 -263h-76l-163 380q-14 32 -28 43.5t-43 12.5v51h276v-51q-30 -1 -39.5 -5.5t-9.5 -18.5q0 -5 7 -23l87 -221l72 170l-25 60 q-10 23 -21.5 30.5t-39.5 7.5v51h279v-51h-7q-54 0 -54 -23q0 -9 6 -22z" />
<glyph unicode="x" horiz-adv-x="611" d="M370 272l138 -164q32 -37 47 -46.5t43 -10.5v-51h-314v51h7q40 0 40 23q0 10 -11 22l-59 71l-60 -59q-14 -14 -14 -29q0 -28 47 -28h13v-51h-234v51q40 1 89 46l121 115l-143 171q-19 23 -31.5 30t-35.5 9v51h296v-51h-11q-33 0 -33 -16q0 -9 11 -21l57 -69l51 49 q21 20 21 34q0 23 -40 23h-23v51h246v-51q-58 0 -114 -52z" />
<glyph unicode="y" horiz-adv-x="611" d="M359 158l83 183q9 22 9 41q0 40 -67 40h-11v51h225v-51q-31 -1 -50 -18.5t-41 -63.5l-175 -377q-40 -88 -87.5 -128.5t-110.5 -40.5q-56 0 -90 25.5t-34 66.5q0 37 25 62t62 25q33 0 54 -19t21 -49q0 -21 -8 -34q-1 -1 -1 -3q0 -6 9 -6q45 0 85 79l23 43l-205 398 q-12 25 -23 32t-38 8v51h284v-51h-18q-35 0 -35 -21q0 -11 8 -27z" />
<glyph unicode="z" horiz-adv-x="537" d="M495 473v-48l-270 -375h62q51 0 70.5 7t39.5 31q30 37 49 102h49l-10 -190h-450v44l272 379h-51q-52 0 -72.5 -5.5t-37.5 -22.5q-19 -20 -44 -102h-51l12 180h432z" />
<glyph unicode="{" horiz-adv-x="389" d="M84 285v44q32 8 46 17.5t22 28.5t8 87v110q0 94 36 123q30 27 95 27h52v-46q-33 -3 -46.5 -18.5t-13.5 -51.5v-56v-118q0 -58 -21.5 -84t-80.5 -41q59 -15 80.5 -41t21.5 -84v-118q0 -65 1 -77.5t8 -23.5q13 -21 51 -25v-46h-52q-65 0 -95 27q-36 29 -36 123v110 q0 50 -2 65.5t-10 29.5q-9 15 -22 22.5t-42 15.5z" />
<glyph unicode="|" horiz-adv-x="606" d="M362 722v-722h-119v722h119z" />
<glyph unicode="}" horiz-adv-x="389" d="M290 329v-44q-31 -8 -45 -17.5t-21 -28.5q-8 -21 -8 -87v-110q0 -94 -36 -123q-30 -27 -95 -27h-54v46q39 4 52 25q7 11 8.5 23.5t1.5 77.5v118q0 58 21.5 84t80.5 41q-59 15 -80.5 41t-21.5 84v118v56q0 35 -14 51t-48 19v46h54q65 0 95 -27q36 -29 36 -123v-110 q0 -49 2 -65t10 -30q8 -15 21 -23t41 -15z" />
<glyph unicode="~" horiz-adv-x="606" d="M135 169l-84 53q60 113 144 113q29 0 90 -23l53 -19q48 -19 66 -19q17 0 31.5 11t35.5 41l84 -53q-62 -113 -144 -113q-32 0 -90 23l-53 19q-48 19 -66 19q-17 0 -31.5 -11t-35.5 -41z" />
<glyph unicode="&#xa3;" horiz-adv-x="574" d="M433 612q0 39 -92 39q-45 0 -75.5 -40t-29.5 -103q1 -39 16 -136h207v-65h-200q5 -76 -12 -134.5t-67 -101.5q77 15 179 14q101 -1 153 115l49 -15q-19 -99 -65.5 -149.5t-117.5 -50.5q-12 0 -76 7t-116.5 8.5t-136.5 -8.5l-8 74q91 67 68 241h-75v65h63q-12 72 -12 134 q0 89 64 143.5t168 54.5q107 0 166.5 -39.5t59.5 -116.5q0 -43 -27 -71t-68 -28q-34 0 -56.5 22t-22.5 55q0 41 40 62q24 13 24 24z" />
<glyph unicode="&#x591;" d="M-35 -136v76h70v-76q40 -11 66 -45t26 -77h-71q0 24 -16.5 40.5t-39.5 16.5t-39.5 -16.5t-16.5 -40.5h-71q0 43 26 77t66 45z" />
<glyph unicode="&#x592;" d="M-3 772q-18 0 -31 13t-13 31t13 31t31 13t31 -13t13 -31t-13 -31t-31 -13zM-56 660q-18 0 -31 13t-13 31t13 31t31 13t31 -13t13 -31t-13 -31t-31 -13zM56 660q-18 0 -31 13t-13 31t13 31t31 13t31 -13t13 -31t-13 -31t-31 -13z" />
<glyph unicode="&#x593;" d="M7 915l85 -47l-71 -40l71 -41l-71 -40l71 -40l-85 -47l-53 30l25 17l-71 40l71 40l-71 41l71 40l-25 17z" />
<glyph unicode="&#x594;" d="M0 748q18 0 31 -13t13 -31t-13 -31t-31 -13t-31 13t-13 31t13 31t31 13zM0 860q18 0 31 -13t13 -31t-13 -31t-31 -13t-31 13t-13 31t13 31t31 13z" />
<glyph unicode="&#x595;" d="M-105 864h70v-204h-70v204zM61 748q18 0 31 -13t13 -31t-13 -31t-31 -13t-31 13t-13 31t13 31t31 13zM61 860q18 0 31 -13t13 -31t-13 -31t-31 -13t-31 13t-13 31t13 31t31 13z" />
<glyph unicode="&#x596;" d="M28 -272q-99 77 -99 202q0 5 1 10h70q4 -101 71 -176z" />
<glyph unicode="&#x597;" d="M-94 754l94 94l94 -94l-94 -94z" />
<glyph unicode="&#x598;" d="M-87 660h-65q-16 24 -16 53q0 41 29.5 70.5t70.5 29.5q34 0 60.5 -20t35.5 -51q4 -13 15 -21t25 -8q17 0 29 12t12 29q0 22 -20 51h65q14 -23 14 -51q0 -41 -29.5 -70.5t-70.5 -29.5q-34 0 -60 20t-36 51q-4 13 -15 21t-25 8q-17 0 -29 -12t-12 -29q0 -6 1.5 -12 t4.5 -12.5t4.5 -10t6 -10t5.5 -8.5z" />
<glyph unicode="&#x599;" d="M-28 872q99 -77 99 -202q0 -5 -1 -10h-70q-4 101 -71 176z" />
<glyph unicode="&#x59a;" d="M60 -60l67 -35l-120 -64l120 -63l-67 -36l-187 99z" />
<glyph unicode="&#x59b;" d="M-57.5 -60q18.5 0 31 -13t12.5 -31t-12.5 -31t-31 -13t-31.5 13t-13 31t13 31t31.5 13zM3 -272l-42 36q66 75 70 176h71v-10q0 -125 -99 -202z" />
<glyph unicode="&#x59c;" d="M28 872l43 -36q-67 -75 -71 -176h-70q-1 5 -1 10q0 125 99 202z" />
<glyph unicode="&#x59d;" d="M28 872l43 -36q-67 -75 -71 -176h-70q-1 5 -1 10q0 125 99 202z" />
<glyph unicode="&#x59e;" d="M96 872l43 -36q-67 -75 -71 -176h-70q-1 5 -1 10q0 125 99 202zM-40 872l43 -36q-67 -75 -71 -176h-70q-1 5 -1 10q0 125 99 202z" />
<glyph unicode="&#x59f;" d="M134.5 801q-11.5 0 -20 -8t-8.5 -20t8.5 -20t20 -8t20 8t8.5 20t-8.5 20t-20 8zM100 703l-43 -43l-36 35l44 44q-8 16 -8 34q0 32 22.5 55t55 23t55 -23t22.5 -55t-22.5 -55t-55.5 -23q-18 0 -34 8zM-134.5 801q-11.5 0 -20 -8t-8.5 -20t8.5 -20t20 -8t20 8t8.5 20 t-8.5 20t-20 8zM-100 703q-16 -8 -34 -8q-33 0 -55.5 23t-22.5 55t22.5 55t55 23t55 -23t22.5 -55q0 -18 -8 -34l44 -44l-36 -35z" />
<glyph unicode="&#x5a0;" d="M17.5 801q-11.5 0 -20 -8t-8.5 -20t8.5 -20t20 -8t20 8t8.5 20t-8.5 20t-20 8zM-17 703l-43 -43l-35 35l43 44q-8 16 -8 34q0 32 23 55t55 23t54.5 -23t22.5 -55t-22.5 -55t-54.5 -23q-19 0 -35 8z" />
<glyph unicode="&#x5a1;" d="M-23 709v-49h-70v167h70v-59q5 -1 10 -1q19 0 33 19.5t14 40.5h59q0 -45 -31.5 -81.5t-74.5 -36.5h-10z" />
<glyph unicode="&#x5a2;" d="M-35 -182q-40 12 -66 45.5t-26 76.5h71q0 -23 16.5 -39.5t39.5 -16.5t39.5 16.5t16.5 39.5h71q0 -43 -26 -76.5t-66 -45.5v-76h-70v76z" />
<glyph unicode="&#x5a3;" d="M-117 -260v70h164v130h70v-200h-234z" />
<glyph unicode="&#x5a4;" d="M60 -60l67 -35l-120 -64l120 -63l-67 -36l-187 99z" />
<glyph unicode="&#x5a5;" d="M-28 -272l-43 36q67 75 71 176h70q1 -5 1 -10q0 -125 -99 -202z" />
<glyph unicode="&#x5a6;" d="M-96 -272l-43 36q67 75 71 176h70q1 -5 1 -10q0 -125 -99 -202zM40 -272l-43 36q67 75 71 176h70q1 -5 1 -10q0 -125 -99 -202z" />
<glyph unicode="&#x5a7;" d="M78 -60l35 -71h-92l71 -70l-28 -57h-142l-35 71h92l-71 71l28 56h142z" />
<glyph unicode="&#x5a8;" d="M-28 872q99 -77 99 -202q0 -5 -1 -10h-70q-4 101 -71 176z" />
<glyph unicode="&#x5a9;" d="M-17.5 801q-11.5 0 -20 -8t-8.5 -20t8.5 -20t20 -8t20 8t8.5 20t-8.5 20t-20 8zM17 703q-16 -8 -35 -8q-32 0 -54.5 23t-22.5 55t22.5 55t54.5 23t55 -23t23 -55q0 -18 -8 -34l43 -44l-35 -35z" />
<glyph unicode="&#x5aa;" d="M127 -60h-71q0 -23 -16.5 -39.5t-39.5 -16.5t-39.5 16.5t-16.5 39.5h-71q0 -52 36.5 -89.5t90.5 -37.5q53 0 90 38t37 89z" />
<glyph unicode="&#x5ab;" d="M60 858l67 -36l-120 -63l120 -64l-67 -35l-187 99z" />
<glyph unicode="&#x5ac;" d="M-117 660v70h164v130h70v-200h-234z" />
<glyph unicode="&#x5ad;" d="M28 -272q-99 77 -99 202q0 5 1 10h70q4 -101 71 -176z" />
<glyph unicode="&#x5ae;" d="M-87 660h-65q-16 24 -16 53q0 41 29.5 70.5t70.5 29.5q34 0 60.5 -20t35.5 -51q4 -13 15 -21t25 -8q17 0 29 12t12 29q0 22 -20 51h65q14 -23 14 -51q0 -41 -29.5 -70.5t-70.5 -29.5q-34 0 -60 20t-36 51q-4 13 -15 21t-25 8q-17 0 -29 -12t-12 -29q0 -6 1.5 -12 t4.5 -12.5t4.5 -10t6 -10t5.5 -8.5z" />
<glyph unicode="&#x5af;" d="M0 794q-15 0 -25 -10.5t-10 -25t10 -24.5t25 -10t25 10t10 24.5t-10 25t-25 10.5zM0 858q41 0 70 -29t29 -70t-29 -70t-70 -29t-70 29t-29 70t29 70t70 29z" />
<glyph unicode="&#x5b0;" d="M0 -172q18 0 31 -13t13 -31t-13 -31t-31 -13t-31 13t-13 31t13 31t31 13zM0 -60q18 0 31 -13t13 -31t-13 -31t-31 -13t-31 13t-13 31t13 31t31 13z" />
<glyph unicode="&#x5b1;" d="M-66 -172q18 0 31 -13t13 -31t-13 -31t-31 -13t-31 13t-13 31t13 31t31 13zM-124 -60q18 0 31 -13t13 -31t-13 -31t-31 -13t-31 13t-13 31t13 31t31 13zM-2 -60q18 0 31 -13t13 -31t-13 -31t-31 -13t-31 13t-13 31t13 31t31 13zM124 -172q18 0 31 -13t13 -31t-13 -31 t-31 -13t-31 13t-13 31t13 31t31 13zM124 -60q18 0 31 -13t13 -31t-13 -31t-31 -13t-31 13t-13 31t13 31t31 13z" />
<glyph unicode="&#x5b2;" d="M-164 -69h200v-71h-200v71zM120 -172q18 0 31 -13t13 -31t-13 -31t-31 -13t-31 13t-13 31t13 31t31 13zM120 -60q18 0 31 -13t13 -31t-13 -31t-31 -13t-31 13t-13 31t13 31t31 13z" />
<glyph unicode="&#x5b3;" d="M-164 -140v71h200v-71h-65v-111h-70v111h-65zM120 -172q18 0 31 -13t13 -31t-13 -31t-31 -13t-31 13t-13 31t13 31t31 13zM120 -60q18 0 31 -13t13 -31t-13 -31t-31 -13t-31 13t-13 31t13 31t31 13z" />
<glyph unicode="&#x5b4;" d="M0 -60q18 0 31 -13t13 -31t-13 -31t-31 -13t-31 13t-13 31t13 31t31 13z" />
<glyph unicode="&#x5b5;" d="M-63.5 -60q18.5 0 31.5 -13t13 -31t-13 -31t-31.5 -13t-31.5 13t-13 31t13 31t31.5 13zM63.5 -60q18.5 0 31 -13t13 -31t-12.5 -31t-31.5 -13t-31.5 13t-13 31t13 31t31.5 13z" />
<glyph unicode="&#x5b6;" d="M-3 -172q18 0 31 -13t13 -31t-13 -31t-31 -13t-31 13t-13 31t13 31t31 13zM-63.5 -60q18.5 0 31.5 -13t13 -31t-13 -31t-31.5 -13t-31.5 13t-13 31t13 31t31.5 13zM63.5 -60q18.5 0 31.5 -13t13 -31t-13 -31t-31.5 -13t-31.5 13t-13 31t13 31t31.5 13z" />
<glyph unicode="&#x5b7;" d="M-100 -69h200v-71h-200v71z" />
<glyph unicode="&#x5b8;" d="M-100 -140v71h200v-71h-65v-94h-70v94h-65z" />
<glyph unicode="&#x5b9;" d="M0 742q18 0 31 -13t13 -31t-13 -31t-31 -13t-31 13t-13 31t13 31t31 13z" />
<glyph unicode="&#x5ba;" d="M0 742q18 0 31 -13t13 -31t-13 -31t-31 -13t-31 13t-13 31t13 31t31 13z" />
<glyph unicode="&#x5bb;" d="M0 -113q18 0 31 -13t13 -31t-13 -31t-31 -13t-31 13t-13 31t13 31t31 13zM112 -172q18 0 31 -13t13 -31t-13 -31t-31 -13t-31 13t-13 31t13 31t31 13zM-111.5 -60q18.5 0 31 -13t12.5 -31t-12.5 -31t-31 -13t-31.5 13t-13 31t13 31t31.5 13z" />
<glyph unicode="&#x5bc;" d="M0 346q18 0 31 -13t13 -31t-13 -31t-31 -13t-31 13t-13 31t13 31t31 13z" />
<glyph unicode="&#x5bd;" d="M-35 -60h70v-180h-70v180z" />
<glyph unicode="&#x5be;" horiz-adv-x="424" d="M368 450v100q0 25 -12.5 37.5t-34.5 12.5h-218q-22 0 -34.5 -12.5t-12.5 -37.5v-100q0 -25 12.5 -37.5t34.5 -12.5h218q22 0 34.5 12.5t12.5 37.5z" />
<glyph unicode="&#x5bf;" d="M-100 744h200v-70h-200v70z" />
<glyph unicode="&#x5c0;" horiz-adv-x="201" d="M40 626l122 42v-720l-122 -42v720z" />
<glyph unicode="&#x5c1;" d="M696 718q18 0 31 -13t13 -31t-13 -31t-31 -13t-31 13t-13 31t13 31t31 13z" />
<glyph unicode="&#x5c2;" d="M168 718q18 0 31 -13t13 -31t-13 -31t-31 -13t-31 13t-13 31t13 31t31 13z" />
<glyph unicode="&#x5c3;" horiz-adv-x="332" d="M89 466l79 96q10 12 16 12t16 -12l79 -96q15 -19 0 -38l-79 -96q-10 -12 -16 -12t-16 12l-79 96q-9 12 -9 19t9 19zM89 128l79 97q10 12 16 12t16 -12l79 -97q15 -18 0 -36l-79 -97q-10 -12 -16 -12t-16 12l-79 97q-9 11 -9 18t9 18z" />
<glyph unicode="&#x5c4;" d="M0 840q37 0 63.5 -26.5t26.5 -63.5t-26.5 -63.5t-63.5 -26.5t-63.5 26.5t-26.5 63.5t26.5 63.5t63.5 26.5z" />
<glyph unicode="&#x5c5;" d="M0 -60q37 0 63.5 -26.5t26.5 -63.5t-26.5 -63.5t-63.5 -26.5t-63.5 26.5t-26.5 63.5t26.5 63.5t63.5 26.5z" />
<glyph unicode="&#x5c6;" horiz-adv-x="377" d="M132 208q-13 40 -16 83q-5 62 8 109h104q18 0 31.5 -7.5t22 -13.5t16.5 -3q17 6 22 55.5t0 79.5q-4 41 -21.5 65t-62.5 24h-112q-7 0 -13 5.5t-7 13.5q-1 5 0 13t0 9q-2 4 -8.5 4.5t-11.5 -2.5q-18 -13 -28 -61q-7 -34 -8 -70q-1 -19 4 -45q6 -31 21 -47q4 -4 3.5 -11 t-10 -48t-10.5 -65q-3 -61 7 -132q5 -35 -2 -65l-19 -74q-4 -12 -1 -18.5t19 -6.5h207q15 0 20.5 4.5t8.5 15.5l39 146q4 11 1 17.5t-19 6.5h-158q-20 0 -27 18z" />
<glyph unicode="&#x5c7;" d="M-100 -140v71h200v-71h-65v-144h-70v144h-65z" />
<glyph unicode="&#x5d0;" horiz-adv-x="620" d="M181 570l221 -230q5 45 18 67q-28 16 -46.5 50t-19.5 78q0 31 10 64t27 44q6 4 12.5 1t9.5 -11q0 -1 1 -7.5t2.5 -10t6.5 -8.5t14 -7l56 -11q36 -7 57 -29t25.5 -54t2.5 -60.5t-9 -60.5q-4 -15 -10.5 -19t-13 -0.5t-19 8.5t-22.5 5q-26 0 -39 -30q-10 -30 -7.5 -51.5 t13.5 -33.5l57 -61q34 -35 40.5 -78.5t-8 -76t-40.5 -48.5q-20 -13 -41 -7q-4 1 -7.5 10t-11 24.5t-19.5 27.5l-243 261q-39 -13 -42 -49q-3 -25 10.5 -43.5t34 -32.5t41.5 -30t36 -44t14 -65q0 -32 -6 -42t-24 -10h-200q-21 0 -27.5 17t4.5 37q5 9 23.5 10.5t20.5 5.5 q8 23 1.5 38t-16.5 50.5t-8 68.5q6 100 91 137l-39 40q-22 22 -36 44q-21 36 -13.5 89t37.5 83q10 9 23.5 12t20.5 -4q4 -4 14 -24t23 -34z" />
<glyph unicode="&#x5d1;" horiz-adv-x="524" d="M489 190q15 0 18.5 -6.5t-1.5 -17.5l-39 -146q-3 -11 -8.5 -15.5t-19.5 -4.5h-384q-16 0 -19 6.5t1 18.5l38 152q2 8 6.5 10.5t15.5 2.5h218q32 0 40 5q14 9 26.5 40t12.5 69q0 58 -26 79q-13 12 -29.5 14.5t-45.5 2.5h-151q-44 0 -64 27t-20 93q0 51 17 88.5t39 37.5 q8 0 10 -3t1 -11t0 -13q1 -8 7 -13.5t12 -5.5h222q28 0 48 -11.5t31.5 -29.5t18 -46.5t8.5 -55.5t2 -65q0 -51 -13.5 -102.5t-34.5 -88.5q-2 -3 -0.5 -7t5.5 -4h58z" />
<glyph unicode="&#x5d2;" horiz-adv-x="384" d="M77 190h37q58 0 85.5 24.5t34.5 71.5q7 58 -4 86t-50 28h-24q-44 0 -64 27t-20 93q0 51 17 88.5t39 37.5q8 0 10 -3t1 -11t0 -13q1 -8 7 -13.5t12 -5.5h67q7 0 15 -1t23 -7t25 -16t16 -31t3 -50q-3 -24 -8 -48t-7.5 -41.5t-2.5 -40.5q1 -31 13.5 -59.5t28 -49t28 -56.5 t12.5 -80q0 -43 -9 -83.5t-23 -40.5q-6 0 -11.5 2.5t-9.5 8t-7 10t-7 14.5t-5.5 15t-5 17t-4.5 16q-24 78 -44 78q-15 0 -44 -83l-20 -54q-4 -12 -9.5 -16t-20.5 -4h-116q-16 0 -19 6.5t1 18.5l39 152q2 8 6.5 10.5t14.5 2.5z" />
<glyph unicode="&#x5d3;" horiz-adv-x="520" d="M115 600h334q21 0 33.5 -12.5t13.5 -37.5l-1 -110q0 -10 -1.5 -16.5t-6 -12t-6.5 -7.5t-10.5 -8t-10.5 -8q-22 -17 -33.5 -45.5t-11.5 -54.5q0 -29 15.5 -75t18.5 -66q10 -64 -21 -111q-11 -17 -33 -28t-37.5 -11t-21.5 7q-2 4 -2 6t0.5 4.5t2.5 11t3.5 21.5t2.5 41t2 64 q0 5 -1 29t-1 43t4 49t14 57q7 20 16 34t14.5 19.5t5.5 8.5q0 5 -4.5 6.5t-16.5 1.5h-263q-44 0 -64 27t-20 93q0 51 17 88.5t39 37.5q8 0 10 -3t1 -11t0 -13q1 -8 7 -13.5t12 -5.5z" />
<glyph unicode="&#x5d4;" horiz-adv-x="557" d="M129 600h344q22 0 34.5 -12.5t12.5 -37.5v-97q0 -23 -5.5 -37t-14.5 -26t-13 -21q-14 -35 -15 -67t5 -52t17 -51t15 -52q13 -64 -17 -111q-11 -17 -32.5 -28t-37 -11t-21.5 7q-2 4 -2.5 5.5t0.5 5t2.5 10.5t2.5 22t1.5 40.5t-1.5 64.5q0 5 -2 29t-2.5 43t3 49t11.5 57 q7 20 16 34t14.5 19.5t5.5 8.5q0 5 -4 6.5t-17 1.5h-302q-44 0 -64 27t-20 93q0 51 17 88.5t39 37.5q8 0 10 -3t1 -11t0 -13q1 -8 7 -13.5t12 -5.5zM159 294q7 0 9.5 -2t0.5 -6q-10 -19 -6 -131v-39.5t-5 -37.5t-15 -33q-16 -22 -44.5 -34t-41.5 -11q-16 1 -10 10 q7 13 8 103q1 8 0.5 32.5t0.5 34t2.5 26.5t5.5 27.5t11 18.5q36 42 84 42z" />
<glyph unicode="&#x5d5;" horiz-adv-x="329" d="M126 600h57q27 0 46.5 -8.5t30 -21.5t17 -32t8 -34.5t1.5 -35.5v-395q0 -23 -6 -41q-5 -15 -24 -27t-28 -11q-12 1 -12 12v311q0 16 -1.5 27t-8 25.5t-22.5 22.5t-40 8h-21q-44 0 -64 27t-20 93q0 51 17.5 88.5t39.5 37.5q8 0 10 -3t1 -11t-1 -13q1 -8 7.5 -13.5 t12.5 -5.5z" />
<glyph unicode="&#x5d6;" horiz-adv-x="342" d="M120 600h57q78 0 110 -44q20 -26 23.5 -68t-3.5 -73t-15 -44q-5 -7 -21 3.5t-30 18.5t-29 -8q-11 -17 -12.5 -49t3 -58t14 -70.5t11.5 -60.5q11 -64 -21 -111q-11 -17 -33 -28t-37.5 -11t-21.5 7q-2 4 -2 6t1 4.5t2.5 11t3 21.5t3 41t1.5 64q0 1 -1 37.5t0.5 64.5t7.5 52 q6 23 12.5 38.5t10.5 21t6.5 11t1.5 12.5q-1 4 -2 6.5t-4.5 3.5t-5 1h-6h-5.5h-21q-44 0 -64 27t-20 93q0 51 17.5 88.5t39.5 37.5q8 0 9.5 -3t0.5 -11t0 -13q1 -8 7 -13.5t12 -5.5z" />
<glyph unicode="&#x5d7;" horiz-adv-x="605" d="M131 400q-44 7 -64 32t-20 88q0 51 17 88.5t40 37.5q7 0 9 -3t1 -11t0 -13q1 -8 7 -13.5t12 -5.5h384q21 0 33.5 -12.5t12.5 -37.5v-97q0 -23 -5.5 -37t-14.5 -26t-12 -21q-14 -35 -15 -67t5 -52t16.5 -51t15.5 -52q12 -64 -18 -111q-10 -17 -31.5 -28t-37 -11t-22.5 7 q-3 6 0 17.5t6.5 39.5t-2.5 91q0 3 -3.5 29t-4.5 43.5t1.5 48t11.5 57.5q6 20 15 34t14.5 19.5t5.5 8.5q0 5 -4 6.5t-17 1.5h-217q-41 0 -60 -31q-16 -26 -20 -67t-0.5 -74.5t12.5 -80.5q12 -62 -21 -111q-12 -17 -33.5 -28t-37 -11t-21.5 7q-3 15 -0.5 15.5t6.5 37.5t3 95 q-2 107 12 162q5 21 17.5 38.5t23 27t10.5 13.5q1 3 -1.5 4.5t-8.5 2.5z" />
<glyph unicode="&#x5d8;" horiz-adv-x="615" d="M94 400q-31 6 -45 31t-14 89q0 51 17 88.5t39 37.5q8 0 10 -3t1 -11t0 -13q1 -8 7 -13.5t12 -5.5h28q50 0 81 -37q18 -23 24.5 -56t1.5 -65t-18 -60q-2 -5 -5.5 -6.5t-9.5 1t-8 3.5t-9 6q-11 7 -19.5 3t-12.5 -17q-19 -64 -7 -113q16 -69 58 -69h256q23 0 33.5 7.5 t13.5 24.5q10 75 -12 121t-68 57q-25 6 -47.5 0.5t-37.5 -19.5t-23.5 -24.5t-14.5 -21.5q-4 -8 -10.5 -14t-13 -9t-12.5 0t-9 13q-3 8 2 39t18.5 72t33.5 79.5t52 64.5t69 24q27 -1 49 -13t35.5 -28.5t23.5 -42t15 -47t7.5 -51.5t3 -47t0.5 -41q0 -173 -65 -314 q-6 -13 -11.5 -16.5t-17.5 -3.5h-346q-23 0 -25 20q-7 59 -15 109.5t-12 70t-4 44t6 56.5q4 22 13 46t10 33q1 17 -28 21z" />
<glyph unicode="&#x5d9;" horiz-adv-x="340" d="M126 600h73q57 0 83.5 -33t26.5 -89q0 -52 -12 -88t-38 -79q-27 -44 -69 -77q-14 -11 -28.5 -12t-21.5 8q-7 8 -4 21.5t14 24.5q46 48 60 77q9 25 2 36t-24 11h-64q-44 0 -64 27t-20 93q0 51 17 88.5t39 37.5q8 0 10 -3t1 -11t0 -13q1 -8 7 -13.5t12 -5.5z" />
<glyph unicode="&#x5da;" horiz-adv-x="535" d="M121 600h299q80 0 80 -104q0 -24 -4.5 -43.5t-19 -36t-38.5 -16.5q0 -9 12 -232.5t12 -325.5q0 -54 -31 -84q-16 -16 -38 -23t-28 5q-2 3 -2 5t0.5 4.5t2.5 11t3.5 22t3 41t1.5 64.5q0 8 5 234t6 278h-266q-44 0 -64 27t-20 93q0 51 17 88.5t39 37.5q8 0 10 -3t1 -11 t0 -13q1 -8 7 -13.5t12 -5.5z" />
<glyph unicode="&#x5db;" horiz-adv-x="494" d="M53 0q-16 0 -19 6.5t1 18.5l39 152q2 8 6 10.5t15 2.5h201q61 0 92.5 27t31.5 76q0 55 -27 81t-92 26h-170q-44 0 -64 27t-20 93q0 51 17.5 88.5t39.5 37.5q8 0 10 -3t1 -11t-1 -13q1 -8 7.5 -13.5t12.5 -5.5h172q36 0 64.5 -13t46.5 -37.5t30.5 -52.5t19 -64.5 t9.5 -66.5t4 -65q1 -38 -3.5 -76.5t-17 -79.5t-32 -72.5t-52.5 -52t-74 -20.5h-248z" />
<glyph unicode="&#x5dc;" horiz-adv-x="519" d="M295 101q1 -5 3.5 -18t3.5 -23t0 -22t-8.5 -22t-21.5 -16q-26 -12 -52 3t-28 48q-1 39 13.5 67t46.5 58q27 24 58.5 47t50.5 41t38 50q15 26 2.5 56t-39.5 30h-303q-8 0 -10.5 4t-3.5 13q-8 109 0 203q2 19 5.5 45.5t5.5 40.5t1 28t-6 22q-7 11 -23 16.5t-26 15t-8 32.5 q2 28 11 52t18 36t13 12q8 0 15 -10.5t18 -14.5q5 -2 16.5 -5t18.5 -5.5t16 -8t14.5 -15t8.5 -22.5q5 -21 -3.5 -43t-21.5 -49.5t-17 -54.5q-1 -24 -1.5 -44.5t17.5 -34t56 -13.5h280q13 0 21 -5t11 -21q19 -94 11 -176q-2 -22 -4.5 -38t-10 -41t-22 -45.5t-36.5 -35.5 q-9 -6 -34.5 -22.5t-37.5 -25.5t-28.5 -24t-22.5 -31t-5 -34z" />
<glyph unicode="&#x5dd;" horiz-adv-x="553" d="M152 190h271q16 0 24.5 6t8.5 25v82q0 44 -17.5 70.5t-51.5 26.5h-199q-34 0 -51.5 -26.5t-17.5 -70.5v-82q0 -19 8.5 -25t24.5 -6zM114 413q-55 15 -55 107q0 51 17.5 88.5t39.5 37.5q8 0 9.5 -3t0.5 -11t0 -13q1 -8 7 -13.5t13 -5.5h209q24 0 41.5 -1t33.5 -5t26 -8 t19.5 -15t15 -20t10 -30t6.5 -38t3.5 -50t1.5 -60.5v-74.5v-259q0 -39 -39 -39h-379q-37 0 -37 35v253q0 89 57 125z" />
<glyph unicode="&#x5de;" horiz-adv-x="574" d="M149 396q-55 8 -78.5 37.5t-23.5 86.5q0 51 17.5 88.5t39.5 37.5q8 0 9.5 -3t0.5 -11t0 -13q1 -7 7 -12t13 -6q74 -9 100 -65q17 -35 10 -106q11 6 20.5 13t17.5 16.5t14.5 17t13 20.5t10.5 19.5t9.5 21.5t7.5 20.5t7.5 22l6.5 19.5q4 13 8.5 15.5t16.5 0.5 q176 -37 176 -307q0 -157 -43 -294q-5 -15 -22 -15h-239q-16 0 -19 6.5t1 18.5l41 152q2 8 6.5 10.5t14.5 2.5h149q27 0 41 16q15 16 19.5 45.5t-7.5 63.5q-14 37 -50.5 61t-96.5 24q-94 0 -150.5 -86t-48.5 -248q2 -38 -10.5 -49.5t-59.5 -23.5q-20 -5 -20 15q0 100 21 192 q22 93 90 166q9 8 4 18t-24 12z" />
<glyph unicode="&#x5df;" horiz-adv-x="350" d="M121 600h110q26 0 45 -11.5t28.5 -30t14 -37t4.5 -37.5q0 -47 -11.5 -82.5t-39.5 -77.5q-34 -50 -34 -91q0 -25 10.5 -189.5t8.5 -201.5q-2 -32 -8.5 -51.5t-22.5 -32.5q-19 -17 -40 -23t-29 5q-4 15 -2 18.5t7 41t6 88.5q0 13 3 86.5t7 162t5 123.5q1 24 17.5 56.5 t16.5 53.5q0 13 -9.5 21.5t-22.5 8.5h-66q-44 0 -64 27t-20 93q0 51 17.5 88.5t39.5 37.5q7 0 9 -3t1 -11t0 -13q1 -8 7 -13.5t12 -5.5z" />
<glyph unicode="&#x5e0;" horiz-adv-x="367" d="M160 600h77q81 0 83 -92q1 -15 -8 -67q-14 -87 -14 -128q0 -39 16 -101.5t17 -86.5q5 -58 -11 -104q-2 -8 -4.5 -11.5t-9 -6.5t-19.5 -3h-254q-15 0 -18.5 6.5t1.5 18.5l38 152q2 8 6.5 10.5t14.5 2.5h130q30 0 37 22q3 16 3 25.5t-1.5 33t-2.5 36.5q0 25 4 46t2 29 q-4 18 -41 18h-48q-44 0 -64 27t-20 93q0 51 17.5 88.5t39.5 37.5q8 0 9.5 -3t0.5 -11t0 -13q1 -8 7 -13.5t12 -5.5z" />
<glyph unicode="&#x5e1;" horiz-adv-x="524" d="M450 297q0 57 -30 80t-90 23h-181q-30 -41 -30 -95q0 -69 41.5 -95.5t119.5 -26.5q40 0 68.5 4.5t52.5 16t36.5 34.5t12.5 59zM98 409q-22 20 -31 44.5t-9 66.5q0 51 17 88.5t39 37.5q8 0 10 -3t1 -11t0 -13q1 -8 7 -13.5t12 -5.5h181q30 0 55.5 -7t43.5 -19t32 -29 t22.5 -36.5t15 -41.5t9 -44.5t4.5 -44.5t1 -42t0 -38q0 -53 -7 -97t-23.5 -83.5t-43 -66t-68 -42.5t-96.5 -16q-216 0 -216 253q0 59 14.5 102t29.5 61z" />
<glyph unicode="&#x5e2;" horiz-adv-x="570" d="M418 400q-84 18 -84 120q0 51 17.5 88.5t39.5 37.5q8 0 9.5 -3t0.5 -11t0 -13q3 -19 20 -19h24q40 0 71 -23.5t33 -73.5q1 -26 -10 -51t-33 -55t-26 -38q-11 -20 -19.5 -43t-12 -35.5t-10 -47.5t-9.5 -45q-1 -6 -5.5 -29t-7 -34.5t-8 -30.5t-11.5 -33.5t-14 -25.5 q-26 -39 -56 -61.5t-73 -42.5l-188 -88q-13 -6 -17.5 -3t-3.5 18l12 170q1 13 6 18.5t15 9.5l141 54q13 5 24.5 14.5t11.5 17.5q1 10 -10 18.5t-31.5 20t-31.5 22.5q-34 31 -40 83q-2 21 2 54t3 38q-1 11 -4.5 13t-21.5 7q-41 9 -59.5 37t-18.5 85q0 51 17 88.5t39 37.5 q8 0 10 -3t1 -11t0 -13q3 -18 19 -19l32 -1q16 -1 44 -11t41 -30q14 -22 19 -52.5t3 -56t-8 -45.5q-5 -16 -17.5 -15t-23.5 6.5t-21 -7.5q-9 -12 4 -31q12 -15 29.5 -27t33 -26t27.5 -40q21 -51 5 -117q26 17 36.5 36t19.5 50.5t21 55.5q9 16 20.5 35t19 30t12.5 22t3 16.5 t-11 7.5z" />
<glyph unicode="&#x5e3;" horiz-adv-x="547" d="M240 400q-26 0 -46 -10.5t-27.5 -24.5t-0.5 -23q3 -5 8 -6.5t11.5 -1t16.5 -0.5q71 -8 78 -82q3 -30 -3 -56.5t-26 -26.5q-12 0 -19 3.5t-9 7t-6 12.5q-11 20 -47 20q-37 0 -47 -18q-5 -9 -8 -13t-9.5 -7.5t-16.5 -3.5q-19 0 -26.5 7.5t-7.5 23.5q0 60 11 101 q9 35 26.5 57t45.5 41q-53 0 -74 26.5t-21 93.5q0 51 17.5 88.5t39.5 37.5q7 0 9 -3t1 -11t0 -13q1 -8 7 -13.5t12 -5.5h239q53 0 78 -12t37 -51q13 -44 19 -201q17 -445 17 -488q0 -60 -31 -90q-16 -16 -38 -23t-28 5q-3 15 -2 15.5t5.5 38.5t5.5 94q9 302 13 412 q2 53 -20.5 76.5t-69.5 23.5h-114z" />
<glyph unicode="&#x5e4;" horiz-adv-x="563" d="M57 0q-15 0 -18.5 6.5t1.5 18.5l40 152q2 8 6 10.5t15 2.5h257q31 0 53 8.5t33.5 20t18.5 28t8.5 28.5t1.5 25q0 100 -110 100h-98q-26 0 -45.5 -8t-26.5 -17.5t-2 -16.5q2 -3 5.5 -4.5t6 -1.5h8.5h9q33 0 51.5 -14.5t25.5 -48.5q4 -21 -2.5 -39.5t-27.5 -18.5 q-11 0 -18 3t-9 5.5t-7 9.5q-10 17 -47 17q-36 0 -46 -15q-5 -7 -8 -10.5t-10 -6.5t-17 -3q-19 0 -26.5 6.5t-6.5 19.5q1 35 15 69q19 49 69 74q-58 0 -81 25t-23 95q0 51 17 88.5t40 37.5q7 0 9 -3t1 -11t0 -13q1 -8 7 -13.5t12 -5.5h239q29 0 45 -1.5t33.5 -7.5t28.5 -19 t17 -35q31 -108 31 -233q0 -140 -48 -284q-3 -8 -4.5 -11t-7 -6t-15.5 -3h-400z" />
<glyph unicode="&#x5e5;" horiz-adv-x="617" d="M403 400q-30 15 -44.5 42t-14.5 78t17 88.5t39 37.5q8 0 10 -3t1 -11t-1 -13q2 -8 8 -13.5t12 -5.5l58 -4q29 -2 49.5 -14.5t30 -30t13.5 -30.5t5 -25q4 -59 -17 -100q-3 -8 -8.5 -10.5t-10.5 -1.5t-14 4t-16 4q-47 6 -66 -14q-91 -97 -132.5 -166.5t-43.5 -152.5 q-1 -44 18 -115t18 -102q-2 -57 -31 -84q-15 -14 -35.5 -20t-36 -4t-18.5 10q-3 14 -1 17.5t6 39.5t4 87q0 7 -9 88t-15.5 181.5t-2.5 164.5q0 10 3 25t3 22.5t-2.5 16t-13.5 11.5t-30 3q-95 0 -95 120q0 51 17.5 88.5t39.5 37.5q8 0 9.5 -3t0.5 -11t0 -13q1 -8 7 -13.5 t13 -5.5h64q45 0 70 -28.5t25 -79.5q-1 -33 -9 -54.5t-27 -52.5q-17 -27 -17 -49q-2 -85 11 -152q12 33 29 62t43.5 60.5t39.5 45t47 48.5z" />
<glyph unicode="&#x5e6;" horiz-adv-x="583" d="M117 190h257q-70 31 -108 77q-39 48 -44 108q-1 17 -8.5 21t-24.5 4h-34q-24 0 -41 4t-33.5 16t-25 37t-8.5 63q0 50 20 88t43 38q7 0 9 -3t1 -11t0 -13q1 -8 7 -13.5t12 -5.5h45q52 0 71 -25.5t19 -81.5q0 -14 -3.5 -40.5t-2.5 -46.5t11 -40q3 -7 7.5 -13t11 -11.5 t9.5 -8t12 -8.5t10 -7q35 51 55 82q-36 15 -47.5 40.5t-11.5 79.5q0 51 17.5 88.5t39.5 37.5q8 0 9.5 -3t0.5 -11t0 -13q1 -8 7 -13.5t13 -5.5h31q66 0 91 -58q14 -34 12.5 -74t-17.5 -72q-4 -8 -9.5 -8.5t-12 2.5t-17 6.5t-20.5 3.5q-23 0 -35 -17l-63 -92q15 -10 47.5 -25 t62 -33t50.5 -44q10 -12 4 -36l-35 -133q-3 -11 -8.5 -15.5t-19.5 -4.5h-398q-15 0 -18.5 6.5t1.5 18.5l38 152q2 8 6 10.5t15 2.5z" />
<glyph unicode="&#x5e7;" horiz-adv-x="544" d="M129 600h278q32 0 54.5 -12.5t34.5 -30t18.5 -45.5t8 -48.5t1.5 -50.5q0 -77 -25 -124.5t-80 -82.5q-15 -9 -59.5 -33.5t-62.5 -39.5t-17 -30q1 -5 3.5 -18t3.5 -23.5t0 -22.5t-8.5 -21.5t-21.5 -15.5q-32 -13 -54.5 1.5t-25.5 49.5q-3 39 22.5 78t68.5 71q13 9 60.5 34 t76 49t31.5 52q2 18 -2.5 30.5t-11.5 19t-20.5 9.5t-22.5 3.5t-26 0.5h-6h-221q-44 0 -64 27t-20 93q0 51 17.5 88.5t39.5 37.5q8 0 10 -3t1 -11t-1 -13q2 -8 8 -13.5t12 -5.5zM133 164q-1 -57 2 -169t1 -141q-1 -9 0 -34t-1.5 -39t-10.5 -22q-16 -13 -40.5 -21t-30.5 1 q-2 4 -2 5.5t1 3.5t2.5 9.5t3 18.5t3 34.5t1.5 55.5q0 57 -2.5 169t-0.5 141q0 9 0.5 26t0.5 27.5t3 22.5t8 18q8 10 23.5 17t26.5 6.5t15 -3.5q1 -3 1.5 -3.5t1 -2.5t0 -3t-1 -5t-1 -8.5t-1 -14t-1 -21t-1 -29.5t-0.5 -39z" />
<glyph unicode="&#x5e8;" horiz-adv-x="515" d="M121 600h245q38 0 64 -13.5t37.5 -38.5t16 -49.5t4.5 -56.5v-369q0 -23 -6 -41q-5 -15 -24 -27t-28 -11q-12 1 -12 12v296q0 20 -3 35t-12 30.5t-28 24t-48 8.5h-209q-44 0 -64 27t-20 93q0 51 17.5 88.5t39.5 37.5q8 0 10 -3t1 -11t-1 -13q1 -8 7.5 -13.5t12.5 -5.5z " />
<glyph unicode="&#x5e9;" horiz-adv-x="794" d="M623 400q-36 5 -53.5 30.5t-17.5 89.5q0 51 17.5 88.5t39.5 37.5q8 0 10 -3t1 -11t-1 -13q3 -17 19 -20l47 -11q78 -16 78 -122q0 -44 -12 -76q-13 -34 -55 -90t-51 -71q-53 -85 -96 -209q-3 -11 -8.5 -15.5t-20.5 -4.5h-324q-13 0 -17.5 4t-7.5 16q-44 171 -55 218 q-16 69 -9 140q2 20 -13 25q-26 8 -40.5 32t-14.5 85q0 51 17.5 88.5t39.5 37.5q8 0 10 -3t1 -11t-1 -13q3 -19 20 -19l44 -4q37 -2 59 -25t24 -58q4 -59 -13 -109q-3 -10 -7.5 -14.5t-8 -4.5t-11 1.5t-10.5 2.5q-26 3 -33.5 -14t-1.5 -78q6 -52 25 -79.5t47 -27.5h64 q9 19 18 83q8 54 42 98q6 8 4 18t-14 14q-33 11 -45 35t-12 82q0 51 17.5 88.5t39.5 37.5q8 0 9.5 -3t0.5 -11t0 -13q3 -17 20 -19l42 -4q34 -3 58.5 -25t29.5 -59q8 -57 -9 -107q-4 -13 -11 -16t-18 1q-32 9 -54 -21q-3 -5 -6 -11.5t-5 -14.5t-3 -14l-2.5 -15t-1.5 -12 q-11 -66 -48 -112h125q21 0 33 8t27 26q39 50 100 109q26 26 17 47q-7 16 -35 20z" />
<glyph unicode="&#x5ea;" horiz-adv-x="595" d="M27 0q-15 0 -18.5 6.5t1.5 18.5l38 152q2 8 6.5 10.5t14.5 2.5h43q16 0 23 7.5t5.5 17.5t-2.5 21q-8 49 0 89q4 23 15 43.5t23 31.5q-44 0 -64 27t-20 93q0 51 17.5 88.5t39.5 37.5q8 0 10 -3t1 -11t-1 -13q1 -8 7.5 -13.5t12.5 -5.5h263q38 0 64 -13.5t37.5 -38.5 t16 -49.5t4.5 -56.5v-369q0 -23 -6 -41q-5 -15 -24 -27t-28 -11q-12 1 -12 12v296q0 20 -3 35t-12 30.5t-28 24t-48 8.5h-161q-41 -47 -41 -106q0 -36 15 -84q14 -47 14 -104q0 -49 -22 -91q-6 -10 -10.5 -12.5t-17.5 -2.5h-153z" />
<glyph unicode="&#x5f0;" horiz-adv-x="658" d="M455 600h57q27 0 46.5 -8.5t30 -21.5t17 -32t8 -34.5t1.5 -35.5v-395q0 -23 -6 -41q-5 -15 -24 -27t-28 -11q-12 1 -12 12v311q0 16 -1.5 27t-8 25.5t-22.5 22.5t-40 8h-21q-44 0 -64 27t-20 93q0 51 17.5 88.5t39.5 37.5q8 0 10 -3t1 -11t-1 -13q1 -8 7.5 -13.5 t12.5 -5.5zM126 600h57q27 0 46.5 -8.5t30 -21.5t17 -32t8 -34.5t1.5 -35.5v-395q0 -23 -6 -41q-5 -15 -24 -27t-28 -11q-12 1 -12 12v311q0 16 -1.5 27t-8 25.5t-22.5 22.5t-40 8h-21q-44 0 -64 27t-20 93q0 51 17.5 88.5t39.5 37.5q8 0 10 -3t1 -11t-1 -13q1 -8 7.5 -13.5 t12.5 -5.5z" />
<glyph unicode="&#x5f1;" horiz-adv-x="669" d="M466 600h57q27 0 46.5 -8.5t30 -21.5t17 -32t8 -34.5t1.5 -35.5v-395q0 -23 -6 -41q-5 -15 -24 -27t-28 -11q-12 1 -12 12v311q0 16 -1.5 27t-8 25.5t-22.5 22.5t-40 8h-21q-44 0 -64 27t-20 93q0 51 17.5 88.5t39.5 37.5q8 0 10 -3t1 -11t-1 -13q1 -8 7.5 -13.5 t12.5 -5.5zM126 600h73q57 0 83.5 -33t26.5 -89q0 -52 -12 -88t-38 -79q-27 -44 -69 -77q-14 -11 -28.5 -12t-21.5 8q-7 8 -4 21.5t14 24.5q46 48 60 77q9 25 2 36t-24 11h-64q-44 0 -64 27t-20 93q0 51 17 88.5t39 37.5q8 0 10 -3t1 -11t0 -13q1 -8 7 -13.5t12 -5.5z" />
<glyph unicode="&#x5f2;" horiz-adv-x="680" d="M466 600h73q57 0 83.5 -33t26.5 -89q0 -52 -12 -88t-38 -79q-27 -44 -69 -77q-14 -11 -28.5 -12t-21.5 8q-7 8 -4 21.5t14 24.5q46 48 60 77q9 25 2 36t-24 11h-64q-44 0 -64 27t-20 93q0 51 17 88.5t39 37.5q8 0 10 -3t1 -11t0 -13q1 -8 7 -13.5t12 -5.5zM126 600h73 q57 0 83.5 -33t26.5 -89q0 -52 -12 -88t-38 -79q-27 -44 -69 -77q-14 -11 -28.5 -12t-21.5 8q-7 8 -4 21.5t14 24.5q46 48 60 77q9 25 2 36t-24 11h-64q-44 0 -64 27t-20 93q0 51 17 88.5t39 37.5q8 0 10 -3t1 -11t0 -13q1 -8 7 -13.5t12 -5.5z" />
<glyph unicode="&#x5f3;" horiz-adv-x="252" d="M50 378l17 246q1 8 5 21q9 28 35 43.5t63 15.5q39 0 55 -15t7 -44q-5 -14 -8 -21l-141 -246h-33z" />
<glyph unicode="&#x5f4;" horiz-adv-x="479" d="M50 378l17 246q1 8 5 21q9 28 35 43.5t63 15.5q39 0 55 -15t7 -44q-5 -14 -8 -21l-141 -246h-33zM277 378l18 246q1 8 5 21q9 28 35.5 43.5t64 15.5t54 -15.5t7.5 -42.5q-2 -6 -10 -22l-141 -246h-33z" />
<glyph unicode="&#x5f5;" horiz-adv-x="329" d="M222 161q1 10 15.5 25t33.5 22q6 1 10.5 -3.5t4.5 -10.5v-39.5v-41t-0.5 -32t-2 -30.5t-4.5 -19q-5 -15 -22 -26.5t-25 -11.5q-11 1 -11 12q-1 5 0 98q0 11 1 57zM287 327q0 -10 -14.5 -26.5t-37.5 -28.5q-4 -2 -8.5 2t-4.5 11q-1 17 -1 32q0 11 -10 37t-20 33 q-13 9 -20.5 11t-22.5 2h-25q-19 0 -30 3t-26 15q-17 12 -24 49q-4 24 -4 45q0 32 8 70q10 48 28 61q5 3 11.5 2.5t8.5 -4.5q1 -1 0 -9t0 -13q1 -8 10 -13.5t17 -5.5h60q58 -2 83 -36q21 -27 21 -96q0 -41 0.5 -82.5t0.5 -58.5z" />
<glyph unicode="&#x5f7;" horiz-adv-x="543" d="M103 402q-15 2 -33 16q-17 12 -24 49q-4 24 -4 45q0 32 8 70q10 48 28 61q5 3 11.5 2.5t8.5 -4.5q1 -1 0 -9t0 -13q1 -8 7 -13.5t13 -5.5h289q31 0 54 -12.5t35 -30t18.5 -45.5t8 -48.5t1.5 -50.5q0 -78 -20 -126.5t-66 -69.5q-15 -7 -36.5 -18t-53.5 -29.5t-53 -37 t-20 -31.5q0 -5 2.5 -18t3.5 -23t0 -22t-8 -22t-21 -16q-25 -11 -51.5 6t-28.5 45q-5 73 91 139q5 3 59.5 32.5t90.5 58t39 56.5q2 18 -2.5 30.5t-11.5 19t-20.5 9.5t-22.5 3.5t-26 0.5h-6h-187q-19 -11 -30.5 -34.5t-15 -61t-4.5 -63.5t0.5 -73.5t1.5 -60.5q0 -45 2 -136.5 t1 -116.5q-1 -9 0 -34t-1.5 -39t-10.5 -22q-17 -14 -38.5 -21t-27.5 1q-2 4 -2.5 5.5t0.5 3.5t3 9.5t3.5 18.5t2.5 34.5t2 55.5q0 53 -2 146.5t-2 111.5q0 12 -1 42t-1 46.5t1 44.5t4 45.5t8 38.5t13.5 35.5t20.5 25.5z" />
<glyph unicode="&#x200c;" />
<glyph unicode="&#x200d;" />
<glyph unicode="&#x200e;" />
<glyph unicode="&#x200f;" />
<glyph unicode="&#x2013;" horiz-adv-x="520" d="M498 353l-28 -114q-2 -9 -5.5 -12t-13.5 -3h-415q-14 0 -16.5 4.5t1.5 15.5l29 114q2 9 5 12t13 3h416q14 0 16.5 -4.5t-2.5 -15.5z" />
<glyph unicode="&#x2014;" horiz-adv-x="825" d="M803 353l-28 -114q-2 -9 -5.5 -12t-13.5 -3h-720q-14 0 -16.5 4.5t1.5 15.5l29 114q2 9 5 12t13 3h721q14 0 16.5 -4.5t-2.5 -15.5z" />
<glyph unicode="&#x2015;" horiz-adv-x="1015" d="M993 353l-28 -114q-2 -9 -5.5 -12t-13.5 -3h-910q-14 0 -16.5 4.5t1.5 15.5l29 114q2 9 5 12t13 3h911q14 0 16.5 -4.5t-2.5 -15.5z" />
<glyph unicode="&#x2018;" horiz-adv-x="290" d="M220 749l-17 -247q-1 -8 -5 -21q-9 -28 -34.5 -43t-63.5 -15q-39 0 -55 15t-7 43q5 15 9 21l141 247h32z" />
<glyph unicode="&#x2019;" horiz-adv-x="290" d="M70 418l17 246q1 8 5 21q9 28 35 43.5t63 15.5q39 0 55 -15t7 -44q-5 -14 -8 -21l-141 -246h-33z" />
<glyph unicode="&#x201a;" horiz-adv-x="290" d="M70 -167l17 246q1 8 5 21q9 28 35 43.5t63 15.5q39 0 55 -15t7 -44q-5 -14 -8 -21l-141 -246h-33z" />
<glyph unicode="&#x201c;" horiz-adv-x="519" d="M449 749l-17 -247q-1 -8 -5 -21q-9 -28 -34.5 -43t-63.5 -15q-39 0 -55 15t-7 43q5 15 9 21l141 247h32zM222 749l-17 -247q-1 -7 -5 -21q-9 -27 -35.5 -42.5t-64 -15.5t-54.5 15t-8 42q2 7 10 22l141 247h33z" />
<glyph unicode="&#x201d;" horiz-adv-x="519" d="M70 418l17 246q1 8 5 21q9 28 35 43.5t63 15.5q39 0 55 -15t7 -44q-5 -14 -8 -21l-141 -246h-33zM297 418l18 246q1 8 5 21q9 28 35.5 43.5t64 15.5t54 -15.5t7.5 -42.5q-2 -6 -10 -22l-141 -246h-33z" />
<glyph unicode="&#x201e;" horiz-adv-x="519" d="M70 -166l17 247q1 7 5 21q9 28 35 43t63 15q39 0 55 -15t7 -43q-5 -15 -8 -21l-141 -247h-33zM297 -166l18 247q1 7 5 21q9 27 35.5 42.5t64 15.5t54 -15t7.5 -42q-2 -7 -10 -22l-141 -247h-33z" />
<glyph unicode="&#x2026;" horiz-adv-x="908" d="M665 128l79 97q10 12 16 12t16 -12l79 -97q15 -18 0 -36l-79 -97q-10 -12 -16 -12t-16 12l-79 97q-9 11 -9 18t9 18zM377 128l79 97q10 12 16 12t16 -12l79 -97q15 -18 0 -36l-79 -97q-10 -12 -16 -12t-16 12l-79 97q-9 11 -9 18t9 18zM89 128l79 97q10 12 16 12t16 -12 l79 -97q15 -18 0 -36l-79 -97q-10 -12 -16 -12t-16 12l-79 97q-9 11 -9 18t9 18z" />
<glyph unicode="&#x20aa;" horiz-adv-x="887" d="M609 316q0 -32 -7 -46q-17 -32 -43 -40q-25 -8 -27 26v5v113q0 11 -7.5 18.5t-17.5 7.5h-253q-5 0 -12.5 -1t-24 -9t-23.5 -21q-31 -55 -10 -223q8 -69 -19 -110q-12 -17 -32.5 -28t-35 -11t-20.5 7q-2 4 -2 6t1 4.5t2.5 11t3 21.5t3 41t1.5 64v22t0.5 32.5t1.5 33 t3.5 39.5t6.5 35q6 21 18.5 38.5t22.5 27t11 13.5q1 7 -16 9q-25 2 -48 19q-14 11 -16 32v107q-1 40 32 40h474q33 0 33 -40v-244zM316 274q0 32 7 46q17 33 43 40q25 8 27 -25v-6v-113q0 -11 7 -18.5t18 -7.5h250q73 0 73 91l-1 235q0 32 8 46q16 32 42 40q25 8 27 -26 q1 -2 1 -5v-307q0 -27 -0.5 -42t-3 -46.5t-7 -51.5t-14 -46t-23.5 -41t-35.5 -26t-48.5 -11h-338q-32 0 -32 40v234z" />
<glyph unicode="&#x20ac;" horiz-adv-x="574" d="M64 238h-61l23 67h28q-1 27 -1 40v16h-50l23 67h32q11 71 46 133q86 159 254 159q87 0 144 -39t57 -107q0 -39 -24 -64t-61 -25q-31 0 -51.5 20t-20.5 49q0 35 36 56q14 8 14 20q0 17 -20.5 27t-57.5 10q-50 0 -89 -37t-58 -104q-13 -44 -17 -98h265l-23 -67h-245 q0 -29 2 -56h229l-23 -67h-198q30 -170 148 -170q54 0 92.5 36t53.5 91l52 -10q-40 -200 -225 -200q-173 0 -250 174q-15 36 -24 79z" />
<glyph unicode="&#x2502;" horiz-adv-x="574" d="M347 960v-1260h-120v1260h120z" />
<glyph unicode="&#x25cc;" horiz-adv-x="604" d="M505 454q15 0 26 -10.5t11 -26t-11 -26t-26 -10.5t-26 10.5t-11 26t11 26t26 10.5zM419 133q15 0 26 -11t11 -26t-11 -25.5t-26 -10.5t-26 10.5t-11 25.5t11 26t26 11zM97.5 219q15.5 0 26 -10.5t10.5 -26t-10.5 -26t-26 -10.5t-26 10.5t-10.5 26t10.5 26t26 10.5z M183.5 540q15.5 0 26 -10.5t10.5 -25.5t-10.5 -26t-26 -11t-26 11t-10.5 26t10.5 25.5t26 10.5zM97.5 454q15.5 0 26 -10.5t10.5 -26t-10.5 -26t-26 -10.5t-26 10.5t-10.5 26t10.5 26t26 10.5zM183.5 133q15.5 0 26 -11t10.5 -26t-10.5 -25.5t-26 -10.5t-26 10.5t-10.5 25.5 t10.5 26t26 11zM505 219q15 0 26 -10.5t11 -26t-11 -26t-26 -10.5t-26 10.5t-11 26t11 26t26 10.5zM419 540q15 0 26 -10.5t11 -25.5t-11 -26t-26 -11t-26 11t-11 26t11 25.5t26 10.5zM301 101q15 0 26 -10.5t11 -26t-11 -26t-26 -10.5t-26 10.5t-11 26t11 26t26 10.5z M536.5 337q15.5 0 26 -11t10.5 -26t-10.5 -26t-26 -11t-26 11t-10.5 26t10.5 26t26 11zM301 572q15 0 26 -10.5t11 -26t-11 -26t-26 -10.5t-26 10.5t-11 26t11 26t26 10.5zM66 337q15 0 26 -11t11 -26t-11 -26t-26 -11t-26 11t-11 26t11 26t26 11z" />
<glyph unicode="&#x25fc;" horiz-adv-x="475" d="M0 475h475v-475h-475v475z" />
<glyph unicode="&#xe801;" horiz-adv-x="329" d="M0 742q18 0 31 -13t13 -31t-13 -31t-31 -13t-31 13t-13 31t13 31t31 13zM126 600h57q27 0 46.5 -8.5t30 -21.5t17 -32t8 -34.5t1.5 -35.5v-395q0 -23 -6 -41q-5 -15 -24 -27t-28 -11q-12 1 -12 12v311q0 16 -1.5 27t-8 25.5t-22.5 22.5t-40 8h-21q-44 0 -64 27t-20 93 q0 51 17.5 88.5t39.5 37.5q8 0 10 -3t1 -11t-1 -13q1 -8 7.5 -13.5t12.5 -5.5z" />
<glyph unicode="&#xe802;" horiz-adv-x="491" d="M121 600h299q80 0 80 -104q0 -24 -4.5 -43.5t-19 -36t-38.5 -16.5q0 -9 12 -232.5t12 -325.5q0 -54 -31 -84q-16 -16 -38 -23t-28 5q-2 3 -2 5t0.5 4.5t2.5 11t3.5 22t3 41t1.5 64.5q0 8 5 234t6 278h-266q-44 0 -64 27t-20 93q0 51 17 88.5t39 37.5q8 0 10 -3t1 -11 t0 -13q1 -8 7 -13.5t12 -5.5zM270 192q18 0 31 -13t13 -31t-13 -31t-31 -13t-31 13t-13 31t13 31t31 13zM270 304q18 0 31 -13t13 -31t-13 -31t-31 -13t-31 13t-13 31t13 31t31 13z" />
<glyph unicode="&#xe803;" horiz-adv-x="491" d="M121 600h299q80 0 80 -104q0 -24 -4.5 -43.5t-19 -36t-38.5 -16.5q0 -9 12 -232.5t12 -325.5q0 -54 -31 -84q-16 -16 -38 -23t-28 5q-2 3 -2 5t0.5 4.5t2.5 11t3.5 22t3 41t1.5 64.5q0 8 5 234t6 278h-266q-44 0 -64 27t-20 93q0 51 17 88.5t39 37.5q8 0 10 -3t1 -11 t0 -13q1 -8 7 -13.5t12 -5.5zM134 223v71h200v-71h-65v-94h-70v94h-65z" />
<glyph unicode="&#xe804;" horiz-adv-x="340" d="M170 168q18 0 31 -13t13 -31t-13 -31t-31 -13t-31 13t-13 31t13 31t31 13zM126 600h73q57 0 83.5 -33t26.5 -89q0 -52 -12 -88t-38 -79q-27 -44 -69 -77q-14 -11 -28.5 -12t-21.5 8q-7 8 -4 21.5t14 24.5q46 48 60 77q9 25 2 36t-24 11h-64q-44 0 -64 27t-20 93 q0 51 17 88.5t39 37.5q8 0 10 -3t1 -11t0 -13q1 -8 7 -13.5t12 -5.5z" />
<glyph unicode="&#xfb1d;" horiz-adv-x="340" d="M170 -60q18 0 31 -13t13 -31t-13 -31t-31 -13t-31 13t-13 31t13 31t31 13zM126 600h73q57 0 83.5 -33t26.5 -89q0 -52 -12 -88t-38 -79q-27 -44 -69 -77q-14 -11 -28.5 -12t-21.5 8q-7 8 -4 21.5t14 24.5q46 48 60 77q9 25 2 36t-24 11h-64q-44 0 -64 27t-20 93 q0 51 17 88.5t39 37.5q8 0 10 -3t1 -11t0 -13q1 -8 7 -13.5t12 -5.5z" />
<glyph unicode="&#xfb1e;" d="M142 746q-39 -92 -142 -92q-51 0 -89 26.5t-53 67.5l46 24q35 -47 96 -47q57 0 93 47z" />
<glyph unicode="&#xfb1f;" horiz-adv-x="680" d="M232 124h200v-71h-200v71zM466 600h73q57 0 83.5 -33t26.5 -89q0 -52 -12 -88t-38 -79q-27 -44 -69 -77q-14 -11 -28.5 -12t-21.5 8q-7 8 -4 21.5t14 24.5q46 48 60 77q9 25 2 36t-24 11h-64q-44 0 -64 27t-20 93q0 51 17 88.5t39 37.5q8 0 10 -3t1 -11t0 -13 q1 -8 7 -13.5t12 -5.5zM126 600h73q57 0 83.5 -33t26.5 -89q0 -52 -12 -88t-38 -79q-27 -44 -69 -77q-14 -11 -28.5 -12t-21.5 8q-7 8 -4 21.5t14 24.5q46 48 60 77q9 25 2 36t-24 11h-64q-44 0 -64 27t-20 93q0 51 17 88.5t39 37.5q8 0 10 -3t1 -11t0 -13q1 -8 7 -13.5 t12 -5.5z" />
<glyph unicode="&#xfb20;" horiz-adv-x="560" d="M79 0q-16 0 -19 6.5t1 18.5l37 151q2 9 6 11.5t15 2.5h120h2h9t5.5 2.5t1.5 6.5q-1 6 -7.5 10.5t-20.5 11t-25 13.5q-35 24 -47 68q-4 14 -5 39.5t-3 35.5q-1 12 -4.5 14t-21.5 7q-41 10 -59.5 37.5t-18.5 84.5q0 51 17.5 88.5t39.5 37.5q8 0 9.5 -3t0.5 -11t0 -13 q3 -18 20 -19l31 -1q17 -1 44.5 -11t40.5 -30q14 -22 19.5 -52t3 -55.5t-8.5 -46.5q-5 -16 -16.5 -15t-22 7t-20.5 -7q-7 -9 2.5 -22.5t35.5 -26t42 -30.5q24 -26 28.5 -57.5t-11.5 -62.5q20 0 35.5 5.5t24.5 11.5t15.5 19t8.5 19t5.5 21.5t3.5 16.5q3 13 9.5 31.5t11 32 t7.5 26t0 20t-12 8.5q-94 9 -94 119q0 51 17.5 88.5t39.5 37.5q8 0 10 -3t1 -11t-1 -13q3 -19 20 -19h24q40 0 71 -23.5t33 -73.5q1 -25 -9.5 -50t-27.5 -54.5t-24 -48.5q-9 -26 -11.5 -50t-1 -62t1.5 -55q-2 -83 -42 -132q-41 -51 -115 -51h-222z" />
<glyph unicode="&#xfb21;" horiz-adv-x="1268" d="M266 366q-28 -11 -58 -38t-33 -61q-1 -26 12 -45.5t32.5 -33.5t39.5 -29t34 -42.5t14 -64.5q0 -32 -6.5 -42t-23.5 -10h-215q-21 0 -27.5 17t4.5 37q5 9 23.5 10.5t20.5 5.5q8 14 -0.5 36t-18.5 55t-4 66q7 48 41 93t89 75l-61 23q-33 13 -49.5 43t-15.5 63t10.5 63 t24.5 44q10 9 23 12.5t21 -2.5q3 -3 10 -17t20.5 -28t35.5 -22l828 -321q-11 45 -6.5 86.5t19.5 68.5q-27 16 -44 49t-17 78q0 31 10 64t27 44q7 4 15 1.5t11 -7.5q0 -1 2.5 -8t5 -11.5t8.5 -10t14 -7.5l61 -13q35 -6 56 -28t25.5 -54t3 -61t-9.5 -61q-4 -15 -12.5 -18.5 t-18 0t-24 9t-25.5 5.5q-26 0 -38 -30q-28 -65 15 -126q50 -19 74 -53t22 -67.5t-15 -61.5t-32 -41q-25 -17 -41 -8q-12 5 -27.5 33t-36.5 37z" />
<glyph unicode="&#xfb22;" horiz-adv-x="1220" d="M116 600h1033q22 0 34.5 -12.5t12.5 -37.5l-1 -110q0 -10 -1 -16.5t-6 -12t-7 -7.5t-10.5 -8t-9.5 -8q-23 -17 -34.5 -45.5t-11.5 -54.5q0 -29 15.5 -75t18.5 -66q11 -64 -21 -111q-11 -17 -33 -28t-37.5 -11t-21.5 7q-2 4 -2 6t1 4.5t2.5 11t3 21.5t3 41t1.5 64 q0 5 -1 29t-1 43t4.5 49t13.5 57q7 20 16.5 34t14.5 19.5t5 8.5q0 8 -21 8h-963q-44 0 -64 27t-20 93q0 51 17.5 88.5t39.5 37.5q8 0 9.5 -3t0.5 -11t0 -13q1 -8 7 -13.5t13 -5.5z" />
<glyph unicode="&#xfb23;" horiz-adv-x="1257" d="M130 600h1043q22 0 34.5 -12.5t12.5 -37.5v-97q0 -23 -5.5 -37t-14.5 -26t-13 -21q-14 -35 -15 -67t5.5 -52t17 -51t14.5 -52q13 -64 -17 -111q-11 -17 -32.5 -28t-37 -11t-21.5 7q-2 4 -2 5.5t0.5 5t2 10.5t2.5 22t1.5 40.5t-0.5 64.5q0 5 -2 29t-3 43t2.5 49t12.5 57 q6 20 15 34t14.5 19.5t5.5 8.5q0 5 -3.5 6.5t-17.5 1.5h-1002q-44 0 -64 27t-20 93q0 51 17.5 88.5t39.5 37.5q8 0 9.5 -3t0.5 -11t0 -13q1 -8 7 -13.5t13 -5.5zM159 294q7 0 9.5 -2t0.5 -6q-9 -19 -6 -131v-39.5t-4.5 -37.5t-15.5 -33q-15 -22 -44 -34t-42 -11 q-15 1 -10 10q7 13 9 103v32.5t0.5 34t2 26.5t6 27.5t10.5 18.5q36 42 84 42z" />
<glyph unicode="&#xfb24;" horiz-adv-x="1193" d="M53 0q-16 0 -19 6.5t1 18.5l39 152q2 8 6.5 10.5t14.5 2.5h903q62 0 92.5 26t30.5 77q0 53 -28 80t-92 27h-870q-44 0 -64 27t-20 93q0 51 17.5 88.5t39.5 37.5q8 0 9.5 -3t0.5 -11t0 -13q1 -8 7 -13.5t13 -5.5h872q36 0 64 -13t46.5 -37.5t31 -52.5t19 -64.5t9 -66.5 t3.5 -65q2 -38 -2.5 -76.5t-17 -79.5t-32 -72.5t-52.5 -52t-74 -20.5h-948z" />
<glyph unicode="&#xfb25;" horiz-adv-x="1219" d="M1062 400h-1003q-8 0 -10.5 4t-3.5 13q-8 109 0 203q2 19 5.5 45.5t5.5 40.5t1 28t-6 22q-7 11 -23 16.5t-25.5 15t-8.5 32.5q2 28 11 52t18 36t13 12q8 0 15 -10.5t18 -14.5q5 -2 17 -5t18.5 -5.5t15.5 -8t14.5 -15t8.5 -22.5q5 -21 -3.5 -43t-21.5 -49.5t-17 -54.5 q-1 -24 -1.5 -44.5t17.5 -34t56 -13.5h980q13 0 21 -5t11 -21q19 -94 11 -176q-2 -22 -4.5 -38t-10 -41t-22 -45.5t-36.5 -35.5q-17 -12 -63.5 -29t-87 -31t-72 -34.5t-30.5 -42.5q1 -5 3.5 -18t3.5 -23t0 -22t-8.5 -22t-21.5 -16q-25 -11 -51.5 6t-28.5 45q-2 38 12.5 66 t47.5 59q24 22 67 40t81 28t74 28t50 42q15 26 2.5 56t-39.5 30z" />
<glyph unicode="&#xfb26;" horiz-adv-x="1253" d="M152 190h971q16 0 24.5 6t8.5 25v82q0 44 -17.5 70.5t-51.5 26.5h-899q-34 0 -51.5 -26.5t-17.5 -70.5v-82q0 -19 8.5 -25t24.5 -6zM114 413q-55 15 -55 107q0 51 17.5 88.5t39.5 37.5q8 0 9.5 -3t0.5 -11t0 -13q1 -8 7 -13.5t13 -5.5h909q24 0 41.5 -1t33.5 -5t26 -8 t19.5 -15t15 -20t10 -30t6.5 -38t3.5 -50t1.5 -60.5v-74.5v-259q0 -39 -39 -39h-1079q-37 0 -37 35v253q0 89 57 125z" />
<glyph unicode="&#xfb27;" horiz-adv-x="1214" d="M120 600h946q31 0 53.5 -9.5t35.5 -24.5t20.5 -37t10 -42t2.5 -45v-369q0 -23 -6 -41q-5 -15 -22 -26.5t-26 -11.5q-11 1 -11 12v296q0 20 -3 35t-12 30.5t-28 24t-48 8.5h-914q-44 0 -64 27t-20 93q0 51 17.5 88.5t39.5 37.5q8 0 9.5 -3t0.5 -11t0 -13q1 -8 7 -13.5 t12 -5.5z" />
<glyph unicode="&#xfb28;" horiz-adv-x="1195" d="M28 0q-16 0 -19 6.5t1 18.5l39 152q2 8 6.5 10.5t14.5 2.5h41q16 0 22.5 7.5t5.5 17.5t-2 21q-7 47 1 89q4 23 15 43.5t24 31.5q-45 0 -64.5 27t-19.5 93q0 51 17 88.5t39 37.5q8 0 10 -3t1 -11t0 -13q1 -8 7 -13.5t12 -5.5h863q31 0 54 -9.5t36 -24.5t20.5 -37t9.5 -42 t2 -45v-369q0 -23 -6 -41q-5 -15 -22 -26.5t-25 -11.5q-12 1 -12 12v296q0 20 -3 35t-11.5 30.5t-28 24t-48.5 8.5h-765q-42 -47 -42 -106q0 -36 15 -84q15 -47 15 -104q0 -49 -23 -91q-5 -10 -10 -12.5t-17 -2.5h-153z" />
<glyph unicode="&#xfb29;" horiz-adv-x="606" d="M51 195v115h195v195h115v-195h194v-115h-504z" />
<glyph unicode="&#xfb2a;" horiz-adv-x="794" d="M688 718q18 0 31 -13t13 -31t-13 -31t-31 -13t-31 13t-13 31t13 31t31 13zM623 400q-36 5 -53.5 30.5t-17.5 89.5q0 51 17.5 88.5t39.5 37.5q8 0 10 -3t1 -11t-1 -13q3 -17 19 -20l47 -11q78 -16 78 -122q0 -44 -12 -76q-13 -34 -55 -90t-51 -71q-53 -85 -96 -209 q-3 -11 -8.5 -15.5t-20.5 -4.5h-324q-13 0 -17.5 4t-7.5 16q-44 171 -55 218q-16 69 -9 140q2 20 -13 25q-26 8 -40.5 32t-14.5 85q0 51 17.5 88.5t39.5 37.5q8 0 10 -3t1 -11t-1 -13q3 -19 20 -19l44 -4q37 -2 59 -25t24 -58q4 -59 -13 -109q-3 -10 -7.5 -14.5t-8 -4.5 t-11 1.5t-10.5 2.5q-26 3 -33.5 -14t-1.5 -78q6 -52 25 -79.5t47 -27.5h64q9 19 18 83q8 54 42 98q6 8 4 18t-14 14q-33 11 -45 35t-12 82q0 51 17.5 88.5t39.5 37.5q8 0 9.5 -3t0.5 -11t0 -13q3 -17 20 -19l42 -4q34 -3 58.5 -25t29.5 -59q8 -57 -9 -107q-4 -13 -11 -16 t-18 1q-32 9 -54 -21q-3 -5 -6 -11.5t-5 -14.5t-3 -14l-2.5 -15t-1.5 -12q-11 -66 -48 -112h125q21 0 33 8t27 26q39 50 100 109q26 26 17 47q-7 16 -35 20z" />
<glyph unicode="&#xfb2b;" horiz-adv-x="794" d="M160 718q18 0 31 -13t13 -31t-13 -31t-31 -13t-31 13t-13 31t13 31t31 13zM623 400q-36 5 -53.5 30.5t-17.5 89.5q0 51 17.5 88.5t39.5 37.5q8 0 10 -3t1 -11t-1 -13q3 -17 19 -20l47 -11q78 -16 78 -122q0 -44 -12 -76q-13 -34 -55 -90t-51 -71q-53 -85 -96 -209 q-3 -11 -8.5 -15.5t-20.5 -4.5h-324q-13 0 -17.5 4t-7.5 16q-44 171 -55 218q-16 69 -9 140q2 20 -13 25q-26 8 -40.5 32t-14.5 85q0 51 17.5 88.5t39.5 37.5q8 0 10 -3t1 -11t-1 -13q3 -19 20 -19l44 -4q37 -2 59 -25t24 -58q4 -59 -13 -109q-3 -10 -7.5 -14.5t-8 -4.5 t-11 1.5t-10.5 2.5q-26 3 -33.5 -14t-1.5 -78q6 -52 25 -79.5t47 -27.5h64q9 19 18 83q8 54 42 98q6 8 4 18t-14 14q-33 11 -45 35t-12 82q0 51 17.5 88.5t39.5 37.5q8 0 9.5 -3t0.5 -11t0 -13q3 -17 20 -19l42 -4q34 -3 58.5 -25t29.5 -59q8 -57 -9 -107q-4 -13 -11 -16 t-18 1q-32 9 -54 -21q-3 -5 -6 -11.5t-5 -14.5t-3 -14l-2.5 -15t-1.5 -12q-11 -66 -48 -112h125q21 0 33 8t27 26q39 50 100 109q26 26 17 47q-7 16 -35 20z" />
<glyph unicode="&#xfb2c;" horiz-adv-x="794" d="M688 718q18 0 31 -13t13 -31t-13 -31t-31 -13t-31 13t-13 31t13 31t31 13zM500 346q18 0 31 -13t13 -31t-13 -31t-31 -13t-31 13t-13 31t13 31t31 13zM623 400q-36 5 -53.5 30.5t-17.5 89.5q0 51 17.5 88.5t39.5 37.5q8 0 10 -3t1 -11t-1 -13q3 -17 19 -20l47 -11 q78 -16 78 -122q0 -44 -12 -76q-13 -34 -55 -90t-51 -71q-53 -85 -96 -209q-3 -11 -8.5 -15.5t-20.5 -4.5h-324q-13 0 -17.5 4t-7.5 16q-44 171 -55 218q-16 69 -9 140q2 20 -13 25q-26 8 -40.5 32t-14.5 85q0 51 17.5 88.5t39.5 37.5q8 0 10 -3t1 -11t-1 -13q3 -19 20 -19 l44 -4q37 -2 59 -25t24 -58q4 -59 -13 -109q-3 -10 -7.5 -14.5t-8 -4.5t-11 1.5t-10.5 2.5q-26 3 -33.5 -14t-1.5 -78q6 -52 25 -79.5t47 -27.5h64q9 19 18 83q8 54 42 98q6 8 4 18t-14 14q-33 11 -45 35t-12 82q0 51 17.5 88.5t39.5 37.5q8 0 9.5 -3t0.5 -11t0 -13 q3 -17 20 -19l42 -4q34 -3 58.5 -25t29.5 -59q8 -57 -9 -107q-4 -13 -11 -16t-18 1q-32 9 -54 -21q-3 -5 -6 -11.5t-5 -14.5t-3 -14l-2.5 -15t-1.5 -12q-11 -66 -48 -112h125q21 0 33 8t27 26q39 50 100 109q26 26 17 47q-7 16 -35 20z" />
<glyph unicode="&#xfb2d;" horiz-adv-x="794" d="M160 718q18 0 31 -13t13 -31t-13 -31t-31 -13t-31 13t-13 31t13 31t31 13zM500 346q18 0 31 -13t13 -31t-13 -31t-31 -13t-31 13t-13 31t13 31t31 13zM623 400q-36 5 -53.5 30.5t-17.5 89.5q0 51 17.5 88.5t39.5 37.5q8 0 10 -3t1 -11t-1 -13q3 -17 19 -20l47 -11 q78 -16 78 -122q0 -44 -12 -76q-13 -34 -55 -90t-51 -71q-53 -85 -96 -209q-3 -11 -8.5 -15.5t-20.5 -4.5h-324q-13 0 -17.5 4t-7.5 16q-44 171 -55 218q-16 69 -9 140q2 20 -13 25q-26 8 -40.5 32t-14.5 85q0 51 17.5 88.5t39.5 37.5q8 0 10 -3t1 -11t-1 -13q3 -19 20 -19 l44 -4q37 -2 59 -25t24 -58q4 -59 -13 -109q-3 -10 -7.5 -14.5t-8 -4.5t-11 1.5t-10.5 2.5q-26 3 -33.5 -14t-1.5 -78q6 -52 25 -79.5t47 -27.5h64q9 19 18 83q8 54 42 98q6 8 4 18t-14 14q-33 11 -45 35t-12 82q0 51 17.5 88.5t39.5 37.5q8 0 9.5 -3t0.5 -11t0 -13 q3 -17 20 -19l42 -4q34 -3 58.5 -25t29.5 -59q8 -57 -9 -107q-4 -13 -11 -16t-18 1q-32 9 -54 -21q-3 -5 -6 -11.5t-5 -14.5t-3 -14l-2.5 -15t-1.5 -12q-11 -66 -48 -112h125q21 0 33 8t27 26q39 50 100 109q26 26 17 47q-7 16 -35 20z" />
<glyph unicode="&#xfb2e;" horiz-adv-x="620" d="M210 -69h200v-71h-200v71zM181 570l221 -230q5 45 18 67q-28 16 -46.5 50t-19.5 78q0 31 10 64t27 44q6 4 12.5 1t9.5 -11q0 -1 1 -7.5t2.5 -10t6.5 -8.5t14 -7l56 -11q36 -7 57 -29t25.5 -54t2.5 -60.5t-9 -60.5q-4 -15 -10.5 -19t-13 -0.5t-19 8.5t-22.5 5 q-26 0 -39 -30q-10 -30 -7.5 -51.5t13.5 -33.5l57 -61q34 -35 40.5 -78.5t-8 -76t-40.5 -48.5q-20 -13 -41 -7q-4 1 -7.5 10t-11 24.5t-19.5 27.5l-243 261q-39 -13 -42 -49q-3 -25 10.5 -43.5t34 -32.5t41.5 -30t36 -44t14 -65q0 -32 -6 -42t-24 -10h-200q-21 0 -27.5 17 t4.5 37q5 9 23.5 10.5t20.5 5.5q8 23 1.5 38t-16.5 50.5t-8 68.5q6 100 91 137l-39 40q-22 22 -36 44q-21 36 -13.5 89t37.5 83q10 9 23.5 12t20.5 -4q4 -4 14 -24t23 -34z" />
<glyph unicode="&#xfb2f;" horiz-adv-x="620" d="M210 -140v71h200v-71h-65v-94h-70v94h-65zM181 570l221 -230q5 45 18 67q-28 16 -46.5 50t-19.5 78q0 31 10 64t27 44q6 4 12.5 1t9.5 -11q0 -1 1 -7.5t2.5 -10t6.5 -8.5t14 -7l56 -11q36 -7 57 -29t25.5 -54t2.5 -60.5t-9 -60.5q-4 -15 -10.5 -19t-13 -0.5t-19 8.5 t-22.5 5q-26 0 -39 -30q-10 -30 -7.5 -51.5t13.5 -33.5l57 -61q34 -35 40.5 -78.5t-8 -76t-40.5 -48.5q-20 -13 -41 -7q-4 1 -7.5 10t-11 24.5t-19.5 27.5l-243 261q-39 -13 -42 -49q-3 -25 10.5 -43.5t34 -32.5t41.5 -30t36 -44t14 -65q0 -32 -6 -42t-24 -10h-200 q-21 0 -27.5 17t4.5 37q5 9 23.5 10.5t20.5 5.5q8 23 1.5 38t-16.5 50.5t-8 68.5q6 100 91 137l-39 40q-22 22 -36 44q-21 36 -13.5 89t37.5 83q10 9 23.5 12t20.5 -4q4 -4 14 -24t23 -34z" />
<glyph unicode="&#xfb30;" horiz-adv-x="620" d="M338 137q18 0 31 -13t13 -31t-13 -31t-31 -13t-31 13t-13 31t13 31t31 13zM181 570l221 -230q5 45 18 67q-28 16 -46.5 50t-19.5 78q0 31 10 64t27 44q6 4 12.5 1t9.5 -11q0 -1 1 -7.5t2.5 -10t6.5 -8.5t14 -7l56 -11q36 -7 57 -29t25.5 -54t2.5 -60.5t-9 -60.5 q-4 -15 -10.5 -19t-13 -0.5t-19 8.5t-22.5 5q-26 0 -39 -30q-10 -30 -7.5 -51.5t13.5 -33.5l57 -61q34 -35 40.5 -78.5t-8 -76t-40.5 -48.5q-20 -13 -41 -7q-4 1 -7.5 10t-11 24.5t-19.5 27.5l-243 261q-39 -13 -42 -49q-3 -25 10.5 -43.5t34 -32.5t41.5 -30t36 -44t14 -65 q0 -32 -6 -42t-24 -10h-200q-21 0 -27.5 17t4.5 37q5 9 23.5 10.5t20.5 5.5q8 23 1.5 38t-16.5 50.5t-8 68.5q6 100 91 137l-39 40q-22 22 -36 44q-21 36 -13.5 89t37.5 83q10 9 23.5 12t20.5 -4q4 -4 14 -24t23 -34z" />
<glyph unicode="&#xfb31;" horiz-adv-x="524" d="M264 346q18 0 31 -13t13 -31t-13 -31t-31 -13t-31 13t-13 31t13 31t31 13zM489 190q15 0 18.5 -6.5t-1.5 -17.5l-39 -146q-3 -11 -8.5 -15.5t-19.5 -4.5h-384q-16 0 -19 6.5t1 18.5l38 152q2 8 6.5 10.5t15.5 2.5h218q32 0 40 5q14 9 26.5 40t12.5 69q0 58 -26 79 q-13 12 -29.5 14.5t-45.5 2.5h-151q-44 0 -64 27t-20 93q0 51 17 88.5t39 37.5q8 0 10 -3t1 -11t0 -13q1 -8 7 -13.5t12 -5.5h222q28 0 48 -11.5t31.5 -29.5t18 -46.5t8.5 -55.5t2 -65q0 -51 -13.5 -102.5t-34.5 -88.5q-2 -3 -0.5 -7t5.5 -4h58z" />
<glyph unicode="&#xfb32;" horiz-adv-x="384" d="M138 348q18 0 31 -13t13 -31t-13 -31t-31 -13t-31 13t-13 31t13 31t31 13zM77 190h37q58 0 85.5 24.5t34.5 71.5q7 58 -4 86t-50 28h-24q-44 0 -64 27t-20 93q0 51 17 88.5t39 37.5q8 0 10 -3t1 -11t0 -13q1 -8 7 -13.5t12 -5.5h67q7 0 15 -1t23 -7t25 -16t16 -31t3 -50 q-3 -24 -8 -48t-7.5 -41.5t-2.5 -40.5q1 -31 13.5 -59.5t28 -49t28 -56.5t12.5 -80q0 -43 -9 -83.5t-23 -40.5q-6 0 -11.5 2.5t-9.5 8t-7 10t-7 14.5t-5.5 15t-5 17t-4.5 16q-24 78 -44 78q-15 0 -44 -83l-20 -54q-4 -12 -9.5 -16t-20.5 -4h-116q-16 0 -19 6.5t1 18.5 l39 152q2 8 6.5 10.5t14.5 2.5z" />
<glyph unicode="&#xfb33;" horiz-adv-x="520" d="M260 346q18 0 31 -13t13 -31t-13 -31t-31 -13t-31 13t-13 31t13 31t31 13zM115 600h334q21 0 33.5 -12.5t13.5 -37.5l-1 -110q0 -10 -1.5 -16.5t-6 -12t-6.5 -7.5t-10.5 -8t-10.5 -8q-22 -17 -33.5 -45.5t-11.5 -54.5q0 -29 15.5 -75t18.5 -66q10 -64 -21 -111 q-11 -17 -33 -28t-37.5 -11t-21.5 7q-2 4 -2 6t0.5 4.5t2.5 11t3.5 21.5t2.5 41t2 64q0 5 -1 29t-1 43t4 49t14 57q7 20 16 34t14.5 19.5t5.5 8.5q0 5 -4.5 6.5t-16.5 1.5h-263q-44 0 -64 27t-20 93q0 51 17 88.5t39 37.5q8 0 10 -3t1 -11t0 -13q1 -8 7 -13.5t12 -5.5z" />
<glyph unicode="&#xfb34;" horiz-adv-x="557" d="M277 346q18 0 31 -13t13 -31t-13 -31t-31 -13t-31 13t-13 31t13 31t31 13zM129 600h344q22 0 34.5 -12.5t12.5 -37.5v-97q0 -23 -5.5 -37t-14.5 -26t-13 -21q-14 -35 -15 -67t5 -52t17 -51t15 -52q13 -64 -17 -111q-11 -17 -32.5 -28t-37 -11t-21.5 7q-2 4 -2.5 5.5 t0.5 5t2.5 10.5t2.5 22t1.5 40.5t-1.5 64.5q0 5 -2 29t-2.5 43t3 49t11.5 57q7 20 16 34t14.5 19.5t5.5 8.5q0 5 -4 6.5t-17 1.5h-302q-44 0 -64 27t-20 93q0 51 17 88.5t39 37.5q8 0 10 -3t1 -11t0 -13q1 -8 7 -13.5t12 -5.5zM159 294q7 0 9.5 -2t0.5 -6q-10 -19 -6 -131 v-39.5t-5 -37.5t-15 -33q-16 -22 -44.5 -34t-41.5 -11q-16 1 -10 10q7 13 8 103q1 8 0.5 32.5t0.5 34t2.5 26.5t5.5 27.5t11 18.5q36 42 84 42z" />
<glyph unicode="&#xfb35;" horiz-adv-x="329" d="M139 348q18 0 31 -13t13 -31t-13 -31t-31 -13t-31 13t-13 31t13 31t31 13zM126 600h57q27 0 46.5 -8.5t30 -21.5t17 -32t8 -34.5t1.5 -35.5v-395q0 -23 -6 -41q-5 -15 -24 -27t-28 -11q-12 1 -12 12v311q0 16 -1.5 27t-8 25.5t-22.5 22.5t-40 8h-21q-44 0 -64 27t-20 93 q0 51 17.5 88.5t39.5 37.5q8 0 10 -3t1 -11t-1 -13q1 -8 7.5 -13.5t12.5 -5.5z" />
<glyph unicode="&#xfb36;" horiz-adv-x="362" d="M64 346q18 0 31 -13t13 -31t-13 -31t-31 -13t-31 13t-13 31t13 31t31 13zM140 600h57q78 0 110 -44q20 -26 23.5 -68t-3.5 -73t-15 -44q-5 -7 -21 3.5t-30 18.5t-29 -8q-11 -17 -12.5 -49t3 -58t14 -70.5t11.5 -60.5q11 -64 -21 -111q-11 -17 -33 -28t-37.5 -11t-21.5 7 q-2 4 -2 6t1 4.5t2.5 11t3 21.5t3 41t1.5 64q0 1 -1 37.5t0.5 64.5t7.5 52q6 23 12.5 38.5t10.5 21t6.5 11t1.5 12.5q-1 4 -2 6.5t-4.5 3.5t-5 1h-6h-5.5h-21q-44 0 -64 27t-20 93q0 51 17.5 88.5t39.5 37.5q8 0 9.5 -3t0.5 -11t0 -13q1 -8 7 -13.5t12 -5.5z" />
<glyph unicode="&#xfb37;" horiz-adv-x="605" d="M313 346q18 0 31 -13t13 -31t-13 -31t-31 -13t-31 13t-13 31t13 31t31 13zM131 400q-44 7 -64 32t-20 88q0 51 17 88.5t40 37.5q7 0 9 -3t1 -11t0 -13q1 -8 7 -13.5t12 -5.5h384q21 0 33.5 -12.5t12.5 -37.5v-97q0 -23 -5.5 -37t-14.5 -26t-12 -21q-14 -35 -15 -67t5 -52 t16.5 -51t15.5 -52q12 -64 -18 -111q-10 -17 -31.5 -28t-37 -11t-22.5 7q-3 6 0 17.5t6.5 39.5t-2.5 91q0 3 -3.5 29t-4.5 43.5t1.5 48t11.5 57.5q6 20 15 34t14.5 19.5t5.5 8.5q0 5 -4 6.5t-17 1.5h-217q-41 0 -60 -31q-16 -26 -20 -67t-0.5 -74.5t12.5 -80.5 q12 -62 -21 -111q-12 -17 -33.5 -28t-37 -11t-21.5 7q-3 15 -0.5 15.5t6.5 37.5t3 95q-2 107 12 162q5 21 17.5 38.5t23 27t10.5 13.5q1 3 -1.5 4.5t-8.5 2.5z" />
<glyph unicode="&#xfb38;" horiz-adv-x="615" d="M370 328q18 0 31 -13t13 -31t-13 -31t-31 -13t-31 13t-13 31t13 31t31 13zM94 400q-31 6 -45 31t-14 89q0 51 17 88.5t39 37.5q8 0 10 -3t1 -11t0 -13q1 -8 7 -13.5t12 -5.5h28q50 0 81 -37q18 -23 24.5 -56t1.5 -65t-18 -60q-2 -5 -5.5 -6.5t-9.5 1t-8 3.5t-9 6 q-11 7 -19.5 3t-12.5 -17q-19 -64 -7 -113q16 -69 58 -69h256q23 0 33.5 7.5t13.5 24.5q10 75 -12 121t-68 57q-25 6 -47.5 0.5t-37.5 -19.5t-23.5 -24.5t-14.5 -21.5q-4 -8 -10.5 -14t-13 -9t-12.5 0t-9 13q-3 8 2 39t18.5 72t33.5 79.5t52 64.5t69 24q27 -1 49 -13 t35.5 -28.5t23.5 -42t15 -47t7.5 -51.5t3 -47t0.5 -41q0 -173 -65 -314q-6 -13 -11.5 -16.5t-17.5 -3.5h-346q-23 0 -25 20q-7 59 -15 109.5t-12 70t-4 44t6 56.5q4 22 13 46t10 33q1 17 -28 21z" />
<glyph unicode="&#xfb39;" horiz-adv-x="340" d="M103 375q18 0 31 -13t13 -31t-13 -31t-31 -13t-31 13t-13 31t13 31t31 13zM126 600h73q57 0 83.5 -33t26.5 -89q0 -52 -12 -88t-38 -79q-27 -44 -69 -77q-14 -11 -28.5 -12t-21.5 8q-7 8 -4 21.5t14 24.5q46 48 60 77q9 25 2 36t-24 11h-64q-44 0 -64 27t-20 93 q0 51 17 88.5t39 37.5q8 0 10 -3t1 -11t0 -13q1 -8 7 -13.5t12 -5.5z" />
<glyph unicode="&#xfb3a;" horiz-adv-x="535" d="M260 346q18 0 31 -13t13 -31t-13 -31t-31 -13t-31 13t-13 31t13 31t31 13zM121 600h299q80 0 80 -104q0 -24 -4.5 -43.5t-19 -36t-38.5 -16.5q0 -9 12 -232.5t12 -325.5q0 -54 -31 -84q-16 -16 -38 -23t-28 5q-2 3 -2 5t0.5 4.5t2.5 11t3.5 22t3 41t1.5 64.5q0 8 5 234 t6 278h-266q-44 0 -64 27t-20 93q0 51 17 88.5t39 37.5q8 0 10 -3t1 -11t0 -13q1 -8 7 -13.5t12 -5.5z" />
<glyph unicode="&#xfb3b;" horiz-adv-x="494" d="M256 346q18 0 31 -13t13 -31t-13 -31t-31 -13t-31 13t-13 31t13 31t31 13zM53 0q-16 0 -19 6.5t1 18.5l39 152q2 8 6 10.5t15 2.5h201q61 0 92.5 27t31.5 76q0 55 -27 81t-92 26h-170q-44 0 -64 27t-20 93q0 51 17.5 88.5t39.5 37.5q8 0 10 -3t1 -11t-1 -13 q1 -8 7.5 -13.5t12.5 -5.5h172q36 0 64.5 -13t46.5 -37.5t30.5 -52.5t19 -64.5t9.5 -66.5t4 -65q1 -38 -3.5 -76.5t-17 -79.5t-32 -72.5t-52.5 -52t-74 -20.5h-248z" />
<glyph unicode="&#xfb3c;" horiz-adv-x="519" d="M236 346q18 0 31 -13t13 -31t-13 -31t-31 -13t-31 13t-13 31t13 31t31 13zM295 101q1 -5 3.5 -18t3.5 -23t0 -22t-8.5 -22t-21.5 -16q-26 -12 -52 3t-28 48q-1 39 13.5 67t46.5 58q27 24 58.5 47t50.5 41t38 50q15 26 2.5 56t-39.5 30h-303q-8 0 -10.5 4t-3.5 13 q-8 109 0 203q2 19 5.5 45.5t5.5 40.5t1 28t-6 22q-7 11 -23 16.5t-26 15t-8 32.5q2 28 11 52t18 36t13 12q8 0 15 -10.5t18 -14.5q5 -2 16.5 -5t18.5 -5.5t16 -8t14.5 -15t8.5 -22.5q5 -21 -3.5 -43t-21.5 -49.5t-17 -54.5q-1 -24 -1.5 -44.5t17.5 -34t56 -13.5h280 q13 0 21 -5t11 -21q19 -94 11 -176q-2 -22 -4.5 -38t-10 -41t-22 -45.5t-36.5 -35.5q-9 -6 -34.5 -22.5t-37.5 -25.5t-28.5 -24t-22.5 -31t-5 -34z" />
<glyph unicode="&#xfb3d;" horiz-adv-x="553" d="M288 346q18 0 31 -13t13 -31t-13 -31t-31 -13t-31 13t-13 31t13 31t31 13zM152 190h271q16 0 24.5 6t8.5 25v82q0 44 -17.5 70.5t-51.5 26.5h-199q-34 0 -51.5 -26.5t-17.5 -70.5v-82q0 -19 8.5 -25t24.5 -6zM114 413q-55 15 -55 107q0 51 17.5 88.5t39.5 37.5 q8 0 9.5 -3t0.5 -11t0 -13q1 -8 7 -13.5t13 -5.5h209q24 0 41.5 -1t33.5 -5t26 -8t19.5 -15t15 -20t10 -30t6.5 -38t3.5 -50t1.5 -60.5v-74.5v-259q0 -39 -39 -39h-379q-37 0 -37 35v253q0 89 57 125z" />
<glyph unicode="&#xfb3e;" horiz-adv-x="574" d="M340 334q18 0 31 -13t13 -31t-13 -31t-31 -13t-31 13t-13 31t13 31t31 13zM149 396q-55 8 -78.5 37.5t-23.5 86.5q0 51 17.5 88.5t39.5 37.5q8 0 9.5 -3t0.5 -11t0 -13q1 -7 7 -12t13 -6q74 -9 100 -65q17 -35 10 -106q11 6 20.5 13t17.5 16.5t14.5 17t13 20.5t10.5 19.5 t9.5 21.5t7.5 20.5t7.5 22l6.5 19.5q4 13 8.5 15.5t16.5 0.5q176 -37 176 -307q0 -157 -43 -294q-5 -15 -22 -15h-239q-16 0 -19 6.5t1 18.5l41 152q2 8 6.5 10.5t14.5 2.5h149q27 0 41 16q15 16 19.5 45.5t-7.5 63.5q-14 37 -50.5 61t-96.5 24q-94 0 -150.5 -86t-48.5 -248 q2 -38 -10.5 -49.5t-59.5 -23.5q-20 -5 -20 15q0 100 21 192q22 93 90 166q9 8 4 18t-24 12z" />
<glyph unicode="&#xfb3f;" horiz-adv-x="350" d="M102 346q18 0 31 -13t13 -31t-13 -31t-31 -13t-31 13t-13 31t13 31t31 13zM121 600h110q26 0 45 -11.5t28.5 -30t14 -37t4.5 -37.5q0 -47 -11.5 -82.5t-39.5 -77.5q-34 -50 -34 -91q0 -25 10.5 -189.5t8.5 -201.5q-2 -32 -8.5 -51.5t-22.5 -32.5q-19 -17 -40 -23t-29 5 q-4 15 -2 18.5t7 41t6 88.5q0 13 3 86.5t7 162t5 123.5q1 24 17.5 56.5t16.5 53.5q0 13 -9.5 21.5t-22.5 8.5h-66q-44 0 -64 27t-20 93q0 51 17.5 88.5t39.5 37.5q7 0 9 -3t1 -11t0 -13q1 -8 7 -13.5t12 -5.5z" />
<glyph unicode="&#xfb40;" horiz-adv-x="367" d="M157 346q18 0 31 -13t13 -31t-13 -31t-31 -13t-31 13t-13 31t13 31t31 13zM160 600h77q81 0 83 -92q1 -15 -8 -67q-14 -87 -14 -128q0 -39 16 -101.5t17 -86.5q5 -58 -11 -104q-2 -8 -4.5 -11.5t-9 -6.5t-19.5 -3h-254q-15 0 -18.5 6.5t1.5 18.5l38 152q2 8 6.5 10.5 t14.5 2.5h130q30 0 37 22q3 16 3 25.5t-1.5 33t-2.5 36.5q0 25 4 46t2 29q-4 18 -41 18h-48q-44 0 -64 27t-20 93q0 51 17.5 88.5t39.5 37.5q8 0 9.5 -3t0.5 -11t0 -13q1 -8 7 -13.5t12 -5.5z" />
<glyph unicode="&#xfb41;" horiz-adv-x="524" d="M280 346q18 0 31 -13t13 -31t-13 -31t-31 -13t-31 13t-13 31t13 31t31 13zM450 297q0 57 -30 80t-90 23h-181q-30 -41 -30 -95q0 -69 41.5 -95.5t119.5 -26.5q40 0 68.5 4.5t52.5 16t36.5 34.5t12.5 59zM98 409q-22 20 -31 44.5t-9 66.5q0 51 17 88.5t39 37.5q8 0 10 -3 t1 -11t0 -13q1 -8 7 -13.5t12 -5.5h181q30 0 55.5 -7t43.5 -19t32 -29t22.5 -36.5t15 -41.5t9 -44.5t4.5 -44.5t1 -42t0 -38q0 -53 -7 -97t-23.5 -83.5t-43 -66t-68 -42.5t-96.5 -16q-216 0 -216 253q0 59 14.5 102t29.5 61z" />
<glyph unicode="&#xfb42;" horiz-adv-x="570" d="M324 398q18 0 31 -13t13 -31t-13 -31t-31 -13t-31 13t-13 31t13 31t31 13zM418 400q-84 18 -84 120q0 51 17.5 88.5t39.5 37.5q8 0 9.5 -3t0.5 -11t0 -13q3 -19 20 -19h24q40 0 71 -23.5t33 -73.5q1 -26 -10 -51t-33 -55t-26 -38q-11 -20 -19.5 -43t-12 -35.5t-10 -47.5 t-9.5 -45q-1 -6 -5.5 -29t-7 -34.5t-8 -30.5t-11.5 -33.5t-14 -25.5q-26 -39 -56 -61.5t-73 -42.5l-188 -88q-13 -6 -17.5 -3t-3.5 18l12 170q1 13 6 18.5t15 9.5l141 54q13 5 24.5 14.5t11.5 17.5q1 10 -10 18.5t-31.5 20t-31.5 22.5q-34 31 -40 83q-2 21 2 54t3 38 q-1 11 -4.5 13t-21.5 7q-41 9 -59.5 37t-18.5 85q0 51 17 88.5t39 37.5q8 0 10 -3t1 -11t0 -13q3 -18 19 -19l32 -1q16 -1 44 -11t41 -30q14 -22 19 -52.5t3 -56t-8 -45.5q-5 -16 -17.5 -15t-23.5 6.5t-21 -7.5q-9 -12 4 -31q12 -15 29.5 -27t33 -26t27.5 -40q21 -51 5 -117 q26 17 36.5 36t19.5 50.5t21 55.5q9 16 20.5 35t19 30t12.5 22t3 16.5t-11 7.5z" />
<glyph unicode="&#xfb43;" horiz-adv-x="547" d="M361 316q18 0 31 -13t13 -31t-13 -31t-31 -13t-31 13t-13 31t13 31t31 13zM240 400q-26 0 -46 -10.5t-27.5 -24.5t-0.5 -23q3 -5 8 -6.5t11.5 -1t16.5 -0.5q71 -8 78 -82q3 -30 -3 -56.5t-26 -26.5q-12 0 -19 3.5t-9 7t-6 12.5q-11 20 -47 20q-37 0 -47 -18q-5 -9 -8 -13 t-9.5 -7.5t-16.5 -3.5q-19 0 -26.5 7.5t-7.5 23.5q0 60 11 101q9 35 26.5 57t45.5 41q-53 0 -74 26.5t-21 93.5q0 51 17.5 88.5t39.5 37.5q7 0 9 -3t1 -11t0 -13q1 -8 7 -13.5t12 -5.5h239q53 0 78 -12t37 -51q13 -44 19 -201q17 -445 17 -488q0 -60 -31 -90 q-16 -16 -38 -23t-28 5q-3 15 -2 15.5t5.5 38.5t5.5 94q9 302 13 412q2 53 -20.5 76.5t-69.5 23.5h-114z" />
<glyph unicode="&#xfb44;" horiz-adv-x="563" d="M380 346q18 0 31 -13t13 -31t-13 -31t-31 -13t-31 13t-13 31t13 31t31 13zM57 0q-15 0 -18.5 6.5t1.5 18.5l40 152q2 8 6 10.5t15 2.5h257q31 0 53 8.5t33.5 20t18.5 28t8.5 28.5t1.5 25q0 100 -110 100h-98q-26 0 -45.5 -8t-26.5 -17.5t-2 -16.5q2 -3 5.5 -4.5t6 -1.5 h8.5h9q33 0 51.5 -14.5t25.5 -48.5q4 -21 -2.5 -39.5t-27.5 -18.5q-11 0 -18 3t-9 5.5t-7 9.5q-10 17 -47 17q-36 0 -46 -15q-5 -7 -8 -10.5t-10 -6.5t-17 -3q-19 0 -26.5 6.5t-6.5 19.5q1 35 15 69q19 49 69 74q-58 0 -81 25t-23 95q0 51 17 88.5t40 37.5q7 0 9 -3t1 -11 t0 -13q1 -8 7 -13.5t12 -5.5h239q29 0 45 -1.5t33.5 -7.5t28.5 -19t17 -35q31 -108 31 -233q0 -140 -48 -284q-3 -8 -4.5 -11t-7 -6t-15.5 -3h-400z" />
<glyph unicode="&#xfb45;" horiz-adv-x="617" d="M320 438q18 0 31 -13t13 -31t-13 -31t-31 -13t-31 13t-13 31t13 31t31 13zM403 400q-30 15 -44.5 42t-14.5 78t17 88.5t39 37.5q8 0 10 -3t1 -11t-1 -13q2 -8 8 -13.5t12 -5.5l58 -4q29 -2 49.5 -14.5t30 -30t13.5 -30.5t5 -25q4 -59 -17 -100q-3 -8 -8.5 -10.5 t-10.5 -1.5t-14 4t-16 4q-47 6 -66 -14q-91 -97 -132.5 -166.5t-43.5 -152.5q-1 -44 18 -115t18 -102q-2 -57 -31 -84q-15 -14 -35.5 -20t-36 -4t-18.5 10q-3 14 -1 17.5t6 39.5t4 87q0 7 -9 88t-15.5 181.5t-2.5 164.5q0 10 3 25t3 22.5t-2.5 16t-13.5 11.5t-30 3 q-95 0 -95 120q0 51 17.5 88.5t39.5 37.5q8 0 9.5 -3t0.5 -11t0 -13q1 -8 7 -13.5t13 -5.5h64q45 0 70 -28.5t25 -79.5q-1 -33 -9 -54.5t-27 -52.5q-17 -27 -17 -49q-2 -85 11 -152q12 33 29 62t43.5 60.5t39.5 45t47 48.5z" />
<glyph unicode="&#xfb46;" horiz-adv-x="583" d="M164 328q18 0 31 -13t13 -31t-13 -31t-31 -13t-31 13t-13 31t13 31t31 13zM117 190h257q-70 31 -108 77q-39 48 -44 108q-1 17 -8.5 21t-24.5 4h-34q-24 0 -41 4t-33.5 16t-25 37t-8.5 63q0 50 20 88t43 38q7 0 9 -3t1 -11t0 -13q1 -8 7 -13.5t12 -5.5h45q52 0 71 -25.5 t19 -81.5q0 -14 -3.5 -40.5t-2.5 -46.5t11 -40q3 -7 7.5 -13t11 -11.5t9.5 -8t12 -8.5t10 -7q35 51 55 82q-36 15 -47.5 40.5t-11.5 79.5q0 51 17.5 88.5t39.5 37.5q8 0 9.5 -3t0.5 -11t0 -13q1 -8 7 -13.5t13 -5.5h31q66 0 91 -58q14 -34 12.5 -74t-17.5 -72 q-4 -8 -9.5 -8.5t-12 2.5t-17 6.5t-20.5 3.5q-23 0 -35 -17l-63 -92q15 -10 47.5 -25t62 -33t50.5 -44q10 -12 4 -36l-35 -133q-3 -11 -8.5 -15.5t-19.5 -4.5h-398q-15 0 -18.5 6.5t1.5 18.5l38 152q2 8 6 10.5t15 2.5z" />
<glyph unicode="&#xfb47;" horiz-adv-x="544" d="M258 346q18 0 31 -13t13 -31t-13 -31t-31 -13t-31 13t-13 31t13 31t31 13zM129 600h278q32 0 54.5 -12.5t34.5 -30t18.5 -45.5t8 -48.5t1.5 -50.5q0 -77 -25 -124.5t-80 -82.5q-15 -9 -59.5 -33.5t-62.5 -39.5t-17 -30q1 -5 3.5 -18t3.5 -23.5t0 -22.5t-8.5 -21.5 t-21.5 -15.5q-32 -13 -54.5 1.5t-25.5 49.5q-3 39 22.5 78t68.5 71q13 9 60.5 34t76 49t31.5 52q2 18 -2.5 30.5t-11.5 19t-20.5 9.5t-22.5 3.5t-26 0.5h-6h-221q-44 0 -64 27t-20 93q0 51 17.5 88.5t39.5 37.5q8 0 10 -3t1 -11t-1 -13q2 -8 8 -13.5t12 -5.5zM133 164 q-1 -57 2 -169t1 -141q-1 -9 0 -34t-1.5 -39t-10.5 -22q-16 -13 -40.5 -21t-30.5 1q-2 4 -2 5.5t1 3.5t2.5 9.5t3 18.5t3 34.5t1.5 55.5q0 57 -2.5 169t-0.5 141q0 9 0.5 26t0.5 27.5t3 22.5t8 18q8 10 23.5 17t26.5 6.5t15 -3.5q1 -3 1.5 -3.5t1 -2.5t0 -3t-1 -5t-1 -8.5 t-1 -14t-1 -21t-1 -29.5t-0.5 -39z" />
<glyph unicode="&#xfb48;" horiz-adv-x="515" d="M294 314q18 0 31 -13t13 -31t-13 -31t-31 -13t-31 13t-13 31t13 31t31 13zM121 600h245q38 0 64 -13.5t37.5 -38.5t16 -49.5t4.5 -56.5v-369q0 -23 -6 -41q-5 -15 -24 -27t-28 -11q-12 1 -12 12v296q0 20 -3 35t-12 30.5t-28 24t-48 8.5h-209q-44 0 -64 27t-20 93 q0 51 17.5 88.5t39.5 37.5q8 0 10 -3t1 -11t-1 -13q1 -8 7.5 -13.5t12.5 -5.5z" />
<glyph unicode="&#xfb49;" horiz-adv-x="794" d="M500 346q18 0 31 -13t13 -31t-13 -31t-31 -13t-31 13t-13 31t13 31t31 13zM623 400q-36 5 -53.5 30.5t-17.5 89.5q0 51 17.5 88.5t39.5 37.5q8 0 10 -3t1 -11t-1 -13q3 -17 19 -20l47 -11q78 -16 78 -122q0 -44 -12 -76q-13 -34 -55 -90t-51 -71q-53 -85 -96 -209 q-3 -11 -8.5 -15.5t-20.5 -4.5h-324q-13 0 -17.5 4t-7.5 16q-44 171 -55 218q-16 69 -9 140q2 20 -13 25q-26 8 -40.5 32t-14.5 85q0 51 17.5 88.5t39.5 37.5q8 0 10 -3t1 -11t-1 -13q3 -19 20 -19l44 -4q37 -2 59 -25t24 -58q4 -59 -13 -109q-3 -10 -7.5 -14.5t-8 -4.5 t-11 1.5t-10.5 2.5q-26 3 -33.5 -14t-1.5 -78q6 -52 25 -79.5t47 -27.5h64q9 19 18 83q8 54 42 98q6 8 4 18t-14 14q-33 11 -45 35t-12 82q0 51 17.5 88.5t39.5 37.5q8 0 9.5 -3t0.5 -11t0 -13q3 -17 20 -19l42 -4q34 -3 58.5 -25t29.5 -59q8 -57 -9 -107q-4 -13 -11 -16 t-18 1q-32 9 -54 -21q-3 -5 -6 -11.5t-5 -14.5t-3 -14l-2.5 -15t-1.5 -12q-11 -66 -48 -112h125q21 0 33 8t27 26q39 50 100 109q26 26 17 47q-7 16 -35 20z" />
<glyph unicode="&#xfb4a;" horiz-adv-x="595" d="M355 346q18 0 31 -13t13 -31t-13 -31t-31 -13t-31 13t-13 31t13 31t31 13zM27 0q-15 0 -18.5 6.5t1.5 18.5l38 152q2 8 6.5 10.5t14.5 2.5h43q16 0 23 7.5t5.5 17.5t-2.5 21q-8 49 0 89q4 23 15 43.5t23 31.5q-44 0 -64 27t-20 93q0 51 17.5 88.5t39.5 37.5q8 0 10 -3 t1 -11t-1 -13q1 -8 7.5 -13.5t12.5 -5.5h263q38 0 64 -13.5t37.5 -38.5t16 -49.5t4.5 -56.5v-369q0 -23 -6 -41q-5 -15 -24 -27t-28 -11q-12 1 -12 12v296q0 20 -3 35t-12 30.5t-28 24t-48 8.5h-161q-41 -47 -41 -106q0 -36 15 -84q14 -47 14 -104q0 -49 -22 -91 q-6 -10 -10.5 -12.5t-17.5 -2.5h-153z" />
<glyph unicode="&#xfb4b;" horiz-adv-x="329" d="M179 742q18 0 31 -13t13 -31t-13 -31t-31 -13t-31 13t-13 31t13 31t31 13zM126 600h57q27 0 46.5 -8.5t30 -21.5t17 -32t8 -34.5t1.5 -35.5v-395q0 -23 -6 -41q-5 -15 -24 -27t-28 -11q-12 1 -12 12v311q0 16 -1.5 27t-8 25.5t-22.5 22.5t-40 8h-21q-44 0 -64 27t-20 93 q0 51 17.5 88.5t39.5 37.5q8 0 10 -3t1 -11t-1 -13q1 -8 7.5 -13.5t12.5 -5.5z" />
<glyph unicode="&#xfb4c;" horiz-adv-x="524" d="M170 744h200v-70h-200v70zM489 190q15 0 18.5 -6.5t-1.5 -17.5l-39 -146q-3 -11 -8.5 -15.5t-19.5 -4.5h-384q-16 0 -19 6.5t1 18.5l38 152q2 8 6.5 10.5t15.5 2.5h218q32 0 40 5q14 9 26.5 40t12.5 69q0 58 -26 79q-13 12 -29.5 14.5t-45.5 2.5h-151q-44 0 -64 27 t-20 93q0 51 17 88.5t39 37.5q8 0 10 -3t1 -11t0 -13q1 -8 7 -13.5t12 -5.5h222q28 0 48 -11.5t31.5 -29.5t18 -46.5t8.5 -55.5t2 -65q0 -51 -13.5 -102.5t-34.5 -88.5q-2 -3 -0.5 -7t5.5 -4h58z" />
<glyph unicode="&#xfb4d;" horiz-adv-x="494" d="M150 744h200v-70h-200v70zM53 0q-16 0 -19 6.5t1 18.5l39 152q2 8 6 10.5t15 2.5h201q61 0 92.5 27t31.5 76q0 55 -27 81t-92 26h-170q-44 0 -64 27t-20 93q0 51 17.5 88.5t39.5 37.5q8 0 10 -3t1 -11t-1 -13q1 -8 7.5 -13.5t12.5 -5.5h172q36 0 64.5 -13t46.5 -37.5 t30.5 -52.5t19 -64.5t9.5 -66.5t4 -65q1 -38 -3.5 -76.5t-17 -79.5t-32 -72.5t-52.5 -52t-74 -20.5h-248z" />
<glyph unicode="&#xfb4e;" horiz-adv-x="563" d="M188 744h200v-70h-200v70zM57 0q-15 0 -18.5 6.5t1.5 18.5l40 152q2 8 6 10.5t15 2.5h257q31 0 53 8.5t33.5 20t18.5 28t8.5 28.5t1.5 25q0 100 -110 100h-98q-26 0 -45.5 -8t-26.5 -17.5t-2 -16.5q2 -3 5.5 -4.5t6 -1.5h8.5h9q33 0 51.5 -14.5t25.5 -48.5 q4 -21 -2.5 -39.5t-27.5 -18.5q-11 0 -18 3t-9 5.5t-7 9.5q-10 17 -47 17q-36 0 -46 -15q-5 -7 -8 -10.5t-10 -6.5t-17 -3q-19 0 -26.5 6.5t-6.5 19.5q1 35 15 69q19 49 69 74q-58 0 -81 25t-23 95q0 51 17 88.5t40 37.5q7 0 9 -3t1 -11t0 -13q1 -8 7 -13.5t12 -5.5h239 q29 0 45 -1.5t33.5 -7.5t28.5 -19t17 -35q31 -108 31 -233q0 -140 -48 -284q-3 -8 -4.5 -11t-7 -6t-15.5 -3h-400z" />
<glyph unicode="&#xfb4f;" horiz-adv-x="624" d="M81 692q-7 -47 34 -87l271 -266q3 40 20 69q-27 16 -44 49t-17 78q0 31 10 64t27 44q6 4 14.5 1.5t10.5 -7.5q1 -1 3.5 -8t4.5 -11.5t8.5 -10t14.5 -7.5l60 -13q36 -6 57 -28t25.5 -54t2.5 -61t-9 -61q-4 -15 -12.5 -18.5t-18 0t-24.5 9t-25 5.5q-26 0 -38 -30 q-9 -22 -10 -45t7 -34l67 -67q35 -34 43.5 -77t-5 -76t-38.5 -50q-21 -14 -41 -8q-4 1 -8 9.5t-12.5 23.5t-20.5 27l-381 376q-16 16 -25 36.5t-10.5 48t-1 45.5t3.5 52q1 7 1 10q2 19 5.5 45.5t5.5 40.5t1 28t-6 22q-7 11 -23 16.5t-25.5 15t-8.5 32.5q2 28 11 52t18 36 t13 12q8 0 15 -10.5t18 -14.5q5 -2 17 -5t18.5 -5.5t15.5 -8t14.5 -15t8.5 -22.5q5 -21 -3.5 -43t-21.5 -49.5t-17 -54.5z" />
</font>
</defs>
</svg>
