<?xml version="1.0" encoding="UTF-8" standalone="no"?>
<!DOCTYPE svg  PUBLIC '-//W3C//DTD SVG 1.1//EN'  'http://www.w3.org/Graphics/SVG/1.1/DTD/svg11.dtd'>
<svg xmlns="http://www.w3.org/2000/svg">
<defs>
<font id="TaameyFrankCLM-Bold" horiz-adv-x="0">
<font-face underline-position="-170" font-weight="700" descent="-410" panose-1="2 0 0 0 0 0 0 0 0 0" units-per-em="2048" unicode-range="U+0020-FB4F" bbox="-416 -628 1787 1638" x-height="807" underline-thickness="70" font-family="TaameyFrankCLM" ascent="1638" cap-height="1232"/>
<missing-glyph d="M910 1440v-1468h-910v1468h910zM772 126v1160h-634v-1160h634zM348 328q4 50 29 70t56 20q39 0 64 -26t25 -64q0 -34 -25 -62t-64 -28q-47 3 -66 32t-19 58zM398 501q0 74 18 133t45 98q26 38 52 74q27 36 45 81t18 98q0 63 -40 105t-98 42q-70 0 -108 -24t-38 -53 q0 -9 7 -18q1 -1 15 -14t22 -27t8 -31q0 -34 -24 -56t-57 -22q-35 1 -60 29t-25 83q0 105 73 163t192 58q125 0 199 -68t74 -182q0 -50 -18 -94t-36 -67q-20 -24 -54 -58q-2 -3 -22 -25t-36 -42q-14 -20 -32 -48q-18 -30 -30 -64q-10 -34 -10 -71v-27h-80v27z" horiz-adv-x="942"/>
<glyph glyph-name=".notdef" d="M910 1440v-1468h-910v1468h910zM772 126v1160h-634v-1160h634zM348 328q4 50 29 70t56 20q39 0 64 -26t25 -64q0 -34 -25 -62t-64 -28q-47 3 -66 32t-19 58zM398 501q0 74 18 133t45 98q26 38 52 74q27 36 45 81t18 98q0 63 -40 105t-98 42q-70 0 -108 -24t-38 -53 q0 -9 7 -18q1 -1 15 -14t22 -27t8 -31q0 -34 -24 -56t-57 -22q-35 1 -60 29t-25 83q0 105 73 163t192 58q125 0 199 -68t74 -182q0 -50 -18 -94t-36 -67q-20 -24 -54 -58q-2 -3 -22 -25t-36 -42q-14 -20 -32 -48q-18 -30 -30 -64q-10 -34 -10 -71v-27h-80v27z" horiz-adv-x="942"/>
<glyph glyph-name=".null"/>
<glyph glyph-name=".null"/>
<glyph glyph-name="nonmarkingreturn" horiz-adv-x="682"/>
<glyph glyph-name="space" horiz-adv-x="616" unicode=" "/>
<glyph glyph-name="exclam" horiz-adv-x="505" unicode="!" d="M304 553q-4 -20 -21 -41q-23 -27 -35 -27t-36 27q-18 25 -21 41l-90 413q-12 51 -12 116q0 176 160 176q157 0 157 -179q0 -58 -12 -113zM109 220l115 169q15 23 24 23q8 0 23 -23l115 -169q11 -16 11 -32t-11 -33l-115 -169q-15 -23 -24 -23q-8 0 -23 23l-115 169 q-13 19 -13 33q0 13 13 32z"/>
<glyph glyph-name="quotedbl" horiz-adv-x="802" unicode='&quot;' d="M471 645l31 420q0 9 8 36q16 48 60 74t109 26q111 0 111 -69q0 -11 -5 -29q-2 -8 -17 -38l-241 -420h-56zM84 645l29 420q3 18 8 36q15 48 59 74t108 26q111 0 111 -68q0 -17 -5 -32q-5 -17 -13 -36l-241 -420h-56z"/>
<glyph glyph-name="numbersign" horiz-adv-x="979" unicode="#" d="M432 701l-28 -184h146l27 184h-145zM230 375h-160v142h181l27 184h-164v142h183l51 352h154l-51 -352h146l50 352h153l-49 -352h159v-142h-180l-25 -184h160v-142h-181l-54 -375h-154l55 375h-147l-55 -375h-153z"/>
<glyph glyph-name="dollar" horiz-adv-x="979" unicode="$" d="M544 445v-370q45 4 74 17q50 20 78 64t28 98q0 70 -40 115t-123 71zM445 770v331q-163 -28 -163 -164q0 -117 141 -160zM544 739l45 -14q184 -56 266 -142t82 -223q-1 -160 -103 -259t-290 -121v-214h-99v210q-60 5 -93 12q-149 30 -229 100t-80 173q0 69 41 115t105 46 q59 0 99 -36t40 -89q0 -35 -16 -69t-44 -57q-12 -12 -12 -19q0 -28 56 -52t133 -30v406l-58 19q-163 50 -237 127t-73 197q0 109 56 197t154 136q57 29 158 41v174h99v-172q172 -11 273 -77t101 -167q0 -67 -42 -111t-106 -43q-54 0 -92 35t-38 86q0 45 29 92q10 13 10 26 q0 51 -135 65v-362z"/>
<glyph glyph-name="percent" horiz-adv-x="1421" unicode="%" d="M1219 556q-55 0 -113 -95q-99 -161 -99 -234q1 -31 21 -52t49 -21q79 0 149 96t71 202q-1 42 -23 73t-55 31zM1193 695q91 0 149 -60t59 -152q1 -77 -35 -167t-95 -164q-49 -60 -113 -94t-132 -34q-100 0 -166 60t-65 155q0 73 32 155t86 150q125 151 280 151zM440 1072 q-38 -12 -58 -34t-58 -87q-82 -142 -82 -209q0 -33 20 -53t50 -20q52 0 102 45t82 115t31 140q0 30 -8 52q-47 17 -79 51zM1171 1232l-707 -1232h-147l564 988q-58 -19 -151 -19q-62 0 -99 9q0 -74 -33 -159t-88 -150q-109 -131 -254 -131q-98 0 -162 62t-65 156 q0 88 52 192t129 170q106 90 220 90q52 0 90 -19t71 -63q67 -32 157 -32q95 0 162 32t123 106h138z"/>
<glyph glyph-name="ampersand" horiz-adv-x="1454" unicode="&amp;" d="M678 792q22 10 27 12q131 66 131 201q0 71 -38 117t-95 47q-51 0 -85 -37t-34 -91q0 -47 21 -103t73 -146zM452 609q-95 -59 -95 -169q0 -72 39 -148q87 -178 242 -178q59 0 113 38q-193 235 -299 457zM1360 696v-92q-91 -2 -134 -32t-93 -128q-60 -109 -107 -173 q84 -112 174 -112q88 0 118 143l85 -19q-10 -87 -51 -157q-49 -81 -111 -117t-152 -36q-156 0 -270 114q-160 -114 -360 -114q-198 0 -300 107q-92 97 -92 225q0 95 52 177t151 141q57 35 141 72q-37 77 -51 131t-15 114q0 63 27 125t73 104q99 89 268 89q139 0 225 -68 t86 -176q0 -56 -26 -106t-71 -87q-41 -33 -83 -55t-119 -54q65 -112 137 -220t102 -140q82 99 82 169q0 43 -36 62t-116 21v92h466z"/>
<glyph glyph-name="quotesingle" horiz-adv-x="416" unicode="&apos;" d="M84 645l30 420q0 6 9 36q15 48 58 74t107 26q112 0 112 -67q0 -15 -6 -33q-8 -28 -13 -36l-241 -420h-56z"/>
<glyph glyph-name="parenleft" horiz-adv-x="663" unicode="(" d="M577 -116v-85q-94 49 -158 101t-124 129q-172 218 -172 500q0 299 198 531q57 66 113 109t143 89v-86q-69 -48 -107 -96t-67 -124q-67 -169 -67 -425q0 -278 80 -457q30 -62 64 -102t97 -84z"/>
<glyph glyph-name="parenright" horiz-adv-x="663" unicode=")" d="M85 1172v86q93 -48 157 -101t125 -130q172 -218 172 -500q0 -298 -198 -530q-57 -66 -113 -109t-143 -89v85q69 48 107 96t67 124q67 169 67 425q0 278 -80 457q-30 62 -64 102t-97 84z"/>
<glyph glyph-name="asterisk" horiz-adv-x="853" unicode="*" d="M408 845l-27 -17q-35 -22 -55 -42t-55 -71q-40 -60 -95 -60q-32 -1 -56 23t-24 56q0 28 15 50t41 33q27 11 94 14q58 4 112 34l28 17l-28 16q-40 22 -64 28t-89 9q-49 4 -79 30t-30 66q0 32 24 55t57 23q39 0 69 -27q14 -14 48 -65q40 -56 87 -82l27 -15v32q0 42 -7 66 t-37 86q-18 33 -18 63q0 37 24 64t58 27q36 0 60 -27t24 -65q0 -18 -5 -34t-29 -65q-27 -53 -27 -115v-32l27 15q38 23 55 41t54 74q39 59 96 59q33 -1 57 -23t23 -55q0 -56 -56 -84q-15 -7 -94 -15q-57 -3 -113 -34l-27 -16l27 -15q40 -22 64 -28t88 -10q50 -5 80 -31 t31 -66q-1 -32 -23 -54t-54 -23q-34 -1 -56 17t-65 77q-36 50 -87 79l-27 17v-33q1 -42 7 -66t35 -86q17 -31 17 -61q0 -38 -24 -65t-58 -27q-34 1 -58 27t-24 63q0 19 5 33t30 68q27 53 27 114v33z"/>
<glyph glyph-name="plus" horiz-adv-x="1034" unicode="+" d="M420 333h-333v196h333v333h196v-333h331v-196h-331v-333h-196v333z"/>
<glyph glyph-name="comma" horiz-adv-x="474" unicode="," d="M77 157q-15 19 -15 31t15 30l135 166q17 21 27 21t27 -21l130 -166q14 -20 14 -32q0 -11 -9 -29l-237 -399q-18 -28 -41 -28q-13 0 -22 10t-9 27q0 12 2 18l58 235q8 37 -9 55z"/>
<glyph glyph-name="hyphen" horiz-adv-x="665" unicode="-" d="M611 602l-48 -194q-3 -14 -9 -20t-23 -6h-451q-24 0 -28 7q-1 3 -1 7q0 7 4 20l49 195q2 14 8 20t23 6h450q25 1 29 -7q1 -3 1 -8q0 -7 -4 -20z"/>
<glyph glyph-name="period" horiz-adv-x="474" unicode="." d="M77 218l135 166q17 21 27 21t27 -21l135 -166q13 -16 13 -31t-13 -30l-135 -166q-17 -21 -27 -21t-27 21l-135 166q-15 19 -15 31t15 30z"/>
<glyph glyph-name="slash" horiz-adv-x="474" unicode="/" d="M389 1258h126l-428 -1284h-126z"/>
<glyph glyph-name="zero" horiz-adv-x="979" unicode="0" d="M488 1120q-90 0 -119 -105q-11 -43 -20 -169t-9 -254q0 -150 10 -275t25 -167q31 -85 113 -85q89 0 118 104q11 44 20 168t9 252q0 155 -10 279t-26 166q-30 86 -111 86zM490 1208q173 0 295 -148q147 -183 147 -476q0 -260 -127 -434t-315 -174q-126 0 -228 80t-159 220 q-57 141 -57 316t57 316q57 140 159 220t228 80z"/>
<glyph glyph-name="one" horiz-adv-x="979" unicode="1" d="M633 1208v-962q-1 -82 1 -100t11 -28q19 -26 138 -26h55v-92h-681v92h55q120 0 141 26q9 10 11 28t1 100v606v39t-2 30q-2 19 -2 25q-1 6 -7 17t-8 13t-14 8t-19 6t-27 3q-20 2 -32 2h-41h-71v96q150 1 250 29t181 88h60z"/>
<glyph glyph-name="two" horiz-adv-x="979" unicode="2" d="M814 454h92l-39 -461q-71 7 -104 7h-642q-27 0 -89 -7v80q64 93 132 173t211 230q136 145 186 237t50 198q1 95 -49 147t-139 53q-65 0 -121 -36t-56 -77q0 -19 27 -32q59 -28 85 -64t26 -90q0 -67 -39 -106t-106 -39q-77 0 -123 54t-46 143q0 146 118 245t293 99 q180 0 300 -92t120 -229q0 -125 -92 -247q-35 -46 -97 -92t-243 -164q-85 -56 -170 -128h329q82 2 98 4t30 10q20 13 39 99z"/>
<glyph glyph-name="three" horiz-adv-x="979" unicode="3" d="M597 628q118 -16 181 -51q59 -35 93 -101t34 -147q1 -83 -35 -155t-95 -113q-122 -85 -321 -85q-184 0 -298 80t-115 210q0 72 43 117t111 45q64 0 106 -40t42 -101q-1 -35 -13 -59t-50 -61q-17 -14 -17 -30q1 -27 47 -49t100 -23q94 0 146 71t52 199q0 242 -159 242 q-3 1 -13 -1t-30 -4t-42 -5h-28q-27 0 -44 18t-17 46q0 27 16 42t45 15q27 0 70 -10q49 -9 60 -9q60 1 96 65t35 174q-1 100 -45 156t-125 56q-49 0 -89 -20t-41 -45q0 -9 12 -21q68 -64 68 -128q-1 -60 -39 -98t-99 -37q-67 1 -111 45t-44 111q0 49 24 99t66 87 q109 95 297 95q181 0 292 -83t111 -219q0 -98 -59 -166t-172 -100z"/>
<glyph glyph-name="four" horiz-adv-x="979" unicode="4" d="M493 423v427l-336 -427h336zM761 423h171v-114h-171v-63q-1 -83 1 -101t11 -29q22 -24 123 -24h19v-92h-582v92h19q109 0 129 24q9 11 11 29t1 101v63h-461v126l622 773h117q-10 -180 -10 -259v-526z"/>
<glyph glyph-name="five" horiz-adv-x="979" unicode="5" d="M268 940l-26 -220q86 38 136 52t110 13q184 1 304 -109t121 -277q-1 -187 -131 -305t-340 -118q-177 0 -283 77t-106 205q0 78 45 126t119 48q65 0 105 -38t40 -102q0 -43 -21 -71t-71 -52q-21 -13 -21 -24q1 -27 47 -49t103 -23q103 -1 157 81t53 237q0 278 -193 278 q-112 0 -189 -65q3 -15 3 -27q0 -28 -20 -48t-50 -20q-27 0 -45 18t-18 45q1 20 9 34t36 43q33 445 39 559q140 -29 333 -29q213 0 309 24q17 5 27 5q14 0 14 -20q0 -28 -17 -68t-41 -74q-48 -63 -132 -97t-191 -34q-97 0 -215 25z"/>
<glyph glyph-name="six" horiz-adv-x="979" unicode="6" d="M505 601h-6q-46 1 -81 -31t-49 -85q-14 -61 -14 -154q0 -131 38 -203t107 -72q68 0 104 79t36 227q0 234 -135 239zM345 616q55 62 111 88t138 25q151 0 247 -97t96 -251q0 -177 -123 -291t-311 -114q-209 0 -337 155q-117 145 -117 391q0 301 147 492q147 194 388 194 q147 0 234 -64t87 -175q0 -69 -43 -111t-116 -42q-66 0 -108 36t-42 95q0 56 34 101q13 16 13 32q-1 18 -21 29t-52 11q-87 0 -143 -96t-74 -278q-8 -85 -8 -130z"/>
<glyph glyph-name="seven" horiz-adv-x="979" unicode="7" d="M932 1208v-71q-134 -283 -190 -431t-76 -260q-20 -114 -21 -280q0 -92 -44 -141t-125 -49q-72 0 -114 46t-43 121q0 99 91 277q26 48 216 343l116 174q-64 -1 -118 -3t-80 -3t-27 -1q-23 0 -57 1t-76 3t-61 3h-31q-44 1 -62 -29t-42 -143l-17 -77l-94 10l58 510 q213 -24 408 -24q237 0 389 24z"/>
<glyph glyph-name="eight" horiz-adv-x="979" unicode="8" d="M374 493q-60 -49 -83 -95t-23 -115q0 -102 59 -160t163 -58q100 1 165 57t65 143q0 65 -34 103t-114 67q-63 20 -198 58zM601 744l3 4q32 29 52 77t20 100q0 89 -50 142t-136 53q-80 0 -132 -47t-53 -117q0 -56 36 -104t94 -70q52 -20 157 -45q3 2 5 5zM688 701 q124 -50 184 -132t60 -202q0 -175 -128 -283t-333 -108q-193 0 -309 82t-116 220q0 154 131 222q27 14 105 39q-198 106 -198 306q0 165 118 264t317 99q165 0 267 -73t103 -191q0 -124 -104 -195q-31 -22 -97 -48z"/>
<glyph glyph-name="nine" horiz-adv-x="979" unicode="9" d="M483 1120q-145 0 -145 -282q0 -125 29 -188q15 -32 47 -52t67 -21q65 1 103 67t39 179q0 135 -38 220q-15 37 -42 57t-60 20zM630 561q-54 -60 -112 -86t-137 -26q-146 -1 -242 99t-96 251q1 177 121 293t305 116q107 0 199 -46t156 -133q106 -143 106 -370 q0 -283 -130 -476q-66 -101 -170 -154t-236 -53q-145 0 -231 60t-86 159q-1 74 45 122t117 48q63 0 103 -38t40 -100q0 -29 -6 -45t-28 -52q-10 -14 -10 -31q0 -34 58 -34q202 0 230 363q4 55 4 133z"/>
<glyph glyph-name="colon" horiz-adv-x="474" unicode=":" d="M77 218l135 166q17 21 27 21t27 -21l135 -166q13 -16 13 -31t-13 -30l-135 -166q-17 -21 -27 -21t-27 21l-135 166q-15 19 -15 31t15 30zM77 795l135 164q17 21 27 21t27 -21l135 -164q14 -19 14 -33q0 -13 -14 -32l-135 -163q-17 -21 -27 -21t-27 21l-135 163 q-15 21 -15 33q0 13 15 32z"/>
<glyph glyph-name="semicolon" horiz-adv-x="474" unicode=";" d="M77 795l135 164q17 21 27 21t27 -21l135 -164q14 -19 14 -33q0 -13 -14 -32l-135 -163q-17 -21 -27 -21t-27 21l-135 163q-15 21 -15 33q0 13 15 32zM77 157q-15 19 -15 31t15 30l135 166q17 21 27 21t27 -21l130 -166q14 -20 14 -32q0 -11 -9 -29l-237 -399 q-18 -28 -41 -28q-13 0 -22 10t-9 27q0 12 2 18l58 235q8 37 -9 55z"/>
<glyph glyph-name="less" horiz-adv-x="1034" unicode="&lt;" d="M952 689l-559 -257l559 -261v-214l-868 396v154l868 396v-214z"/>
<glyph glyph-name="equal" horiz-adv-x="1034" unicode="=" d="M87 509v196h860v-196h-860zM87 157v196h860v-196h-860z"/>
<glyph glyph-name="greater" horiz-adv-x="1034" unicode="&gt;" d="M82 689v214l869 -396v-154l-869 -396v214l560 261z"/>
<glyph glyph-name="question" horiz-adv-x="853" unicode="?" d="M413 741q53 57 76 111t23 121q0 78 -36 130t-85 52q-11 0 -22 -3q-33 -9 -33 -44q0 -11 6 -57t6 -82q0 -60 -41 -98t-106 -38q-70 0 -116 45t-46 114q-1 118 107 192t277 74q179 0 284 -82t105 -222q0 -119 -92 -206q-40 -36 -102 -76t-114 -78q-52 -40 -86 -89 q-14 -17 -20 -17t-17 15l-40 65q-11 20 -6 40q12 59 78 133zM256 220l114 169q15 23 24 23t24 -23l114 -169q11 -16 11 -32t-11 -33l-114 -169q-15 -23 -24 -23t-24 23l-114 169q-13 21 -13 33q0 11 13 32z"/>
<glyph glyph-name="at" horiz-adv-x="1274" unicode="@" d="M693 889q-79 0 -147 -124q-45 -79 -71 -167t-26 -161q1 -49 21 -75t57 -26q84 0 144 142q35 82 69 192t33 142q1 31 -23 54t-57 23zM1099 324h118q-34 -82 -109 -157q-192 -193 -448 -193q-127 0 -242 50q-116 50 -198 137q-82 85 -130 205t-49 252q0 175 83 322 q82 146 226 232t314 86q155 0 286 -70q130 -70 206 -194q76 -122 76 -267q0 -121 -58 -231t-154 -176t-201 -67q-59 0 -95 26t-36 69q0 9 3 27q-68 -128 -193 -128q-96 -1 -160 73t-65 182q0 82 31 170t85 161q51 69 121 107t147 38q55 0 91 -20t68 -69l20 60h178l-157 -492 q-12 -45 -12 -63q0 -37 41 -37q48 0 109 51q128 107 128 307q0 191 -130 315t-331 124q-220 0 -366 -151t-146 -378q0 -151 68 -277t185 -198q118 -72 261 -71q138 0 250 63t185 182z"/>
<glyph glyph-name="A" horiz-adv-x="1295" unicode="A" d="M563 894l-172 -408h338zM599 1258h130l438 -1058q27 -66 57 -86t104 -22v-92h-599v92l29 2q57 0 78 9t21 32t-21 70l-65 167h-425l-27 -65q-27 -60 -27 -97q0 -59 39 -86t132 -32v-92h-494v92q76 8 130 66t113 195z"/>
<glyph glyph-name="B" horiz-adv-x="1327" unicode="B" d="M514 585v-384q0 -61 5 -75q14 -34 99 -34h51q120 0 181 51q36 31 58 84t22 114q0 66 -25 120t-69 83q-36 23 -80 32t-125 9h-117zM514 679h83q80 -1 128 11t82 40q84 66 84 193q0 105 -59 161t-172 56h-51q-50 0 -75 -22q-12 -10 -16 -25t-4 -52v-362zM29 1232h659 q154 0 230 -14t147 -54q63 -34 99 -98t36 -136q0 -77 -40 -137t-117 -97q-59 -27 -179 -47q118 -16 198 -53q94 -42 144 -112t50 -161q0 -87 -50 -161t-131 -111q-65 -27 -143 -39t-212 -12h-691v92h26q119 0 140 26q9 10 11 28t1 100v740q1 83 -1 101t-11 29 q-21 24 -140 24h-26v92z"/>
<glyph glyph-name="C" horiz-adv-x="1327" unicode="C" d="M1191 1251l17 -488l-90 -10q-58 213 -154 315t-237 101q-157 -1 -238 -137t-81 -401q0 -281 84 -416t257 -135q147 0 245 97t134 275l106 -25q-49 -229 -182 -341t-359 -112q-151 0 -263 46t-200 142q-162 180 -162 439q0 285 182 471t463 186q93 0 161 -20t152 -69 l92 82h73z"/>
<glyph glyph-name="D" horiz-adv-x="1421" unicode="D" d="M620 92h35q85 0 157 31t110 85q42 58 67 173t25 252q0 255 -87 381t-265 126h-42q-62 0 -82 -20t-21 -82v-835q0 -67 20 -89t83 -22zM210 246v740q0 82 -2 100t-10 28q-21 26 -140 26h-26v92h608q181 0 287 -20t182 -72q120 -78 182 -208t62 -302q-1 -176 -61 -312 t-174 -214q-79 -56 -188 -80t-270 -24h-628v92h26q119 0 140 26q8 10 10 28t2 100z"/>
<glyph glyph-name="E" horiz-adv-x="1295" unicode="E" d="M1172 1232l11 -444h-89q-43 146 -99 226q-44 60 -119 93t-169 33h-48q-103 0 -130 -37q-9 -15 -13 -36t-4 -74v-309h29q100 0 161 62t75 181h92v-579h-92q-14 118 -75 180t-161 63h-29v-379q0 -42 6 -62t21 -34q15 -16 39 -20t88 -4h51q155 0 250 88t149 279h91l-21 -459 h-1159v92h26q119 0 140 26q9 10 11 28t1 100v740q1 82 -1 100t-11 28q-21 26 -140 26h-26v92h1145z"/>
<glyph glyph-name="F" horiz-adv-x="1232" unicode="F" d="M1167 1232l11 -444h-89q-43 150 -99 226q-44 60 -120 93t-169 33h-32q-103 0 -130 -37q-9 -15 -13 -36t-4 -74v-309h29q101 0 161 62t75 181h92v-579h-92q-15 118 -75 180t-161 63h-29v-345q0 -82 2 -100t10 -28q21 -26 142 -26h44v-92h-682v92h25q119 0 140 26 q9 10 11 28t1 100v740q1 82 -1 100t-11 28q-21 26 -140 26h-25v92h1129z"/>
<glyph glyph-name="G" horiz-adv-x="1421" unicode="G" d="M1227 1251l15 -490h-90q-42 194 -148 301t-258 107q-76 0 -140 -34t-101 -94q-97 -157 -97 -433q0 -247 70 -398q32 -69 93 -108t139 -39q114 1 184 73t69 192v24q-1 35 -1 53q0 17 -7 35t-14 24t-29 11t-42 5t-63 1h-19v92h606v-92q-72 -1 -100 -6t-40 -18 q-8 -10 -10 -28t-2 -101v-354h-90l-84 169q-62 -65 -119 -99q-126 -70 -287 -70q-265 0 -430 173t-165 450q0 275 169 454q190 207 489 207q93 0 165 -20t161 -72l101 85h75z"/>
<glyph glyph-name="H" horiz-adv-x="1484" unicode="H" d="M964 579h-445v-333q-1 -82 1 -100t11 -28q21 -26 141 -26h26v-92h-664v92h26q119 0 140 26q8 10 10 28t2 100v739q0 83 -2 101t-10 28q-21 26 -140 26h-26v92h664v-92h-26q-120 0 -141 -26q-9 -10 -11 -28t-1 -101v-304h445v304q0 83 -2 101t-10 28q-21 26 -140 26h-25 v92h664v-92h-26q-121 0 -142 -26q-9 -10 -11 -28t-1 -101v-739q-1 -82 1 -100t11 -28q21 -26 142 -26h26v-92h-664v92h25q119 0 140 26q8 10 10 28t2 100v333z"/>
<glyph glyph-name="I" horiz-adv-x="757" unicode="I" d="M225 246v740q1 82 -1 100t-11 28q-21 26 -140 26h-25v92h664v-92h-26q-121 0 -142 -26q-8 -10 -10 -28t-2 -100v-740q0 -82 2 -100t10 -28q21 -26 142 -26h26v-92h-664v92h25q119 0 140 26q9 10 11 28t1 100z"/>
<glyph glyph-name="J" horiz-adv-x="1105" unicode="J" d="M911 986v-508q-1 -152 -35 -244t-115 -155q-131 -105 -341 -105q-192 0 -302 90t-111 247q-1 110 59 181t152 71q76 0 126 -49t50 -125q0 -69 -44 -115t-113 -45q-16 0 -41 5q-14 3 -20 3q-14 0 -24 -9t-9 -23q0 -50 61 -88t141 -38q65 0 123 27t90 73q26 38 36 92 t10 147v568q0 82 -2 100t-10 28q-21 26 -140 26h-25v92h664v-92h-26q-121 0 -142 -26q-9 -10 -11 -28t-1 -100z"/>
<glyph glyph-name="K" horiz-adv-x="1390" unicode="K" d="M654 577l-144 -150v-181q0 -82 2 -100t10 -28q21 -26 142 -26h25v-92h-663v92h25q119 0 140 26q9 10 11 28t1 100v740q1 82 -1 100t-11 28q-21 26 -140 26h-25v92h663v-92h-25q-121 0 -142 -26q-8 -10 -10 -28t-2 -100v-399l377 399q57 63 57 94q0 60 -128 60h-41v92h575 v-92q-85 -4 -160 -48t-186 -153l-142 -149l355 -566q59 -92 83 -110t96 -22v-92h-621v92h22q116 0 116 39q0 21 -20 55z"/>
<glyph glyph-name="L" horiz-adv-x="1232" unicode="L" d="M1106 459h90l-20 -459h-1144v92h26q119 0 140 26q8 10 10 28t2 101v739q0 82 -2 100t-10 28q-21 26 -140 26h-26v92h676v-92h-37q-121 0 -142 -26q-9 -10 -11 -28t-1 -100v-774q-1 -42 5 -62t22 -34q16 -16 40 -20t87 -4h36q181 0 288 128q65 79 111 239z"/>
<glyph glyph-name="M" horiz-adv-x="1674" unicode="M" d="M577 1232l264 -734l250 734h556v-92h-19q-120 0 -141 -26q-9 -10 -11 -28t-1 -100v-740q-1 -82 1 -100t11 -28q21 -26 141 -26h19v-92h-652v92h19q120 0 141 26q9 10 11 28t1 100v851l-377 -1097h-89l-387 1080v-710q0 -114 8 -158t36 -74q40 -43 144 -46v-92h-487v92 q100 3 140 46q27 28 36 74t9 158v616q0 82 -2 100t-10 28q-21 26 -142 26h-19v92h550z"/>
<glyph glyph-name="N" horiz-adv-x="1421" unicode="N" d="M461 1232l659 -771v401q0 112 -9 158t-36 74q-40 43 -140 46v92h487v-92q-104 -3 -144 -46q-28 -30 -36 -74t-8 -158v-874h-114l-794 944v-562q0 -114 8 -158t36 -72q39 -42 144 -46v-94h-487v94q101 4 140 46q27 30 36 74t9 156v673q-66 94 -181 97v92h430z"/>
<glyph glyph-name="O" horiz-adv-x="1421" unicode="O" d="M713 1169q-77 0 -129 -29t-89 -92q-87 -146 -87 -418q0 -270 87 -435q71 -132 218 -132q145 -1 223 137t78 397q0 283 -87 441q-74 131 -214 131zM712 1258q247 0 414 -145q107 -91 168 -229t61 -285q0 -149 -59 -275t-170 -216q-170 -134 -423 -134q-183 0 -328 80 t-227 222t-81 321q1 150 61 287t167 229q166 145 417 145z"/>
<glyph glyph-name="P" horiz-adv-x="1295" unicode="P" d="M526 623h99q165 1 233 61t67 207q1 127 -57 187t-180 60h-68q-58 0 -76 -20t-18 -82v-413zM526 529v-283q0 -83 2 -101t10 -29q21 -24 141 -24h38v-92h-676v92h26q119 0 140 24q7 10 9 24t2 65v41v739v41q0 52 -2 65t-9 23q-21 24 -140 24h-26v94h678q128 0 211 -14 t152 -46q82 -38 127 -112t45 -171q0 -360 -537 -360h-191z"/>
<glyph glyph-name="Q" horiz-adv-x="1421" unicode="Q" d="M809 90q5 63 5 81q0 111 -40 169t-114 58q-66 0 -108 -48t-42 -125q0 -73 52 -117t139 -45q54 0 108 27zM964 299q43 115 43 332q0 224 -67 378q-69 160 -233 160q-149 0 -225 -132t-76 -390q0 -215 36 -324q27 71 61 104q70 68 185 68q64 0 124 -27t101 -74 q26 -32 51 -95zM806 -43v26q-53 -9 -108 -9q-285 0 -469 209q-164 184 -164 437q0 178 84 324t232 230t329 84q176 0 322 -85t231 -231t85 -322q0 -164 -77 -310t-213 -235q47 -143 76 -190t69 -47q41 0 59 30t25 101h92v-13q1 -123 -81 -200t-213 -77q-133 1 -206 73 t-73 205z"/>
<glyph glyph-name="R" horiz-adv-x="1390" unicode="R" d="M519 686h94q170 0 234 49t64 180q1 117 -55 171t-175 54h-41q-81 0 -101 -18t-20 -91v-345zM519 592v-345q-1 -83 1 -101t11 -28q21 -24 141 -24h45v-94h-683v94h26q119 0 140 24q8 10 10 28t2 101v739q0 83 -2 101t-10 29q-21 24 -140 24h-26v92h729q239 0 336 -61 q138 -90 138 -248q0 -83 -43 -150t-121 -107q-60 -28 -177 -50q111 -36 165 -100t74 -180l12 -65q1 -11 3 -21t3 -16t1 -10q11 -69 20 -81q17 -25 50 -25q75 0 78 162h92v-21q0 -137 -76 -211t-214 -74q-111 0 -181 52t-92 151q-10 54 -24 214q-5 71 -13 99t-28 51 q-46 51 -152 51h-95z"/>
<glyph glyph-name="S" horiz-adv-x="1138" unicode="S" d="M1004 1244l22 -442h-91q-153 367 -420 367q-101 -1 -165 -51t-65 -128q0 -106 116 -147q43 -15 174 -41l82 -19q223 -49 323 -145t100 -257q0 -179 -126 -293t-324 -114q-199 0 -350 115l-106 -101h-77l-8 483h85q71 -192 191 -300t265 -108q110 -1 178 55t68 145 q0 95 -76 136q-52 28 -184 52l-106 20q-201 37 -311 143t-110 263q1 169 123 275t319 106q171 0 307 -92l89 78h77z"/>
<glyph glyph-name="T" horiz-adv-x="1232" unicode="T" d="M1181 1232l26 -462h-91q-19 102 -42 164t-59 109q-79 100 -184 100q-37 0 -49 -13t-12 -57v-827q0 -82 2 -100t10 -28q21 -26 141 -26h38v-92h-690v92h38q121 0 142 26q9 10 11 28t1 100v827q0 43 -12 57t-50 13q-117 0 -198 -121q-58 -85 -87 -252h-90l25 462h1130z"/>
<glyph glyph-name="U" horiz-adv-x="1421" unicode="U" d="M510 986v-546q0 -185 57 -254q73 -84 218 -84q216 0 290 163q29 63 29 254v343q0 114 -8 158t-36 74q-40 43 -140 46v92h486v-92q-103 -3 -143 -46q-27 -28 -35 -74t-9 -158v-343q0 -149 -13 -223t-49 -132q-63 -98 -167 -144t-266 -46q-180 0 -302 50t-175 147 q-24 45 -34 106t-10 168v541q1 82 -1 100t-11 28q-21 26 -140 26h-25v92h663v-92h-25q-121 0 -142 -26q-8 -10 -10 -28t-2 -100z"/>
<glyph glyph-name="V" horiz-adv-x="1295" unicode="V" d="M732 352l243 607q15 39 15 65q0 67 -60 97q-33 19 -106 19v92h504v-92q-155 -15 -236 -217l-391 -949h-150l-414 1048q-29 74 -61 96t-107 22v92h618v-92h-36q-57 0 -81 -10t-25 -33q0 -13 16 -56z"/>
<glyph glyph-name="W" horiz-adv-x="1674" unicode="W" d="M1213 440l149 487q22 71 22 104q0 31 -16 56t-42 38q-27 12 -95 15v92h430v-92q-77 -15 -113 -59t-72 -170l-297 -937h-124l-214 695l-225 -695h-128l-348 1067q-20 61 -44 80t-82 19h-4v92h529v-92q-60 -2 -80 -11t-20 -32q0 -20 13 -58l198 -611l137 429l-62 193 q-19 56 -39 72t-70 18v92h505v-92q-60 -4 -80 -13t-20 -33q0 -17 10 -46z"/>
<glyph glyph-name="X" horiz-adv-x="1232" unicode="X" d="M736 705l302 -440q80 -115 114 -143t102 -30v-92h-614v92q64 2 88 10t25 31q0 30 -23 58l-186 266l-150 -191q-34 -42 -34 -85q0 -45 43 -66t141 -23v-92h-564v92q74 2 122 32t123 122l251 309l-350 498q-36 51 -63 67t-83 20v92h611v-92q-75 -2 -96 -10t-21 -31 q0 -19 18 -44l179 -258l119 147q58 68 58 109q0 87 -164 87v92h526v-92q-67 -4 -117 -34t-108 -97z"/>
<glyph glyph-name="Y" horiz-adv-x="1232" unicode="Y" d="M717 676l170 304q24 46 24 78q0 38 -34 60t-90 22h-36v92h503v-92q-72 -4 -126 -42t-102 -117l-256 -438v-297q0 -82 2 -100t10 -28q21 -26 141 -26h38v-92h-690v92h38q121 0 142 26q9 10 11 28t1 100v275l-349 558q-24 37 -50 49t-84 12v92h614v-92h-27q-96 0 -96 -37 q0 -20 21 -53z"/>
<glyph glyph-name="Z" horiz-adv-x="1138" unicode="Z" d="M1082 1232v-94l-684 -1044h152q91 0 136 7t85 27q82 40 140 130t81 213h90l-27 -471h-1014v99l684 1039h-126q-136 0 -208 -30t-128 -108q-51 -69 -92 -198h-87l20 430h978z"/>
<glyph glyph-name="bracketleft" horiz-adv-x="663" unicode="[" d="M579 1232v-85h-226v-1246h226v-85h-436v1416h436z"/>
<glyph glyph-name="backslash" horiz-adv-x="1034" unicode="\" d="M212 1258l735 -1258h-126l-736 1258h127z"/>
<glyph glyph-name="bracketright" horiz-adv-x="663" unicode="]" d="M53 -184v85h225v1246h-225v85h435v-1416h-435z"/>
<glyph glyph-name="asciicircum" horiz-adv-x="1034" unicode="^" d="M945 543h-203l-223 426l-227 -426h-203l356 689h146z"/>
<glyph glyph-name="underscore" horiz-adv-x="853" unicode="_" d="M0 -99h853v-154h-853v154z"/>
<glyph glyph-name="grave" horiz-adv-x="568" unicode="`" d="M425 930h-109l-251 149q-62 36 -62 88q1 36 29 61t69 25q42 0 82 -31q10 -7 49 -56z"/>
<glyph glyph-name="a" horiz-adv-x="1042" unicode="a" d="M613 401l-91 -20q-92 -23 -134 -63t-42 -108q0 -56 30 -88t80 -32q72 0 114 58t43 157v96zM881 543v-301q0 -75 9 -99t37 -24q14 0 32 12q19 12 34 12q26 0 26 -27q1 -54 -57 -98t-131 -44q-65 0 -112 32t-69 90q-68 -66 -142 -94t-184 -28q-124 0 -194 52t-69 148 q1 76 45 130t138 92q90 36 312 85q23 3 57 12v89q0 90 -32 126t-108 36q-51 0 -89 -16t-38 -39q0 -9 16 -29q24 -32 24 -64q0 -47 -40 -79t-100 -32q-58 1 -98 37t-40 91q0 100 106 160t283 60q205 0 303 -79q45 -36 63 -82t18 -129z"/>
<glyph glyph-name="b" horiz-adv-x="1105" unicode="b" d="M589 705q-181 0 -181 -343q0 -145 44 -222t128 -77q169 0 169 335q0 307 -160 307zM410 1258v-553q53 67 116 97t148 31q162 -1 266 -117t104 -298q0 -196 -121 -320t-315 -124q-96 0 -166 33t-130 106l-111 -139h-83q24 133 24 378v634v65t-6 43q-4 21 -10 29t-20 14 t-29 7t-45 1h-32v87z"/>
<glyph glyph-name="c" horiz-adv-x="948" unicode="c" d="M811 302l88 -29q-38 -116 -102 -183q-56 -60 -123 -88t-162 -28q-206 0 -332 115t-127 302q-1 193 137 317t351 125q155 1 247 -63t93 -169q0 -65 -42 -105t-112 -40q-62 0 -101 34t-39 90q0 24 7 40t29 44q19 24 19 32q0 20 -27 34t-64 14q-95 0 -149 -85t-54 -237 q0 -158 58 -245t161 -87q53 0 101 23t78 64q35 45 65 125z"/>
<glyph glyph-name="d" horiz-adv-x="1138" unicode="d" d="M531 717q-81 1 -127 -85t-46 -238q0 -146 44 -225t125 -79q79 0 129 87t49 227q1 142 -47 228t-127 85zM969 1258v-1050q0 -65 21 -85q10 -9 22 -11t58 -1h46v-92l-399 -19v123q-102 -149 -280 -149q-166 0 -270 116t-104 301q1 187 113 315t276 127q154 0 249 -116v269 q-1 43 -1 65q0 21 -4 43t-10 29q-5 7 -20 14q-16 7 -30 7t-44 1h-54v87z"/>
<glyph glyph-name="e" horiz-adv-x="979" unicode="e" d="M352 483h256q26 0 36 12t10 43q0 102 -34 154t-101 52q-77 0 -122 -70t-45 -191zM922 389h-572q3 -132 43 -196q68 -103 189 -103q83 0 144 45t112 145l84 -34q-111 -272 -407 -272q-198 0 -322 105q-64 55 -101 141t-37 176q0 85 32 165t90 140q129 132 337 132 q188 0 298 -113t110 -304v-27z"/>
<glyph glyph-name="f" horiz-adv-x="663" unicode="f" d="M654 807v-102h-214v-459v-80q0 -51 24 -66t104 -15h31v-85h-563v85h7q83 0 106 15t23 66v80v459h-148v102h148v22q0 190 102 306t270 116q106 0 177 -53t71 -133q0 -60 -39 -100t-98 -40q-54 0 -91 34t-37 84q0 23 12 49t31 41q9 9 9 16q0 13 -28 13q-25 0 -51 -20 t-39 -48t-17 -66t-4 -123v-98h214z"/>
<glyph glyph-name="g" horiz-adv-x="1042" unicode="g" d="M560 -73h-224q-63 -28 -63 -84q1 -47 55 -73t152 -26q261 0 261 104q0 39 -26 56q-21 15 -49 19t-106 4zM495 744q-131 0 -131 -188q0 -87 27 -141q27 -62 102 -62q59 0 93 51t34 142q0 198 -125 198zM449 166h118q177 0 254 -26q64 -20 103 -74t39 -127 q-1 -137 -129 -211t-366 -73q-417 0 -417 168q-1 60 47 99t134 52q-74 20 -114 62t-41 97q0 131 198 167q-188 66 -188 241q0 127 114 209t289 83q127 0 229 -50q56 71 108 103t110 32q56 0 91 -30t35 -81q-1 -45 -31 -77t-75 -32q-35 0 -63 24t-29 53v7q0 8 -8 8 q-30 0 -63 -46q56 -46 79 -90t23 -104q0 -78 -40 -141t-115 -97q-86 -41 -243 -41h-30q-74 0 -102 -12t-28 -44q0 -29 22 -39t89 -10z"/>
<glyph glyph-name="h" horiz-adv-x="1169" unicode="h" d="M437 1258v-584q53 82 123 120t167 39q139 0 210 -82q65 -69 65 -220v-285v-79q0 -52 23 -66t105 -14h7v-87h-521v87q76 1 97 15t21 64v80v261q0 167 -121 167q-47 0 -89 -28t-61 -73q-26 -56 -26 -162v-165v-79q1 -52 21 -66t95 -14v-87h-521v87h7q83 0 107 14t23 65v80 v734q-1 50 -1 70t-5 44t-9 30t-20 14t-29 7h-45h-33v87z"/>
<glyph glyph-name="i" horiz-adv-x="631" unicode="i" d="M311 1258q61 0 105 -44t45 -106q0 -64 -45 -108t-109 -44q-60 0 -104 45t-44 107q1 62 45 106t107 44zM449 807v-561v-80q1 -50 23 -64t100 -15h10v-87h-534v87h7q81 1 103 15t23 65v79v302q-1 43 -1 65q0 21 -4 43t-10 30t-20 14t-30 7t-44 1h-24v87z"/>
<glyph glyph-name="j" horiz-adv-x="600" unicode="j" d="M457 807v-621q0 -134 -13 -214t-46 -144q-40 -79 -122 -126t-177 -47q-105 1 -172 49t-67 122q0 56 38 92t95 36q49 0 80 -32t31 -82q0 -53 -49 -86q14 -19 44 -19q90 0 90 169v657q0 55 -2 81t-15 43q-14 17 -32 20t-60 3h-54v87zM314 1258q62 0 106 -44t44 -106 q0 -64 -44 -108t-109 -44q-61 0 -105 46t-44 106q0 62 44 106t108 44z"/>
<glyph glyph-name="k" horiz-adv-x="1138" unicode="k" d="M430 1258v-838l212 184q42 37 42 68q0 48 -102 48h-21v87h502v-87h-39q-48 0 -90 -18t-94 -62l-132 -109l268 -335q57 -73 81 -91t69 -18v-87h-522v87h17q67 0 67 34q0 26 -22 53l-157 190l-79 -70v-48v-79q0 -51 21 -65t95 -15v-87h-520v87h6q82 0 106 14t24 65v80v740 v65q0 21 -6 43q-4 22 -9 29t-20 14t-29 7t-45 1h-33v87z"/>
<glyph glyph-name="l" horiz-adv-x="600" unicode="l" d="M437 1258v-1012v-80q-1 -32 5 -46t21 -21q21 -12 90 -12h12v-87h-533v87h7q83 0 107 14t23 65v80v740q-1 43 -1 65q0 21 -4 43t-10 29q-5 7 -20 14q-16 7 -30 7t-44 1h-33v87z"/>
<glyph glyph-name="m" horiz-adv-x="1643" unicode="m" d="M423 807v-133q100 159 273 159q86 0 150 -41t91 -113q60 82 123 118t145 36q114 1 191 -71t77 -177v-339v-80q0 -50 23 -64t105 -15h7v-87h-502v87q65 1 82 15t17 64v80v276q-1 80 -23 116t-71 36q-71 0 -113 -54t-42 -146v-228v-80q0 -50 17 -64t82 -15v-87h-464v87 q65 1 81 15t16 65v79v269q0 85 -22 122t-72 37q-70 0 -112 -54t-43 -146v-228v-80q0 -50 17 -64t82 -15v-87h-504v87h9q82 0 105 14t23 66v79v302q-1 43 -1 65q0 21 -4 43t-10 30t-20 14t-30 7t-45 1h-27v87z"/>
<glyph glyph-name="n" horiz-adv-x="1169" unicode="n" d="M425 807v-150q63 95 133 135t171 41q140 0 211 -82q65 -69 65 -220v-285v-79q0 -52 23 -66t105 -14h7v-87h-520v87q75 0 96 14t21 65v80v261q0 83 -32 125t-92 42q-45 0 -87 -28t-62 -73q-27 -55 -27 -162v-165v-80q0 -50 21 -64t97 -15v-87h-521v87h7q82 0 105 14t23 66 v79v297q-1 45 -1 68t-4 45t-10 30q-5 8 -20 14q-16 8 -30 8h-44h-26v87z"/>
<glyph glyph-name="o" horiz-adv-x="1042" unicode="o" d="M522 744q-174 0 -174 -341q0 -340 173 -340q82 0 127 88t45 250q0 147 -34 242q-17 45 -55 73t-82 28zM526 833q194 0 328 -126t134 -308q0 -183 -134 -304t-335 -121q-202 0 -334 122t-132 307t135 307t338 123z"/>
<glyph glyph-name="p" horiz-adv-x="1138" unicode="p" d="M625 705q-93 1 -143 -81t-50 -233q0 -145 46 -223t133 -78q81 0 127 82t45 224q-1 150 -41 230t-117 79zM433 807v-109q58 73 119 104t148 31q164 1 272 -115t107 -293q1 -191 -115 -321t-288 -130q-142 0 -243 111v-184v-80q-1 -51 23 -65t107 -15h19v-86h-551v86h7 q82 1 105 15t23 65v80v642q-1 47 -1 69t-5 45q-6 23 -10 29t-20 14t-29 8h-45h-25v87z"/>
<glyph glyph-name="q" horiz-adv-x="1105" unicode="q" d="M526 744q-85 0 -129 -86t-44 -255q0 -153 42 -233t124 -80t129 92t47 250q0 129 -29 203q-20 49 -58 79t-82 30zM899 831h84q-26 -206 -26 -367v-563v-80q0 -51 23 -65t105 -15h7v-86h-551v86h19q83 1 106 15t23 65v80v198q-107 -125 -262 -125q-74 0 -147 32t-118 84 q-48 52 -76 136t-28 170q0 188 124 312t311 125q97 0 168 -33t129 -105z"/>
<glyph glyph-name="r" horiz-adv-x="885" unicode="r" d="M411 807v-206q90 232 284 232q81 0 134 -49t53 -124q0 -62 -42 -104t-104 -42q-56 0 -92 36t-36 90q0 39 29 80q-43 -12 -73 -38t-57 -73q-32 -55 -52 -147t-20 -182v-34v-79q0 -52 23 -66t105 -14h38v-87h-570v87h7q82 0 105 14t23 66v79v297v68t-6 45q-5 22 -10 30 t-20 14q-16 6 -30 8h-44h-25v87z"/>
<glyph glyph-name="s" horiz-adv-x="853" unicode="s" d="M749 816l7 -270h-80q-63 106 -127 152t-146 46q-63 0 -103 -28t-41 -71q-1 -33 21 -51t85 -33l154 -37q92 -24 131 -40t72 -45q73 -65 73 -174q0 -127 -96 -209t-247 -82q-141 0 -240 60l-67 -31h-73l-7 296h77q62 -122 137 -179t173 -57q67 -1 107 27t40 74q1 38 -27 62 t-92 37l-125 27q-81 18 -127 39t-85 58q-71 68 -71 169q0 120 93 198t236 79q118 0 212 -55l63 38h73z"/>
<glyph glyph-name="t" horiz-adv-x="727" unicode="t" d="M650 807v-102h-222v-439q0 -86 14 -116t50 -31q51 -1 79 49t28 140v9h90q2 -17 2 -39q0 -56 -18 -112t-50 -98q-71 -94 -220 -94q-151 0 -207 94q-22 36 -29 80t-7 149v408h-121v89q242 28 282 351h107v-338h222z"/>
<glyph glyph-name="u" horiz-adv-x="1169" unicode="u" d="M997 807v-583v-40q0 -46 17 -60t77 -13h47v-92l-397 -19v140q-75 -90 -143 -128t-159 -38q-87 0 -153 38t-100 109q-18 35 -22 72t-5 133v217q-1 47 -1 69t-5 45t-9 29t-20 14t-30 8h-45h-27v87l405 12v-491q1 -97 29 -140t92 -43q48 1 90 27t62 70q29 57 29 176v137 q-1 45 -1 68t-4 45t-10 30q-5 8 -20 14q-16 8 -30 8h-44h-28v87z"/>
<glyph glyph-name="v" horiz-adv-x="1042" unicode="v" d="M609 239l125 314q31 75 31 102q-1 35 -31 51t-101 16v85h388v-85h-7q-51 0 -85 -32t-71 -118l-262 -596h-145l-314 655q-27 57 -48 73t-69 18v85h482v-85q-49 0 -69 -8t-20 -31q0 -19 14 -45z"/>
<glyph glyph-name="w" horiz-adv-x="1517" unicode="w" d="M1096 263l119 290q24 58 24 89q0 36 -32 57t-86 21h-12v87h386v-87q-59 -4 -91 -34t-69 -111l-268 -599h-128l-183 449l-195 -449h-129l-278 649q-24 53 -48 73t-74 22v87h471v-87q-51 -2 -67 -10t-16 -31q0 -8 12 -39l148 -377l123 290l-43 102q-17 41 -37 53t-67 12v87 h477v-87h-12q-93 0 -93 -39q0 -14 11 -38z"/>
<glyph glyph-name="x" horiz-adv-x="1042" unicode="x" d="M631 464l236 -280q54 -63 80 -79t74 -18v-87h-536v87h12q68 0 68 39q0 18 -19 38l-101 121l-102 -101q-24 -24 -24 -49q-1 -22 21 -35t59 -13h23v-87h-400v87q38 1 72 19t80 60l207 196l-244 292q-33 40 -55 52t-60 14v87h505v-87h-18q-57 0 -57 -27q0 -16 19 -36 l97 -118l87 84q36 33 36 58q0 39 -68 39h-39v87h420v-87q-54 0 -98 -20t-97 -69z"/>
<glyph glyph-name="y" horiz-adv-x="1042" unicode="y" d="M613 270l141 312q16 36 16 70q0 32 -30 50t-85 18h-18v87h384v-87q-53 -2 -86 -32t-70 -108l-298 -643q-69 -151 -150 -220t-188 -69q-96 0 -154 43t-58 114q0 63 43 106t106 43q56 0 92 -32t36 -84q0 -34 -14 -58q-2 -2 -2 -5t5 -7t11 -4q36 0 74 35t71 100l39 74 l-350 679q-20 42 -38 54t-66 14v87h485v-87h-31q-60 0 -60 -36q0 -20 14 -46z"/>
<glyph glyph-name="z" horiz-adv-x="916" unicode="z" d="M845 807v-82l-461 -640h106q87 0 121 12t67 53q50 60 83 174h84l-17 -324h-768v75l464 647h-87q-87 0 -123 -9t-65 -39q-33 -34 -75 -174h-87l21 307h737z"/>
<glyph glyph-name="braceleft" horiz-adv-x="663" unicode="{" d="M143 486v75q54 13 78 29t38 50q9 22 11 47t3 101v188q1 85 15 134t47 76q23 20 69 33t93 13h88v-78q-57 -5 -79 -32t-23 -88v-95v-202q-1 -98 -37 -143t-137 -70q101 -25 137 -70t37 -143v-202q0 -110 2 -131t13 -41q13 -19 32 -29t55 -14v-78h-88q-47 0 -93 13t-69 33 q-33 27 -47 76t-15 134v187q0 87 -3 113t-17 50q-15 25 -37 38t-73 26z"/>
<glyph glyph-name="bar" horiz-adv-x="1034" unicode="|" d="M618 1232v-1232h-203v1232h203z"/>
<glyph glyph-name="braceright" horiz-adv-x="663" unicode="}" d="M495 561v-75q-53 -13 -77 -29t-36 -49q-9 -23 -11 -47t-2 -102v-187q-1 -85 -15 -134t-47 -76q-23 -20 -69 -33t-93 -13h-92v78q37 4 57 14t32 29q13 20 15 41t2 131v202q1 98 37 143t137 70q-101 25 -137 70t-37 143v202v95q1 60 -23 88t-83 32v78h92q47 0 93 -13 t69 -33q33 -27 47 -76t15 -134v-188q0 -86 3 -112t17 -50q15 -26 37 -40t69 -25z"/>
<glyph glyph-name="asciitilde" horiz-adv-x="1034" unicode="~" d="M230 288l-143 89q104 195 246 195q47 0 153 -40l91 -32q81 -32 112 -32t55 19t60 69l143 -90q-106 -193 -246 -193q-56 0 -153 39l-91 33q-81 32 -112 32q-29 0 -54 -19t-61 -70z"/>
<glyph glyph-name="dotnosp" unicode="̇"/>
<glyph glyph-name="dieresisnosp" unicode="̈"/>
<glyph glyph-name="ringnosp" unicode="̊"/>
<glyph glyph-name="cgj" unicode="͏"/>
<glyph glyph-name="atnah" unicode="֑"/>
<glyph glyph-name="segolta" unicode="֒"/>
<glyph glyph-name="shalshelet" unicode="֓"/>
<glyph glyph-name="zaqefqatan" unicode="֔"/>
<glyph glyph-name="zaqefgadol" unicode="֕"/>
<glyph glyph-name="tipeha" unicode="֖"/>
<glyph glyph-name="revia" unicode="֗"/>
<glyph glyph-name="zarqa" unicode="֘"/>
<glyph glyph-name="pashta" unicode="֙"/>
<glyph glyph-name="yetiv" unicode="֚"/>
<glyph glyph-name="tevir" unicode="֛"/>
<glyph glyph-name="gereshaccent" unicode="֜"/>
<glyph glyph-name="gereshmuqdam" unicode="֝"/>
<glyph glyph-name="gershayimaccent" unicode="֞"/>
<glyph glyph-name="qarneypara" unicode="֟"/>
<glyph glyph-name="telishagedola" unicode="֠"/>
<glyph glyph-name="pazer" unicode="֡"/>
<glyph glyph-name="atnahhafukh" unicode="֢"/>
<glyph glyph-name="munah" unicode="֣"/>
<glyph glyph-name="mahapakh" unicode="֤"/>
<glyph glyph-name="merkha" unicode="֥"/>
<glyph glyph-name="merkhakefula" unicode="֦"/>
<glyph glyph-name="darga" unicode="֧"/>
<glyph glyph-name="qadma" unicode="֨"/>
<glyph glyph-name="telishaqetana" unicode="֩"/>
<glyph glyph-name="yerahbenyomo" unicode="֪"/>
<glyph glyph-name="ole" unicode="֫"/>
<glyph glyph-name="iluy" unicode="֬"/>
<glyph glyph-name="dehi" unicode="֭"/>
<glyph glyph-name="tsinor" unicode="֮"/>
<glyph glyph-name="masoracircle" unicode="֯"/>
<glyph glyph-name="sheva" d="M0 -333q-44 0 -71 32t-27 77q0 47 28 78.5t70 31.5q44 0 71 -32t27 -78q0 -47 -28 -78t-70 -31zM0 -587q-44 0 -71 32t-27 77q0 47 28 78.5t70 31.5q44 0 71 -32t27 -78q0 -47 -28 -78t-70 -31z" unicode="ְ"/>
<glyph glyph-name="hatafsegol" d="M-234 -114q43 0 70 -32t27 -78t-28 -77.5t-69 -31.5q-43 0 -70 32t-27 77q0 47 27.5 78.5t69.5 31.5zM-116 -368q43 0 70 -32t27 -78q0 -47 -27.5 -78t-69.5 -31q-43 0 -70 32t-27 77q0 47 27.5 78.5t69.5 31.5zM0 -114q43 0 71 -32t28 -78t-28.5 -77.5t-70.5 -31.5 q-43 0 -69 32t-26 77q0 47 27 78.5t68 31.5zM234 -333q-43 0 -70 32t-27 77q0 47 28 78.5t69 31.5q43 0 70 -32t27 -78q0 -47 -27.5 -78t-69.5 -31zM234 -587q-43 0 -70 32t-27 77q0 47 28 78.5t69 31.5q43 0 70 -32t27 -78q0 -47 -27.5 -78t-69.5 -31z" unicode="ֱ"/>
<glyph glyph-name="hatafpatah" d="M197 -333q-43 0 -70 32t-27 77q0 47 27.5 78.5t69.5 31.5q44 0 70.5 -32t26.5 -78q0 -47 -27.5 -78t-69.5 -31zM197 -587q-43 0 -70 32t-27 77q0 47 27.5 78.5t69.5 31.5q44 0 70.5 -32t26.5 -78q0 -47 -27.5 -78t-69.5 -31zM58 -288h-352v149h352v-149z" unicode="ֲ"/>
<glyph glyph-name="hatafqamats" d="M196 -333q-42 0 -69 32t-27 77q0 47 27.5 78.5t68.5 31.5q44 0 71 -32t27 -78q0 -47 -28 -78t-70 -31zM196 -587q-42 0 -69 32t-27 77q0 47 27.5 78.5t68.5 31.5q44 0 71 -32t27 -78q0 -47 -28 -78t-70 -31zM-71 -288v-8q0 -41 12 -77l40 -99q-27 -71 -65 -109 q-22 -6 -36 -6t-34 6q-25 21 -37.5 43.5t-26.5 66.5l40 99q10 23 10 74v10h-126v149h351v-149h-128z" unicode="ֳ"/>
<glyph glyph-name="hiriq" d="M0 -333q-44 0 -71 32t-27 77q0 47 28 78.5t70 31.5q44 0 71 -32t27 -78q0 -47 -28 -78t-70 -31z" unicode="ִ"/>
<glyph glyph-name="tsere" d="M-10 -224q0 -47 -28 -78t-70 -31q-44 0 -71 32t-27 77q0 47 28 78.5t70 31.5q44 0 71 -32t27 -78zM206 -224q0 -47 -28 -78t-70 -31q-44 0 -71 32t-27 77q0 47 28 78.5t70 31.5q44 0 71 -32t27 -78z" unicode="ֵ"/>
<glyph glyph-name="segol" d="M-118 -114q44 0 71 -32t27 -78q0 -47 -28 -78t-70 -31q-44 0 -71 32t-27 77q0 47 28 78.5t70 31.5zM0 -358q44 0 71 -32t27 -78q0 -47 -28 -78t-70 -31q-44 0 -71 32t-27 77q0 47 28 78.5t70 31.5zM118 -114q44 0 71 -32t27 -78q0 -47 -28 -78t-70 -31q-44 0 -71 32 t-27 77q0 47 28 78.5t70 31.5z" unicode="ֶ"/>
<glyph glyph-name="patah" d="M177 -288h-354v149h354v-149z" unicode="ַ"/>
<glyph glyph-name="qamats" d="M48 -288v-10q0 -42 11 -75l40 -99q-16 -42 -28.5 -63.5t-37.5 -47.5q-20 -4 -33 -4t-35 6q-26 21 -37.5 43t-26.5 66l39 101q11 19 11 73v10h-127v149h352v-149h-128z" unicode="ָ"/>
<glyph glyph-name="holam" d="M-252 1167q-44 0 -71 32t-27 77q0 47 28 78.5t70 31.5q44 0 71 -32t27 -78q0 -47 -28 -78t-70 -31z" unicode="ֹ"/>
<glyph glyph-name="holamhaser" d="M-252 1167q-44 0 -71 32t-27 77q0 47 28 78.5t70 31.5q44 0 71 -32t27 -78q0 -47 -28 -78t-70 -31z" unicode="ֺ"/>
<glyph glyph-name="qubuts" d="M169 -604q-42 0 -69 31.5t-27 75.5t27 75.5t69 31.5t69 -31.5t27 -75.5q0 -46 -27.5 -76.5t-68.5 -30.5zM-158 -321q-42 0 -69 31.5t-27 75.5t27 75.5t69 31.5t69 -31.5t27 -75.5q0 -46 -27.5 -76.5t-68.5 -30.5zM6 -464q-42 0 -69 31.5t-27 75.5t27 75.5t69 31.5 t69 -31.5t27 -75.5q0 -46 -27.5 -76.5t-68.5 -30.5z" unicode="ֻ"/>
<glyph glyph-name="dagesh" d="M0 410q-44 0 -71 31.5t-27 77.5q0 47 28 78t70 31q44 0 71 -31.5t27 -77.5q0 -47 -28 -78t-70 -31z" unicode="ּ"/>
<glyph glyph-name="meteg" d="M64 -572h-128v445h128v-445z" unicode="ֽ"/>
<glyph glyph-name="makaf" horiz-adv-x="686" unicode="־" d="M106 802q-32 0 -32 35q0 17 25 112l27 106q11 25 34 25h430q14 0 23 -9t9 -25v-4l-29 -107q-4 -16 -8 -33q-5 -18 -7 -28t-4 -22t-5 -17q-3 -6 -5 -13t-4 -10q-2 -4 -7 -6t-9 -3t-10 -1h-428z"/>
<glyph glyph-name="rafe" d="M222 1169h-444v149h444v-149z" unicode="ֿ"/>
<glyph glyph-name="paseq" horiz-adv-x="644" unicode="׀" d="M347 -164h-140v1393h140v-1393z"/>
<glyph glyph-name="shindot" d="M0 1167q-44 0 -71 32t-27 77q0 47 28 78.5t70 31.5q44 0 71 -32t27 -78q0 -47 -28 -78t-70 -31z" unicode="ׁ"/>
<glyph glyph-name="sindot" d="M0 1167q-44 0 -71 32t-27 77q0 47 28 78.5t70 31.5q44 0 71 -32t27 -78q0 -47 -28 -78t-70 -31z" unicode="ׂ"/>
<glyph glyph-name="sofpasuq" horiz-adv-x="545" unicode="׃" d="M266 -18q-26 0 -74 32t-81 64l-34 33q0 17 6 37q74 131 99 171q13 31 35 31q7 0 11 -2t8 -7t7 -6l2 -5q38 -39 74 -67q36 -29 50 -37q15 -8 23 -23t8 -43q0 -4 -6 -9l-50 -80l-46 -83q-10 -6 -32 -6zM217 976q19 0 26 -5l2 2q28 -30 53 -53q26 -23 38 -32q12 -8 26 -18 t19 -13q19 -6 19 -13q0 -28 -6 -42l-50 -65l-46 -83q-11 -18 -32 -18q-32 0 -90 40t-89 71q-10 17 -10 45q67 119 105 178q15 6 35 6z"/>
<glyph glyph-name="upperdot" unicode="ׄ"/>
<glyph glyph-name="lowerdot" unicode="ׅ"/>
<glyph glyph-name="nunhapukha" horiz-adv-x="692" unicode="׆" d="M246 1132q12 -28 19 -40t33 -24t70 -13q15 0 49 2t53 2q39 0 67 -8l27 -6l-72 -267l-24 4q-42 4 -56 4q-54 0 -72 -16t-17 -42q-1 -44 11 -148t12 -154v-26t-1 -13l-17 -91l228 -1l82 -295h-470q-12 43 -12 130q0 46 31 182t31 234q0 38 -12 96t-13 93q0 24 4 47 q-82 30 -82 144q0 68 50 206h81z"/>
<glyph glyph-name="qamatsqatan" d="M49 -275v-10q0 -51 10 -88l40 -140q-16 -42 -28.5 -63.5t-37.5 -47.5q-20 -4 -33 -4t-35 6q-26 21 -37.5 43t-26.5 66l39 142q9 34 12 86v10h-127l-1 136h352l1 -136h-128z" unicode="ׇ"/>
<glyph glyph-name="alef" horiz-adv-x="1158" unicode="א" d="M932 1056q17 0 42 -10.5t52 -29.5t46 -53.5t19 -76.5q0 -85 -80 -186h-55q-9 30 -5 59q-75 -117 -75 -196q0 -62 46 -115l93 -102q85 -94 85 -192q0 -95 -87 -171h-65v27q0 61 -45 111l-472 482q-80 -44 -80 -109q0 -30 21 -62.5t51 -62.5t60 -61.5t51 -69.5t21 -76 q-3 -68 -48.5 -113.5t-92.5 -48.5h-7q-1 -21 -2 -21t-1 21h-217v73l20 5q40 11 40 41q0 19 -43.5 118.5t-43.5 149.5q0 151 194 267l-100 109q-83 92 -83 192q0 43 16.5 82.5t28.5 54.5t38 44h66v-28q0 -70 45 -121l383 -387q27 90 82 169q-152 41 -152 201q0 39 11 72.5 t21 50t30 43.5h70l6 -20q12 -34 39 -47t77 -13z"/>
<glyph glyph-name="bet" horiz-adv-x="1077" unicode="ב" d="M132 56q0 44 12.5 111.5t42.5 127.5h616q21 99 21 241q0 96 -10.5 156t-26.5 72q-25 18 -168 18h-257q-82 0 -130.5 47t-48.5 121q0 44 15 83.5t27 55.5t34 41h60l5 -20q14 -54 81 -54h167q93 0 157.5 -7.5t109.5 -27.5t71 -44.5t40.5 -70t18.5 -92t4 -120.5v-132 q0 -59 -18.5 -136.5t-44.5 -129.5l144 -1v-27q0 -158 -40 -268h-876q-6 27 -6 56z"/>
<glyph glyph-name="gimel" horiz-adv-x="720" unicode="ג" d="M703 131q0 -49 -12.5 -81t-37.5 -68h-57l-132 317l-122 -299l-266 -21l64 283q21 3 54 8t45.5 7t32.5 6.5t29.5 9.5t21 13t21.5 19q36 39 56 116t20 157q0 141 -52 171q-14 6 -36 11l-39 9q-35 8 -58 19.5t-35 23t-18 32.5t-7.5 35.5t-1.5 44.5v3q0 40 15.5 78.5 t27.5 54.5t35 43h63l4 -21q2 -12 2.5 -19.5t0.5 -10v-5.5v-7q7 -2 15 -3l73 -7q24 -2 45 -9.5t43.5 -24t35.5 -49t13 -78.5q0 -39 -8 -148t-8 -144q0 -48 27 -109.5t59.5 -112.5t59.5 -118.5t27 -125.5z"/>
<glyph glyph-name="dalet" horiz-adv-x="989" unicode="ד" d="M100 941q0 39 8 71t24.5 57t22.5 33t22 24h59l5 -20q13 -50 72 -50h469q82 0 117 -30.5t35 -106.5q0 -47 -11.5 -76t-27 -41t-40.5 -35.5t-43 -52.5q-31 -46 -31 -120q0 -51 11 -198.5t11 -203.5q0 -22 -2 -41t-12 -50.5t-27.5 -55t-53 -44.5t-83.5 -28h-21l-44 42 q1 1 7 8.5t8.5 11t7.5 13t7.5 17.5t4.5 21t2 27q0 66 -5 166.5t-5 143.5q0 241 127 357h-432q-85 0 -133.5 43t-48.5 118z"/>
<glyph glyph-name="he" horiz-adv-x="1181" unicode="ה" d="M196 943q0 104 73 179l4 4h60l5 -20q12 -50 66 -50h544q92 0 124.5 -34t32.5 -103v-46q0 -30 -11.5 -54.5t-25 -42.5t-25 -62.5t-11.5 -109.5q0 -61 23 -204t23 -208q0 -56 -16 -98t-35 -63t-50.5 -35.5t-44.5 -17t-36 -5.5l-37 48q31 54 31 102q0 40 -8 168t-8 170 q0 109 14.5 184.5t54.5 134.5h-571q-84 0 -130 44.5t-46 118.5zM471 474q-2 -1 -6 -2.5t-13.5 -11.5t-16.5 -25t-13 -45.5t-6 -69.5q0 -19 4 -97t4 -97q0 -46 -16.5 -78t-46 -48.5t-60 -23.5t-70.5 -10l-35 54l17 15q18 21 18 55q0 18 -3 93.5t-3 94.5q0 125 49.5 199 t131.5 74q25 0 65 -19v-58z"/>
<glyph glyph-name="vav" horiz-adv-x="539" unicode="ו" d="M153 1117q25 -5 59 -5q0 -1 2.5 -15.5t7 -20.5t23 -13t49.5 -7q69 0 111 -33t56 -81.5t14 -117.5v-717q0 -96 -93 -127l-52 16v667v4q0 59 -18 89q-26 0 -53 5q-75 21 -108 43q-77 54 -77 166q0 36 17 72.5t35 55.5t27 19z"/>
<glyph glyph-name="zain" horiz-adv-x="604" unicode="ז" d="M571 891q0 -95 -69 -178h-53l-4 21q-4 13 -24 25t-32 15q-12 -60 -12 -113q0 -75 31 -223t31 -217q0 -44 -8 -80t-20 -60t-30.5 -42.5t-33.5 -28.5t-36 -17.5t-31 -9.5t-25 -4l-43 47l16 23q27 38 27 90q0 45 -16 173t-16 177q0 159 60 296q-91 0 -140 51.5t-49 127.5 q0 44 12 81.5t24 56.5t33 45h63l4 -22q8 -37 43 -45q137 -29 242 -75q26 -16 41 -47.5t15 -66.5z"/>
<glyph glyph-name="het" horiz-adv-x="1175" unicode="ח" d="M220 451v34q0 187 93 295q-72 13 -97 54.5t-25 108.5q0 104 73 179l4 4h60l5 -20q4 -13 8.5 -21.5t21 -18.5t43.5 -10h538q79 0 117.5 -28t38.5 -105v-4q0 -52 -12 -89.5t-26.5 -57.5t-26.5 -63.5t-12 -104.5q0 -51 23.5 -199.5t23.5 -212.5q0 -56 -15.5 -98.5t-34 -63 t-49.5 -35t-44.5 -17t-36.5 -5.5l-37 49q1 1 5 8l6 10.5t6 11t6 14.5t4.5 16.5t3.5 21t1 24.5q0 42 -8 177t-8 179q0 111 12 172t52 124h-497q-30 -22 -42.5 -53t-12.5 -103q0 -59 20 -200t20 -206q0 -46 -8.5 -84t-20.5 -62t-32 -43t-34.5 -28t-37.5 -16t-31.5 -8.5 t-25.5 -3.5l-32 51q12 18 18 29t12 39.5t6 68.5q0 20 -7.5 128t-7.5 162z"/>
<glyph glyph-name="tet" horiz-adv-x="1125" unicode="ט" d="M253 786q-62 18 -90.5 60t-28.5 113q0 41 9 71t32 78h79q6 -52 82 -52q80 0 122.5 -27t42.5 -96q0 -21 -10 -79.5t-23 -93.5q-18 -19 -37 -19q-18 0 -34 22q-1 1 -22 17q-5 1 -12 0t-10 0q-21 -69 -21 -133q0 -84 23 -162.5t77 -189.5h427q37 81 49.5 150t12.5 185 q0 86 -37 118t-98 32h-20q-22 0 -38.5 -3t-37.5 -13t-38.5 -33.5t-30.5 -60.5l-9 -25l-95 21l6 26q16 67 31 116t41.5 104t57.5 90t78.5 58t105.5 23q62 0 105.5 -31.5t67 -91.5t33 -133t9.5 -169q0 -280 -131 -658h-637q0 69 -36 266.5t-36 292.5q0 111 41 227z"/>
<glyph glyph-name="yod" horiz-adv-x="509" unicode="י" d="M268 418l-62 72l24 18q48 37 65 74t17 101v36v3q0 26 -9.5 35t-51.5 9q-89 0 -137 54.5t-48 140.5q0 26 8 52.5t15.5 41.5t30.5 58h76h3q6 -53 66 -53l35 -4q56 0 105.5 -57.5t49.5 -140.5v-79q0 -104 -45.5 -207t-122.5 -144z"/>
<glyph glyph-name="finalkaf" horiz-adv-x="956" unicode="ך" d="M689 -273l5 1053h-416q-81 0 -125.5 44t-44.5 118q0 45 14.5 84.5t27.5 58t34 42.5h61l4 -21q10 -46 81 -46l416 -1q83 0 118.5 -37t35.5 -95v-30q0 -49 -27 -80l-32 -46q-11 -13 -11 -52v-8l31 -867q0 -4 0.5 -13t0.5 -12q0 -58 -17 -93.5t-40 -50.5t-67 -31l-44 22z "/>
<glyph glyph-name="kaf" horiz-adv-x="1052" unicode="כ" d="M982 538q0 -124 -13.5 -210.5t-45 -151.5t-86.5 -102.5t-135 -55.5t-194 -18h-383l55 295h440q120 0 167.5 47.5t47.5 176.5v10q0 143 -38 197.5t-156 54.5h-316q-80 0 -121.5 45.5t-41.5 119.5q0 44 15 83.5t27 55.5t34 41h60l5 -20q12 -47 74 -47h243 q175 0 268.5 -124.5t93.5 -396.5z"/>
<glyph glyph-name="lamed" horiz-adv-x="1011" unicode="ל" d="M82 1402q0 22 15 72t47 98h62l4 -24q0 -14 25 -24l38 -15q84 -35 84 -103v-2q0 -6 -48 -172l-14 -52q-13 -50 -13 -73q0 -25 13 -35q16 -14 85 -14h374q103 0 161 -49q58 -52 58 -229v-103q0 -135 -65 -204l-192 -203q-71 -67 -71 -126q0 -3 3.5 -26.5t3.5 -40.5 q0 -99 -109 -99q-50 0 -86 37t-36 91q0 32 13 62t46.5 66t57 58t76.5 67l162 144q54 55 54 140v58q0 20 -1 31t-8.5 21t-15 13.5t-30 6.5t-44.5 3.5t-66 0.5h-336q-87 0 -136 49.5t-49 130.5q0 90 38 201l29 85q8 20 5.5 29.5t-20.5 18.5l-55 27q-59 30 -59 84z"/>
<glyph glyph-name="finalmem" horiz-adv-x="1114" unicode="ם" d="M152 943q0 45 14 83.5t27 56t35 41.5h60l5 -20q11 -45 69 -45l364 -3q98 -1 142.5 -14.5t87.5 -53.5q76 -72 76 -296v-692h-860v538v4q0 39 14.5 72.5t53.5 82.5q31 43 105 83q-92 0 -142.5 45t-50.5 118zM687 780h-246l-85 -112q-39 -57 -39 -139l1 -234h573v206 q-1 154 -43 240q-13 26 -46.5 32.5t-114.5 6.5z"/>
<glyph glyph-name="mem" horiz-adv-x="1204" unicode="מ" d="M186 960q0 37 9 71.5t18.5 54t26.5 49.5h63l6 -20q13 -42 77 -48l92 -8q110 -15 110 -107q0 -16 -4.5 -45t-4.5 -36q0 -18 7 -26q138 79 150 203l3 27l29 -4q95 -15 165 -69t109 -135.5t57 -174t18 -199.5q0 -130 -38 -309l-38 -184h-556l71 295h408q13 59 13 201v2 q0 124 -54 203.5t-145 81.5h-6q-81 -2 -143.5 -40.5t-123.5 -120.5q-74 -108 -116.5 -246t-43.5 -349v-27h-165l-2 25q-4 44 -4 85q0 193 64 344t217 279q5 23 5 31q-10 2 -42.5 5t-67.5 8q-78 14 -121 67t-43 116z"/>
<glyph glyph-name="finalnun" horiz-adv-x="514" unicode="ן" d="M90 956q0 43 11.5 80t23.5 56t33 45h64l4 -23q5 -31 17.5 -44t35.5 -14h24q84 -5 122.5 -49t38.5 -131q-1 -30 -12.5 -57t-25 -50.5t-25 -87t-11.5 -157.5q0 -23 1 -35l32 -548q1 -15 1 -41q0 -58 -11 -103t-24 -70t-35 -43.5t-34 -24.5t-30 -13l-47 17v874 q1 47 18.5 89.5t34.5 73.5t17 49q0 16 -1 20q-5 3 -25.5 4.5t-44 2.5t-51 11t-49.5 27.5t-37 54t-15 87.5z"/>
<glyph glyph-name="nun" horiz-adv-x="669" unicode="נ" d="M398 1057l44 -5q40 -4 68.5 -17t42.5 -27t21 -37t8 -36.5t1 -36.5q0 -49 -18 -176.5t-18 -172.5q0 -97 31 -233.5t31 -182.5q0 -87 -11 -133h-5h-524l46 294l296 1v98v24q0 51 9.5 156t9.5 149v6q0 1 -1 8t-2.5 14.5t-4.5 13.5q-4 8 -11 11q-10 4 -28 4q-35 0 -64.5 8.5 t-58.5 27.5t-46 57t-18 91v4q0 105 69 165l8 8h61l4 -23q7 -33 8 -36q14 -21 52 -24z"/>
<glyph glyph-name="samekh" horiz-adv-x="1148" unicode="ס" d="M927 530q0 80 -14 130t-46.5 76t-74 35t-108.5 9h-309q-34 -61 -42 -104t-8 -121v-11q0 -150 64.5 -216t196.5 -66h102q239 0 239 268zM176 943q0 44 14.5 82.5t27.5 56.5t36 44h60l5 -20q15 -50 75 -50h278q98 0 168.5 -24.5t124.5 -82.5t80.5 -160t26.5 -251 q0 -240 -126.5 -401t-305.5 -161h-43q-105 0 -188 39.5t-132.5 106t-75 148t-25.5 171.5q0 105 25.5 181.5t77.5 157.5q-44 19 -73.5 70.5t-29.5 92.5z"/>
<glyph glyph-name="ayin" horiz-adv-x="1030" unicode="ע" d="M512 278q38 5 62.5 10t38.5 9.5t22 15t11 18t8 26t10 31.5q19 72 53 147t57 122.5t23 69.5q0 19 -17 28q-1 0 -18 5t-36 11.5t-43.5 21t-44 33.5t-32.5 51t-13 71q0 84 70 183h74l5 -21q7 -27 22 -39q15 -9 55.5 -17t74 -15.5t61 -37.5t27.5 -81q0 -40 -18 -88t-43 -99.5 t-50.5 -111.5t-43.5 -145.5t-18 -180.5q0 -35 -5.5 -68t-26.5 -75t-55.5 -72.5t-98.5 -51.5t-150 -21l-403 -44l46 271l268 30q0 49 -9 83t-23.5 52.5t-32 33l-35 29t-32 34t-23.5 56t-9 88.5q0 46 15 141q-74 19 -112.5 63t-38.5 104q0 55 13 94.5t38 88.5h65l6 -21 q11 -52 60 -58h46q68 0 114 -49.5t46 -108.5q0 -19 -3 -35.5t-6 -27t-11 -23t-12 -17.5t-15.5 -17t-14.5 -16h-58q0 -44 1.5 -66.5t11 -46.5t28.5 -35q120 -68 120 -176q0 -4 -0.5 -10t-0.5 -10v-136z"/>
<glyph glyph-name="finalpe" horiz-adv-x="996" unicode="ף" d="M520 428v-4q-1 -4 -1.5 -8.5t-2.5 -10.5t-5 -11.5t-9 -11.5t-13 -10.5t-18.5 -7t-24.5 -2.5q-14 0 -48.5 4.5t-49.5 4.5q-28 0 -50 -10t-30.5 -19t-20.5 -24h-64q-35 75 -40 121q-2 16 -2 32q0 162 106 314q-38 21 -57.5 63.5t-19.5 92.5q0 45 14.5 84.5t28 58t35.5 42.5 h60q11 -41 23 -53q18 -17 54 -17h215q70 0 121 -8.5t85.5 -29t55.5 -45t33.5 -67.5t17.5 -84t8 -106l20 -432q12 -268 12 -458q0 -47 -6 -77t-23.5 -49t-35 -28.5t-53.5 -23.5l-51 18v832q0 82 -6.5 136t-15 83t-28.5 43.5t-36.5 17t-48.5 2.5h-297q-52 -83 -52 -120 q0 -13 5.5 -22t20 -15t26 -9t36.5 -8q42 -6 71 -20t41 -31.5t16 -31t4 -27.5v-68z"/>
<glyph glyph-name="pe" horiz-adv-x="1022" unicode="פ" d="M491 523q0 -74 -62 -74q-11 0 -51 3.5t-49 3.5q-28 0 -49.5 -9t-30 -17t-21.5 -23h-63q-48 101 -48 178q0 74 18.5 125t65.5 97l-22 25q-18 18 -26 52.5t-8 61.5q0 45 15.5 85t27.5 55t34 40h60l5 -20q10 -47 74 -47h226q174 0 266 -124t92 -397q0 -333 -108 -435 q-107 -103 -363 -103h-364l71 295h386q54 0 88 3.5t68 16t52.5 36.5t30 64.5t11.5 100.5q0 61 -5.5 105.5t-18 73.5t-27 46.5t-39.5 26t-48 11t-59 2.5h-296q-46 -29 -46 -73q0 -21 26 -29.5t59 -9.5t68.5 -14.5t50.5 -41.5q9 -17 9 -38v-52z"/>
<glyph glyph-name="finaltsadi" horiz-adv-x="1100" unicode="ץ" d="M320 762q-94 0 -156.5 57.5t-62.5 153.5q0 84 50 160h77q11 -62 57 -70l64 -7q187 -14 187 -140q0 -49 -57 -181t-57 -180v-9l2 -32q168 153 340 259q-123 51 -123 200q0 85 57 160h87q5 -61 62 -70l65 -7h2q1 0 12 -2t16.5 -3.5t18 -4.5t19.5 -6.5t18.5 -9.5t18.5 -12.5 t15.5 -16t13 -20.5t8 -25.5t3.5 -31.5q0 -102 -74 -198h-53l-4 22q-11 0 -21 -5q-71 -41 -132 -84l-101 -91q-126 -114 -175.5 -201t-49.5 -163q0 -54 25 -177.5t25 -188.5q0 -32 -7 -60t-15.5 -46.5t-24.5 -34.5t-26.5 -24t-29 -16t-23.5 -10t-19 -6l-52 17l-21 817v4 q0 42 31 140t31 120q0 23 -21 23z"/>
<glyph glyph-name="tsadi" horiz-adv-x="1078" unicode="צ" d="M356 730q0 15 -1.5 21.5t-7 14.5t-18.5 11t-35 3q-84 0 -126 52.5t-42 132.5q0 44 12.5 75t40.5 74h77q12 -53 57 -56l35 -2q96 -6 128 -32.5t32 -109.5q0 -27 -9 -99t-9 -93q0 -67 53 -106l75 -54q61 135 132 224q-108 44 -108 179q0 27 8.5 53.5t17 41.5t31.5 52h92 q3 -23 17 -35.5t46 -16.5l55 -4q123 -9 123 -147q0 -99 -71 -188h-53l-4 22q-7 30 -12 33q-3 2 -12 2q-8 0 -32 -32.5t-48 -89.5t-24 -109v-3q0 -74 78 -135l146 -118l-65 -291h-735l51 295h440l-254 171q-81 55 -81 127v3v128v6z"/>
<glyph glyph-name="kof" horiz-adv-x="1107" unicode="ק" d="M256 -345l-52 13v880q0 101 87 176q22 11 76 13v-977q-2 -16 -6 -24.5t-29 -29t-76 -51.5zM166 943q0 45 14.5 84.5t27 57t34.5 41.5h61l4 -21q4 -13 8.5 -21.5t21 -18t42.5 -9.5h390q81 0 136 -19.5t85.5 -59t43 -89t12.5 -118.5v-93q0 -113 -26.5 -173t-91.5 -103 l-211 -125q-73 -33 -73 -111q0 -12 1 -18q6 -42 6 -59q0 -101 -115 -101q-51 0 -88 31.5t-37 77.5v2q0 29 3.5 53.5t13 46t16.5 37t24.5 32.5t27 26t34.5 24.5t35.5 21.5t41.5 22.5t42 22.5l187 108q66 41 66 128v68q0 55 -26 73.5t-119 18.5h-421q-81 0 -125.5 44.5 t-44.5 118.5z"/>
<glyph glyph-name="resh" horiz-adv-x="993" unicode="ר" d="M98 943q0 45 14.5 84.5t27 57t34.5 41.5h60l5 -20q13 -50 73 -50h202q138 0 221.5 -15t124.5 -53q77 -72 77 -297v-589q0 -26 -9 -47t-27 -36.5t-29.5 -23t-29.5 -16.5l-51 17v482q0 44 -0.5 67.5t-2 57t-5.5 50t-11 39.5t-17.5 33.5t-26 23.5t-36 18t-47.5 9t-61 4h-313 q-81 0 -127 45t-46 118z"/>
<glyph glyph-name="shin" horiz-adv-x="1402" unicode="ש" d="M712 1128q2 -51 39 -59l69 -13q70 -17 97 -56.5t27 -99.5v-6q0 -57 -82 -150l-39 1q1 8 -6 15q-7 9 -17 9q-67 -252 -186 -474h274q27 67 85 149.5t174 227.5q4 5 9.5 12t8 10.5t6 8t4.5 6.5t3 5t2.5 5t1.5 4t1 4.5v5v6.5q0 19 -18 32t-43.5 23.5t-51 24t-43.5 42 t-18 69.5q0 47 27.5 101t64.5 97h78q0 -2 1 -14.5t2.5 -22t7 -19.5t14.5 -13l56 -18q65 -23 87 -50t22 -75q0 -55 -28 -118t-73 -135.5t-94 -159t-98.5 -219.5t-78.5 -284h-659q-20 105 -50 221t-45.5 190t-15.5 145q0 128 28 223q-55 24 -83.5 72t-28.5 103q0 94 57 177h76 q10 -34 25 -47q22 -20 72 -28q61 -11 93.5 -50.5t32.5 -101.5q0 -95 -74 -178l-47 2l-4 22q-3 9 -16 17q-11 -59 -11 -173q0 -151 100 -298h42q64 109 104.5 213.5t96.5 289.5q-59 26 -90.5 71.5t-31.5 100.5q0 28 13.5 58.5t27 48.5t40.5 50h63z"/>
<glyph glyph-name="tav" horiz-adv-x="1227" unicode="ת" d="M494 299q29 -110 29 -147v-7l-8 -145h-363l52 295h120l-5 124v26q0 178 78 304l23 33q-81 2 -121 46.5t-40 117.5q0 19 3 38t7 33.5t10.5 29t12 24.5t13.5 20.5t12 15.5t10 11.5t7 7.5h63l6 -20q4 -13 9.5 -21.5t24 -17t48.5 -8.5q31 -2 92 -2q53 0 159 2q260 0 336 -70 q75 -71 75 -298v-563q0 -34 -9.5 -60.5t-28 -44t-30 -25t-31.5 -17.5l-51 19v502q0 163 -35.5 221.5t-128.5 58.5h-3l-301 -6l-25 -51q-37 -80 -37 -211q0 -116 27 -215z"/>
<glyph glyph-name="vavvav" horiz-adv-x="1058" unicode="װ" d="M153 1117q25 -5 59 -5q0 -1 2.5 -15.5t7 -20.5t23 -13t49.5 -7q69 0 111 -33t56 -81.5t14 -117.5v-717q0 -96 -93 -127l-52 16v667v4q0 59 -18 89q-26 0 -53 5q-75 21 -108 43q-77 54 -77 166q0 36 17 72.5t35 55.5t27 19zM671 1117q25 -5 59 -5q0 -1 2.5 -15.5t7 -20.5 t23 -13t49.5 -7q69 0 111 -33t56 -81.5t14 -117.5v-717q0 -96 -93 -127l-52 16v667v4q0 59 -18 89q-26 0 -53 5q-75 21 -108 43q-77 54 -77 166q0 36 17 72.5t35 55.5t27 19z"/>
<glyph glyph-name="vavyod" horiz-adv-x="1052" unicode="ױ" d="M665 1117q25 -5 59 -5q0 -1 2.5 -15.5t7 -20.5t23 -13t49.5 -7q69 0 111 -33t56 -81.5t14 -117.5v-717q0 -96 -93 -127l-52 16v667v4q0 59 -18 89q-26 0 -53 5q-75 21 -108 43q-77 54 -77 166q0 36 17 72.5t35 55.5t27 19zM268 418l-62 72l24 18q48 37 65 74t17 101v36v3 q0 26 -9.5 35t-51.5 9q-89 0 -137 54.5t-48 140.5q0 26 8 52.5t15.5 41.5t30.5 58h76h3q6 -53 66 -53l35 -4q56 0 105.5 -57.5t49.5 -140.5v-79q0 -104 -45.5 -207t-122.5 -144z"/>
<glyph glyph-name="yodyod" horiz-adv-x="1024" unicode="ײ" d="M268 418l-62 72l24 18q48 37 65 74t17 101v36v3q0 26 -9.5 35t-51.5 9q-89 0 -137 54.5t-48 140.5q0 26 8 52.5t15.5 41.5t30.5 58h76h3q6 -53 66 -53l35 -4q56 0 105.5 -57.5t49.5 -140.5v-79q0 -104 -45.5 -207t-122.5 -144zM780 418l-62 72l24 18q48 37 65 74t17 101 v36v3q0 26 -9.5 35t-51.5 9q-89 0 -137 54.5t-48 140.5q0 26 8 52.5t15.5 41.5t30.5 58h76h3q6 -53 66 -53l35 -4q56 0 105.5 -57.5t49.5 -140.5v-79q0 -104 -45.5 -207t-122.5 -144z"/>
<glyph glyph-name="geresh" horiz-adv-x="483" unicode="׳" d="M294 789l-101 -193h-86l9 312q1 66 17.5 111.5t42.5 66.5t51 29.5t54 8.5q49 0 77.5 -28t28.5 -82q0 -46 -93 -225z"/>
<glyph glyph-name="gershayim" horiz-adv-x="673" unicode="״" d="M264 783l-101 -193h-86l9 312q1 66 17.5 111.5t42.5 66.5t51 29.5t54 8.5q49 0 77.5 -28t28.5 -82q0 -46 -93 -225zM549 780l-101 -193h-86l9 312q1 66 17.5 111.5t42.5 66.5t51 29.5t54 8.5q49 0 77.5 -28t28.5 -82q0 -46 -93 -225z"/>
<glyph glyph-name="thinspace" horiz-adv-x="150" unicode=" "/>
<glyph glyph-name="hairspace" horiz-adv-x="40" unicode=" "/>
<glyph glyph-name="zerononjoin" d="M0 1512l105 107l108 -104l-108 -108l108 -108l-108 -104l-105 106l-109 -106l-104 106l107 106l-107 106l104 108z" unicode="‌"/>
<glyph glyph-name="zerojoin" d="M106 1489h-212v-93h-148v242h508v-242h-148v93z" unicode="‍"/>
<glyph glyph-name="lrm" d="M-82 1520l104 108l214 -214l-214 -214l-104 108l33 32h-187v149h186z" unicode="‎"/>
<glyph glyph-name="rlm" d="M82 1301l-104 -108l-214 214l214 214l104 -108l-33 -32h187v-149h-186z" unicode="‏"/>
<glyph glyph-name="quoteleft" horiz-adv-x="385" unicode="‘" d="M192 826q-68 0 -106 45t-38 119q0 107 55.5 191.5t171.5 177.5l20 17l60 -66l-20 -18q-60 -55 -83 -78q-35 -42 -44 -70q-4 -13 -4 -35q0 -12 2.5 -18t4.5 -6.5t7 -0.5l8 -1q7 -1 15 -3q30 -10 54.5 -42t24.5 -80q0 -55 -38 -93.5t-90 -38.5z"/>
<glyph glyph-name="quoteright" horiz-adv-x="384" unicode="’" d="M200 1366q68 0 106 -45t38 -119q0 -107 -55.5 -191.5t-171.5 -177.5l-20 -17l-60 66l20 18l83 80q35 42 44 68q4 13 4 35q0 12 -2.5 18t-4.5 6.5t-7 0.5q-11 1 -17 3q-35 8 -60 40.5t-25 80.5q0 56 38 95t90 39z"/>
<glyph glyph-name="quotesinglbase" horiz-adv-x="384" unicode="‚" d="M193 232q68 0 105.5 -45t37.5 -119q0 -107 -55.5 -191.5t-170.5 -177.5l-20 -17l-60 66l20 18l83 80q35 42 44 68q5 16 5 35q0 11 -3 16.5t-6 6t-8 0.5q-1 0 -5 0.5t-10.5 2t-13.5 4.5q-25 11 -47.5 42t-22.5 79q0 56 37.5 94t89.5 38z"/>
<glyph glyph-name="quotedblleft" horiz-adv-x="727" unicode="“" d="M184 826q-68 0 -106 45t-38 119q0 107 55.5 191.5t171.5 177.5l20 17l60 -66l-20 -18q-60 -55 -83 -78q-35 -42 -44 -70q-4 -13 -4 -35q0 -12 2.5 -18t4.5 -6.5t7 -0.5l8 -1q7 -1 15 -3q30 -10 54.5 -42t24.5 -80q0 -55 -38 -93.5t-90 -38.5zM506 826q-68 0 -106 45 t-38 119q0 107 55.5 191.5t171.5 177.5l20 17l60 -66l-20 -18q-60 -55 -83 -78q-35 -42 -44 -70q-4 -13 -4 -35q0 -12 2.5 -18t4.5 -6.5t7 -0.5l8 -1q7 -1 15 -3q30 -10 54.5 -42t24.5 -80q0 -55 -38 -93.5t-90 -38.5z"/>
<glyph glyph-name="quotedblright" horiz-adv-x="727" unicode="”" d="M200 1366q68 0 106 -45t38 -119q0 -107 -55.5 -191.5t-171.5 -177.5l-20 -17l-60 66l20 18l83 80q35 42 44 68q4 13 4 35q0 12 -2.5 18t-4.5 6.5t-7 0.5q-11 1 -17 3q-35 8 -60 40.5t-25 80.5q0 56 38 95t90 39zM523 1366q68 0 106 -45t38 -119q0 -107 -55.5 -191.5 t-171.5 -177.5l-20 -17l-60 66l20 18l83 80q35 42 44 68q4 13 4 35q0 12 -2.5 18t-4.5 6.5t-7 0.5q-11 1 -17 3q-35 8 -60 40.5t-25 80.5q0 56 38 95t90 39z"/>
<glyph glyph-name="quotedblbase" horiz-adv-x="727" unicode="„" d="M193 232q68 0 105.5 -45t37.5 -119q0 -107 -55.5 -191.5t-170.5 -177.5l-20 -17l-60 66l20 18l83 80q35 42 44 68q5 16 5 35q0 11 -3 16.5t-6 6t-8 0.5q-1 0 -5 0.5t-10.5 2t-13.5 4.5q-25 11 -47.5 42t-22.5 79q0 56 37.5 94t89.5 38zM516 232q68 0 105.5 -45t37.5 -119 q0 -107 -55.5 -191.5t-170.5 -177.5l-20 -17l-60 66l20 18l83 80q35 42 44 68q5 16 5 35q0 11 -3 16.5t-6 6t-8 0.5q-1 0 -5 0.5t-10.5 2t-13.5 4.5q-25 11 -47.5 42t-22.5 79q0 56 37.5 94t89.5 38z"/>
<glyph glyph-name="newshekel" horiz-adv-x="1024" unicode="₪" d="M288 780h186v-512q0 -48 10 -70t28 -34q16 -12 58 -24t94 -12h140v928h198v-1056h-352q-187 0 -273 66q-47 34 -66 72t-19 102zM735 296h-195v484v6q0 98 -34 124q-35 26 -138 26h-138v-936h-193v1056h347h44t42 1q134 0 187 -39q78 -60 78 -200v-5v-517z"/>
<glyph glyph-name="Euro" horiz-adv-x="1024" unicode="€" d="M599 1126q145 0 285 -73l14 -7v-284h-83v26q-9 116 -63 172t-154 56q-51 0 -92 -26t-66 -63t-44 -88t-27 -89t-14 -78h479l-34 -118h-454q-1 -4 -1 -12h451l-36 -116h-412q11 -160 72 -259t158 -99q50 0 90 12t72 38t53 50q20 24 52 68l15 21l70 -45l-15 -23 q-35 -55 -65 -93t-75 -74q-43 -38 -101 -57t-128 -19q-176 0 -280 128t-127 352h-93l34 116h52v12h-86l34 118h65q16 94 53 175q36 81 92 144t136 99t173 36z"/>
<glyph glyph-name="dottedcircle" horiz-adv-x="1150" unicode="◌" d="M423 218q43 -1 66.5 -30.5t23.5 -69.5t-24 -69t-66 -29q-43 2 -66 31.5t-23 69.5t23.5 68.5t65.5 28.5zM821 1034q43 -1 66.5 -30.5t23.5 -69.5t-24 -69t-66 -29q-43 2 -66 31.5t-23 69.5t23.5 68.5t65.5 28.5zM423 1034q43 -1 66.5 -30.5t23.5 -69.5t-24 -69t-66 -29 q-43 2 -66 31.5t-23 69.5t23.5 68.5t65.5 28.5zM275 392q43 -1 66.5 -30.5t23.5 -69.5t-23.5 -69t-66.5 -29q-43 2 -66 31.5t-23 69.5t23.5 68.5t65.5 28.5zM275 860q43 -1 66.5 -30.5t23.5 -69.5t-23.5 -69t-66.5 -29q-43 2 -66 31.5t-23 69.5t23.5 68.5t65.5 28.5z M969 392q43 -1 66.5 -30.5t23.5 -69.5t-23.5 -69t-66.5 -29q-43 2 -66 31.5t-23 69.5t23.5 68.5t65.5 28.5zM224 626q43 -1 66.5 -30.5t23.5 -69.5t-24 -69t-66 -29q-42 1 -65.5 31t-23.5 69q0 40 23.5 69t65.5 29zM622 1094q43 -1 66.5 -30.5t23.5 -69.5t-24 -69t-66 -29 q-42 1 -65.5 31t-23.5 69q0 40 23.5 69t65.5 29zM969 860q43 -1 66.5 -30.5t23.5 -69.5t-23.5 -69t-66.5 -29q-43 2 -66 31.5t-23 69.5t23.5 68.5t65.5 28.5zM1020 626q43 -1 66.5 -30.5t23.5 -69.5t-24 -69t-66 -29q-42 1 -65.5 31t-23.5 69q0 40 23.5 69t65.5 29zM821 218 q43 -1 66.5 -30.5t23.5 -69.5t-24 -69t-66 -29q-43 2 -66 31.5t-23 69.5t23.5 68.5t65.5 28.5zM622 158q43 -1 66.5 -30.5t23.5 -69.5t-24 -69t-66 -29q-42 1 -65.5 31t-23.5 69q0 40 23.5 69t65.5 29z"/>
<glyph glyph-name="yodhiriq" horiz-adv-x="509" unicode="יִ" d="M302 -339q-44 0 -71 32t-27 77q0 47 28 78.5t70 31.5q44 0 71 -32t27 -78q0 -47 -28 -78t-70 -31zM268 418l-62 72l24 18q48 37 65 74t17 101v36v3q0 26 -9.5 35t-51.5 9q-89 0 -137 54.5t-48 140.5q0 26 8 52.5t15.5 41.5t30.5 58h76h3q6 -53 66 -53l35 -4 q56 0 105.5 -57.5t49.5 -140.5v-79q0 -104 -45.5 -207t-122.5 -144z"/>
<glyph glyph-name="jsvarika" unicode="ﬞ"/>
<glyph glyph-name="yodyodpatah" horiz-adv-x="1029" unicode="ײַ" d="M921 258h-789v150h789v-150zM268 442l-62 70l24 18q49 37 65.5 73t16.5 98v36v3q0 17 -2.5 24.5t-16 13t-42.5 5.5q-89 0 -137 53.5t-48 137.5q0 9 1 18t2.5 16t5 16.5t5.5 15t8.5 17t9 16t11 19t11.5 19.5h79q6 -51 66 -51l35 -4q35 0 62 -6.5t55.5 -24.5t44.5 -58 t16 -100v-76q0 -251 -191 -339zM732 442l-69 70l27 18q51 37 68.5 73t17.5 98v36q0 19 -2.5 26.5t-16 13.5t-42.5 6q-103 0 -158.5 53.5t-55.5 137.5q0 24 8 47t17.5 38.5t34.5 52.5h91q7 -52 75 -52l35 -4q31 0 55 -6.5t49 -24.5t39 -58t14 -100v-76q0 -253 -168 -339z"/>
<glyph glyph-name="ayin.alt" horiz-adv-x="1030" unicode="ﬠ" d="M512 278q38 5 62.5 10t38.5 9.5t22 15t11 18t8 26t10 31.5q19 72 53 147t57 122.5t23 69.5q0 19 -17 28q-1 0 -18 5t-36 11.5t-43.5 21t-44 33.5t-32.5 51t-13 71q0 84 70 183h74l5 -21q7 -27 22 -39q15 -9 55.5 -17t74 -15.5t61 -37.5t27.5 -81q0 -40 -18 -88t-43 -99.5 t-50.5 -111.5t-43.5 -145.5t-18 -180.5q0 -35 -5.5 -68t-26.5 -75t-55.5 -72.5t-98.5 -51.5t-150 -21l-403 -44l46 271l268 30q0 49 -9 83t-23.5 52.5t-32 33l-35 29t-32 34t-23.5 56t-9 88.5q0 46 15 141q-74 19 -112.5 63t-38.5 104q0 55 13 94.5t38 88.5h65l6 -21 q11 -52 60 -58h46q68 0 114 -49.5t46 -108.5q0 -19 -3 -35.5t-6 -27t-11 -23t-12 -17.5t-15.5 -17t-14.5 -16h-58q0 -44 1.5 -66.5t11 -46.5t28.5 -35q120 -68 120 -176q0 -4 -0.5 -10t-0.5 -10v-136z"/>
<glyph glyph-name="alef.wide" horiz-adv-x="792" unicode="ﬡ" d="M1654 155q0 -94 -88 -173h-63l-2 25q-4 65 -41 109q-481 211 -954 509q-105 -64 -105 -133q0 -37 25 -86t55 -90t55 -94t25 -98q0 -38 -10 -64t-27.5 -38t-34 -17t-35.5 -5h-217v73l20 5q40 10 40 41q0 21 -46.5 123.5t-46.5 152.5q0 144 214 280l-113 92q-87 94 -87 194 q0 91 79 174h71q1 -4 2.5 -18.5t2.5 -20.5t3.5 -19t5.5 -21t8 -19t11.5 -21t14.5 -19q287 -349 894 -588q-22 69 -22 137q0 137 91 242q-67 22 -102 73t-35 120q0 64 56 138h77q14 -45 60 -56l86 -19q69 -16 100 -46.5t31 -86.5q0 -39 -24 -108q-43 -14 -116 -15 q-84 -129 -84 -216q0 -64 47 -117l93 -103q86 -94 86 -197z"/>
<glyph glyph-name="dalet.wide" horiz-adv-x="1648" unicode="ﬢ" d="M149 941q0 39 8 71t24.5 57t22.5 33t22 24h59l5 -20q12 -50 72 -50h1079q80 0 116 -30t36 -107q0 -47 -11.5 -76t-27 -41t-41 -35.5t-43.5 -52.5q-30 -48 -30 -120q0 -52 11 -199t11 -203q0 -62 -17.5 -106t-49 -66t-59 -31.5t-64.5 -15.5l-39 42q1 2 4.5 6.5t5.5 7.5 t5.5 8.5t5.5 10.5t4.5 12t4 14.5t2.5 17.5t1 21q0 66 -4.5 166.5t-4.5 143.5q0 123 24.5 209t85.5 148h-1062q-86 0 -121 43t-35 118z"/>
<glyph glyph-name="he.wide" horiz-adv-x="1791" unicode="ﬣ" d="M518 464q-2 -1 -5.5 -2.5t-13 -11.5t-16.5 -24t-13 -41.5t-6 -62.5q0 -20 4 -98t4 -98q0 -45 -16 -77t-46 -48.5t-60 -23.5t-70 -10l-34 54l15 15q18 21 18 54q0 41 -3 106.5t-3 81.5q0 116 47 189.5t135 73.5q25 0 63 -19v-58zM267 943q0 20 3 39t6.5 33t10.5 29t12 24 t13.5 20t12 15.5t11.5 13t9 9.5h60l4 -20q7 -24 21.5 -37t45.5 -13l1088 -3q91 0 124.5 -32.5t33.5 -104.5v-46q0 -30 -11.5 -54.5t-25.5 -42.5t-25.5 -62.5t-11.5 -108.5q0 -58 23 -200t23 -213q0 -56 -15.5 -97.5t-33.5 -62.5t-48.5 -35.5t-45 -17t-38.5 -6.5l-37 48 q31 51 31 102q0 40 -8 168t-8 170q0 106 15.5 182t55.5 137l-1134 3q-70 0 -115.5 37t-45.5 126z"/>
<glyph glyph-name="kaf.wide" horiz-adv-x="1598" unicode="ﬤ" d="M1533 538q0 -147 -19 -242.5t-68.5 -165t-138 -100t-226.5 -30.5h-910l103 296h927q112 0 156 46t44 174v7q0 144 -39.5 201t-152.5 57h-825q-78 0 -124.5 45.5t-46.5 119.5q0 44 15 83t26.5 54.5t34.5 42.5h61l5 -20q11 -50 73 -50h754q351 0 351 -518z"/>
<glyph glyph-name="lamed.wide" horiz-adv-x="1559" unicode="ﬥ" d="M130 1402q0 23 14 72t45 94h63l4 -24q0 -14 25 -24l38 -15q82 -34 82 -103q0 -3 -44 -170l-14 -52q-16 -38 -16 -65q0 -59 81 -59h878q102 0 162 -51q73 -68 73 -206v-106q0 -139 -65 -208l-191 -208q-66 -67 -66 -129q0 -4 3.5 -28.5t3.5 -41.5q0 -76 -62 -95 q-17 -5 -36 -5q-41 0 -71.5 24.5t-30.5 82.5q0 123 165 275l153 144q54 55 54 140v58q0 37 -10 52t-41.5 21t-109.5 6h-842q-86 0 -134.5 48t-48.5 128q0 90 38 201l29 85q8 20 5.5 29.5t-20.5 18.5l-55 27q-59 30 -59 84z"/>
<glyph glyph-name="finalmem.wide" horiz-adv-x="1726" unicode="ﬦ" d="M1283 780h-788l-89 -110q-39 -48 -39 -139l2 -235h1131v205q-1 105 -7 150t-22 78q-13 26 -68 38.5t-120 12.5zM202 945q0 45 14 83.5t27 56t35 41.5h60l5 -20q11 -47 69 -47h824q251 0 327 -71q77 -73 77 -296v-692h-1418v540q0 84 68 159l73 81h-13q-40 0 -68.5 11 t-43.5 26.5t-23.5 39.5t-10.5 43t-2 45z"/>
<glyph glyph-name="resh.wide" horiz-adv-x="1594" unicode="ﬧ" d="M144 943q0 45 14.5 84.5t27 57t34.5 41.5h60l5 -20q13 -50 73 -50l773 3h11q240 0 316 -71q77 -73 77 -297v-589q0 -26 -9 -47t-27 -36.5t-29.5 -23t-29.5 -16.5l-51 17v482q0 151 -14 200.5t-65 75.5q-52 27 -118 27h-876q-81 0 -126.5 44.5t-45.5 117.5z"/>
<glyph glyph-name="tav.wide" horiz-adv-x="1839" unicode="ﬨ" d="M373 450q0 184 79 300l23 30q-79 3 -120 48.5t-41 117.5q0 16 2 31t4.5 27.5t7 25t8.5 21.5t10.5 19t10.5 16t10.5 14t9 11t8.5 9l6 6h61l5 -20q12 -47 77 -47l851 1q251 0 326 -70q76 -72 76 -298v-563q0 -59 -27 -91.5t-73 -55.5l-50 18v502q0 199 -84 250 q-47 28 -145 28h-835l-30 -53q-37 -66 -37 -165q0 -96 43 -264q21 -84 21 -146v-7l-8 -145h-357l65 295h111q-8 149 -8 155z"/>
<glyph glyph-name="hebrewplussign" horiz-adv-x="1173" unicode="﬩" d="M1085 402h-914v142h383v430h149v-430h382v-142z"/>
<glyph glyph-name="shinshindot" horiz-adv-x="1402" unicode="שׁ" d="M1267 1163q-44 0 -71 32t-27 77q0 47 28 78.5t70 31.5q44 0 71 -32t27 -78q0 -47 -28 -78t-70 -31zM712 1128q2 -51 39 -59l69 -13q70 -17 97 -56.5t27 -99.5v-6q0 -57 -82 -150l-39 1q1 8 -6 15q-7 9 -17 9q-67 -252 -186 -474h274q27 67 85 149.5t174 227.5q4 5 9.5 12 t8 10.5t6 8t4.5 6.5t3 5t2.5 5t1.5 4t1 4.5v5v6.5q0 19 -18 32t-43.5 23.5t-51 24t-43.5 42t-18 69.5q0 47 27.5 101t64.5 97h78q0 -2 1 -14.5t2.5 -22t7 -19.5t14.5 -13l56 -18q65 -23 87 -50t22 -75q0 -55 -28 -118t-73 -135.5t-94 -159t-98.5 -219.5t-78.5 -284h-659 q-20 105 -50 221t-45.5 190t-15.5 145q0 128 28 223q-55 24 -83.5 72t-28.5 103q0 94 57 177h76q10 -34 25 -47q22 -20 72 -28q61 -11 93.5 -50.5t32.5 -101.5q0 -95 -74 -178l-47 2l-4 22q-3 9 -16 17q-11 -59 -11 -173q0 -151 100 -298h42q64 109 104.5 213.5t96.5 289.5 q-59 26 -90.5 71.5t-31.5 100.5q0 28 13.5 58.5t27 48.5t40.5 50h63z"/>
<glyph glyph-name="shinsindot" horiz-adv-x="1402" unicode="שׂ" d="M712 1128q2 -51 39 -59l69 -13q70 -17 97 -56.5t27 -99.5v-6q0 -57 -82 -150l-39 1q1 8 -6 15q-7 9 -17 9q-67 -252 -186 -474h274q27 67 85 149.5t174 227.5q4 5 9.5 12t8 10.5t6 8t4.5 6.5t3 5t2.5 5t1.5 4t1 4.5v5v6.5q0 19 -18 32t-43.5 23.5t-51 24t-43.5 42 t-18 69.5q0 47 27.5 101t64.5 97h78q0 -2 1 -14.5t2.5 -22t7 -19.5t14.5 -13l56 -18q65 -23 87 -50t22 -75q0 -55 -28 -118t-73 -135.5t-94 -159t-98.5 -219.5t-78.5 -284h-659q-20 105 -50 221t-45.5 190t-15.5 145q0 128 28 223q-55 24 -83.5 72t-28.5 103q0 94 57 177h76 q10 -34 25 -47q22 -20 72 -28q61 -11 93.5 -50.5t32.5 -101.5q0 -95 -74 -178l-47 2l-4 22q-3 9 -16 17q-11 -59 -11 -173q0 -151 100 -298h42q64 109 104.5 213.5t96.5 289.5q-59 26 -90.5 71.5t-31.5 100.5q0 28 13.5 58.5t27 48.5t40.5 50h63zM389 1167q-44 0 -71 32 t-27 77q0 47 28 78.5t70 31.5q44 0 71 -32t27 -78q0 -47 -28 -78t-70 -31z"/>
<glyph glyph-name="shindageshshindot" horiz-adv-x="1402" unicode="שּׁ" d="M1267 1163q-44 0 -71 32t-27 77q0 47 28 78.5t70 31.5q44 0 71 -32t27 -78q0 -47 -28 -78t-70 -31zM882 453.995q-35.1992 0 -56.7988 25.1992q-21.5996 25.2002 -21.5996 61.999q0 37.5996 22.3994 62.3994t55.999 24.7998q35.1992 0 56.7988 -25.2002 q21.5996 -25.1992 21.5996 -61.999q0 -37.5996 -22.3994 -62.3984q-22.3994 -24.7998 -55.999 -24.7998zM712 1128q2 -51 39 -59l69 -13q70 -17 97 -56.5t27 -99.5v-6q0 -57 -82 -150l-39 1q1 8 -6 15q-7 9 -17 9q-67 -252 -186 -474h274q27 67 85 149.5t174 227.5 q4 5 9.5 12t8 10.5t6 8t4.5 6.5t3 5t2.5 5t1.5 4t1 4.5v5v6.5q0 19 -18 32t-43.5 23.5t-51 24t-43.5 42t-18 69.5q0 47 27.5 101t64.5 97h78q0 -2 1 -14.5t2.5 -22t7 -19.5t14.5 -13l56 -18q65 -23 87 -50t22 -75q0 -55 -28 -118t-73 -135.5t-94 -159t-98.5 -219.5 t-78.5 -284h-659q-20 105 -50 221t-45.5 190t-15.5 145q0 128 28 223q-55 24 -83.5 72t-28.5 103q0 94 57 177h76q10 -34 25 -47q22 -20 72 -28q61 -11 93.5 -50.5t32.5 -101.5q0 -95 -74 -178l-47 2l-4 22q-3 9 -16 17q-11 -59 -11 -173q0 -151 100 -298h42 q64 109 104.5 213.5t96.5 289.5q-59 26 -90.5 71.5t-31.5 100.5q0 28 13.5 58.5t27 48.5t40.5 50h63z"/>
<glyph glyph-name="shindageshsindot" horiz-adv-x="1402" unicode="שּׂ" d="M882 453.995q-35.1992 0 -56.7988 25.1992q-21.5996 25.2002 -21.5996 61.999q0 37.5996 22.3994 62.3994t55.999 24.7998q35.1992 0 56.7988 -25.2002q21.5996 -25.1992 21.5996 -61.999q0 -37.5996 -22.3994 -62.3984q-22.3994 -24.7998 -55.999 -24.7998zM389 1167 q-44 0 -71 32t-27 77q0 47 28 78.5t70 31.5q44 0 71 -32t27 -78q0 -47 -28 -78t-70 -31zM712 1128q2 -51 39 -59l69 -13q70 -17 97 -56.5t27 -99.5v-6q0 -57 -82 -150l-39 1q1 8 -6 15q-7 9 -17 9q-67 -252 -186 -474h274q27 67 85 149.5t174 227.5q4 5 9.5 12t8 10.5t6 8 t4.5 6.5t3 5t2.5 5t1.5 4t1 4.5v5v6.5q0 19 -18 32t-43.5 23.5t-51 24t-43.5 42t-18 69.5q0 47 27.5 101t64.5 97h78q0 -2 1 -14.5t2.5 -22t7 -19.5t14.5 -13l56 -18q65 -23 87 -50t22 -75q0 -55 -28 -118t-73 -135.5t-94 -159t-98.5 -219.5t-78.5 -284h-659 q-20 105 -50 221t-45.5 190t-15.5 145q0 128 28 223q-55 24 -83.5 72t-28.5 103q0 94 57 177h76q10 -34 25 -47q22 -20 72 -28q61 -11 93.5 -50.5t32.5 -101.5q0 -95 -74 -178l-47 2l-4 22q-3 9 -16 17q-11 -59 -11 -173q0 -151 100 -298h42q64 109 104.5 213.5t96.5 289.5 q-59 26 -90.5 71.5t-31.5 100.5q0 28 13.5 58.5t27 48.5t40.5 50h63z"/>
<glyph glyph-name="alefpatah" horiz-adv-x="1158" unicode="אַ" d="M932 1056q17 0 42 -10.5t52 -29.5t46 -53.5t19 -76.5q0 -85 -80 -186h-55q-9 30 -5 59q-75 -117 -75 -196q0 -62 46 -115l93 -102q85 -94 85 -192q0 -95 -87 -171h-65v27q0 61 -45 111l-472 482q-80 -44 -80 -109q0 -30 21 -62.5t51 -62.5t60 -61.5t51 -69.5t21 -76 q-3 -68 -48.5 -113.5t-92.5 -48.5h-7q-1 -21 -2 -21t-1 21h-217v73l20 5q40 11 40 41q0 19 -43.5 118.5t-43.5 149.5q0 151 194 267l-100 109q-83 92 -83 192q0 43 16.5 82.5t28.5 54.5t38 44h66v-28q0 -70 45 -121l383 -387q27 90 82 169q-152 41 -152 201q0 39 11 72.5 t21 50t30 43.5h70l6 -20q12 -34 39 -47t77 -13zM817 -284h-354v149h354v-149z"/>
<glyph glyph-name="alefkamats" horiz-adv-x="1158" unicode="אָ" d="M932 1056q17 0 42 -10.5t52 -29.5t46 -53.5t19 -76.5q0 -85 -80 -186h-55q-9 30 -5 59q-75 -117 -75 -196q0 -62 46 -115l93 -102q85 -94 85 -192q0 -95 -87 -171h-65v27q0 61 -45 111l-472 482q-80 -44 -80 -109q0 -30 21 -62.5t51 -62.5t60 -61.5t51 -69.5t21 -76 q-3 -68 -48.5 -113.5t-92.5 -48.5h-7q-1 -21 -2 -21t-1 21h-217v73l20 5q40 11 40 41q0 19 -43.5 118.5t-43.5 149.5q0 151 194 267l-100 109q-83 92 -83 192q0 43 16.5 82.5t28.5 54.5t38 44h66v-28q0 -70 45 -121l383 -387q27 90 82 169q-152 41 -152 201q0 39 11 72.5 t21 50t30 43.5h70l6 -20q12 -34 39 -47t77 -13zM736 -296v-10q0 -42 11 -75l40 -99q-16 -42 -28.5 -63.5t-37.5 -47.5q-20 -4 -33 -4t-35 6q-26 21 -37.5 43t-26.5 66l39 101q11 19 11 73v10h-127v149h352v-149h-128z"/>
<glyph glyph-name="alefmapiq" horiz-adv-x="1158" unicode="אּ" d="M678 11q-44 0 -71 31.5t-27 77.5q0 47 28 78t70 31q44 0 71 -31.5t27 -77.5q0 -47 -28 -78t-70 -31zM932 1056q17 0 42 -10.5t52 -29.5t46 -53.5t19 -76.5q0 -85 -80 -186h-55q-9 30 -5 59q-75 -117 -75 -196q0 -62 46 -115l93 -102q85 -94 85 -192q0 -95 -87 -171h-65 v27q0 61 -45 111l-472 482q-80 -44 -80 -109q0 -30 21 -62.5t51 -62.5t60 -61.5t51 -69.5t21 -76q-3 -68 -48.5 -113.5t-92.5 -48.5h-7q-1 -21 -2 -21t-1 21h-217v73l20 5q40 11 40 41q0 19 -43.5 118.5t-43.5 149.5q0 151 194 267l-100 109q-83 92 -83 192q0 43 16.5 82.5 t28.5 54.5t38 44h66v-28q0 -70 45 -121l383 -387q27 90 82 169q-152 41 -152 201q0 39 11 72.5t21 50t30 43.5h70l6 -20q12 -34 39 -47t77 -13z"/>
<glyph glyph-name="betdagesh" horiz-adv-x="1077" unicode="בּ" d="M132 56q0 44 12.5 111.5t42.5 127.5h616q21 99 21 241q0 96 -10.5 156t-26.5 72q-25 18 -168 18h-257q-82 0 -130.5 47t-48.5 121q0 44 15 83.5t27 55.5t34 41h60l5 -20q14 -54 81 -54h167q93 0 157.5 -7.5t109.5 -27.5t71 -44.5t40.5 -70t18.5 -92t4 -120.5v-132 q0 -59 -18.5 -136.5t-44.5 -129.5l144 -1v-27q0 -158 -40 -268h-876q-6 27 -6 56zM544 406q-44 0 -71 31.5t-27 77.5q0 47 28 78t70 31q44 0 71 -31.5t27 -77.5q0 -47 -28 -78t-70 -31z"/>
<glyph glyph-name="gimeldagesh" horiz-adv-x="720" unicode="גּ" d="M703 131q0 -49 -12.5 -81t-37.5 -68h-57l-132 317l-122 -299l-266 -21l64 283q21 3 54 8t45.5 7t32.5 6.5t29.5 9.5t21 13t21.5 19q36 39 56 116t20 157q0 141 -52 171q-14 6 -36 11l-39 9q-35 8 -58 19.5t-35 23t-18 32.5t-7.5 35.5t-1.5 44.5v3q0 40 15.5 78.5 t27.5 54.5t35 43h63l4 -21q2 -12 2.5 -19.5t0.5 -10v-5.5v-7q7 -2 15 -3l73 -7q24 -2 45 -9.5t43.5 -24t35.5 -49t13 -78.5q0 -39 -8 -148t-8 -144q0 -48 27 -109.5t59.5 -112.5t59.5 -118.5t27 -125.5zM206 407q-44 0 -71 31.5t-27 77.5q0 47 28 78t70 31q44 0 71 -31.5 t27 -77.5q0 -47 -28 -78t-70 -31z"/>
<glyph glyph-name="daleddagesh" horiz-adv-x="989" unicode="דּ" d="M100 941q0 39 8 71t24.5 57t22.5 33t22 24h59l5 -20q13 -50 72 -50h469q82 0 117 -30.5t35 -106.5q0 -47 -11.5 -76t-27 -41t-40.5 -35.5t-43 -52.5q-31 -46 -31 -120q0 -51 11 -198.5t11 -203.5q0 -22 -2 -41t-12 -50.5t-27.5 -55t-53 -44.5t-83.5 -28h-21l-44 42 q1 1 7 8.5t8.5 11t7.5 13t7.5 17.5t4.5 21t2 27q0 66 -5 166.5t-5 143.5q0 241 127 357h-432q-85 0 -133.5 43t-48.5 118zM333 401q-44 0 -71 31.5t-27 77.5q0 47 28 78t70 31q44 0 71 -31.5t27 -77.5q0 -47 -28 -78t-70 -31z"/>
<glyph glyph-name="hedagesh" horiz-adv-x="1182" unicode="הּ" d="M196 943q0 104 73 179l4 4h60l5 -20q12 -50 66 -50h544q92 0 124.5 -34t32.5 -103v-46q0 -30 -11.5 -54.5t-25 -42.5t-25 -62.5t-11.5 -109.5q0 -61 23 -204t23 -208q0 -56 -16 -98t-35 -63t-50.5 -35.5t-44.5 -17t-36 -5.5l-37 48q31 54 31 102q0 40 -8 168t-8 170 q0 109 14.5 184.5t54.5 134.5h-571q-84 0 -130 44.5t-46 118.5zM471 474q-2 -1 -6 -2.5t-13.5 -11.5t-16.5 -25t-13 -45.5t-6 -69.5q0 -19 4 -97t4 -97q0 -46 -16.5 -78t-46 -48.5t-60 -23.5t-70.5 -10l-35 54l17 15q18 21 18 55q0 18 -3 93.5t-3 94.5q0 125 49.5 199 t131.5 74q25 0 65 -19v-58zM662 406q-44 0 -71 31.5t-27 77.5q0 47 28 78t70 31q44 0 71 -31.5t27 -77.5q0 -47 -28 -78t-70 -31z"/>
<glyph glyph-name="vavdagesh" horiz-adv-x="639" unicode="וּ" d="M173 1117q25 -5 59 -5q0 -1 2.5 -15.5t7 -20.5t23 -13t49.5 -7q69 0 111 -33t56 -81.5t14 -117.5v-717q0 -96 -93 -127l-52 16v667v4q0 59 -18 89q-26 0 -53 5q-75 21 -108 43q-77 54 -77 166q0 36 17 72.5t35 55.5t27 19zM150 410q-44 0 -71 31.5t-27 77.5q0 47 28 78 t70 31q44 0 71 -31.5t27 -77.5q0 -47 -28 -78t-70 -31z"/>
<glyph glyph-name="zaindagesh" horiz-adv-x="786" unicode="זּ" d="M687 891q0 -95 -69 -178h-53l-4 21q-4 13 -24 25t-32 15q-12 -60 -12 -113q0 -75 31 -223t31 -217q0 -44 -8 -80t-20 -60t-30.5 -42.5t-33.5 -28.5t-36 -17.5t-31 -9.5t-25 -4l-43 47l16 23q27 38 27 90q0 45 -16 173t-16 177q0 159 60 296q-91 0 -140 51.5t-49 127.5 q0 44 12 81.5t24 56.5t33 45h63l4 -22q8 -37 43 -45q137 -29 242 -75q26 -16 41 -47.5t15 -66.5zM188 520q-44 0 -71 31.5t-27 77.5q0 47 28 78t70 31q44 0 71 -31.5t27 -77.5q0 -47 -28 -78t-70 -31z"/>
<glyph glyph-name="tetdagesh" horiz-adv-x="1125" unicode="טּ" d="M253 786q-62 18 -90.5 60t-28.5 113q0 41 9 71t32 78h79q6 -52 82 -52q80 0 122.5 -27t42.5 -96q0 -21 -10 -79.5t-23 -93.5q-18 -19 -37 -19q-18 0 -34 22q-1 1 -22 17q-5 1 -12 0t-10 0q-21 -69 -21 -133q0 -84 23 -162.5t77 -189.5h427q37 81 49.5 150t12.5 185 q0 86 -37 118t-98 32h-20q-22 0 -38.5 -3t-37.5 -13t-38.5 -33.5t-30.5 -60.5l-9 -25l-95 21l6 26q16 67 31 116t41.5 104t57.5 90t78.5 58t105.5 23q62 0 105.5 -31.5t67 -91.5t33 -133t9.5 -169q0 -280 -131 -658h-637q0 69 -36 266.5t-36 292.5q0 111 41 227zM593 380 q-44 0 -71 31.5t-27 77.5q0 47 28 78t70 31q44 0 71 -31.5t27 -77.5q0 -47 -28 -78t-70 -31z"/>
<glyph glyph-name="yoddagesh" horiz-adv-x="612" unicode="יּ" d="M313 418l-62 72l24 18q48 37 65 74t17 101v36v3q0 26 -9.5 35t-51.5 9q-89 0 -137 54.5t-48 140.5q0 26 8 52.5t15.5 41.5t30.5 58h76h3q6 -53 66 -53l35 -4q56 0 105.5 -57.5t49.5 -140.5v-79q0 -104 -45.5 -207t-122.5 -144zM165 524q-44 0 -71 31.5t-27 77.5 q0 47 28 78t70 31q44 0 71 -31.5t27 -77.5q0 -47 -28 -78t-70 -31z"/>
<glyph glyph-name="finalkhafdagesh" horiz-adv-x="956" unicode="ךּ" d="M689 -273l5 1053h-416q-81 0 -125.5 44t-44.5 118q0 45 14.5 84.5t27.5 58t34 42.5h61l4 -21q10 -46 81 -46l416 -1q83 0 118.5 -37t35.5 -95v-30q0 -49 -27 -80l-32 -46q-11 -13 -11 -52v-8l31 -867q0 -4 0.5 -13t0.5 -12q0 -58 -17 -93.5t-40 -50.5t-67 -31l-44 22z M469 407q-44 0 -71 31.5t-27 77.5q0 47 28 78t70 31q44 0 71 -31.5t27 -77.5q0 -47 -28 -78t-70 -31z"/>
<glyph glyph-name="khafdagesh" horiz-adv-x="1052" unicode="כּ" d="M982 538q0 -124 -13.5 -210.5t-45 -151.5t-86.5 -102.5t-135 -55.5t-194 -18h-383l55 295h440q120 0 167.5 47.5t47.5 176.5v10q0 143 -38 197.5t-156 54.5h-316q-80 0 -121.5 45.5t-41.5 119.5q0 44 15 83.5t27 55.5t34 41h60l5 -20q12 -47 74 -47h243 q175 0 268.5 -124.5t93.5 -396.5zM532 416q-44 0 -71 31.5t-27 77.5q0 47 28 78t70 31q44 0 71 -31.5t27 -77.5q0 -47 -28 -78t-70 -31z"/>
<glyph glyph-name="lameddagesh" horiz-adv-x="1011" unicode="לּ" d="M82 1402q0 22 15 72t47 98h62l4 -24q0 -14 25 -24l38 -15q84 -35 84 -103v-2q0 -6 -48 -172l-14 -52q-13 -50 -13 -73q0 -25 13 -35q16 -14 85 -14h374q103 0 161 -49q58 -52 58 -229v-103q0 -135 -65 -204l-192 -203q-71 -67 -71 -126q0 -3 3.5 -26.5t3.5 -40.5 q0 -99 -109 -99q-50 0 -86 37t-36 91q0 32 13 62t46.5 66t57 58t76.5 67l162 144q54 55 54 140v58q0 20 -1 31t-8.5 21t-15 13.5t-30 6.5t-44.5 3.5t-66 0.5h-336q-87 0 -136 49.5t-49 130.5q0 90 38 201l29 85q8 20 5.5 29.5t-20.5 18.5l-55 27q-59 30 -59 84zM496 441 q-44 0 -71 31.5t-27 77.5q0 47 28 78t70 31q44 0 71 -31.5t27 -77.5q0 -47 -28 -78t-70 -31z"/>
<glyph glyph-name="memdagseh" horiz-adv-x="1204" unicode="מּ" d="M186 960q0 37 9 71.5t18.5 54t26.5 49.5h63l6 -20q13 -42 77 -48l92 -8q110 -15 110 -107q0 -16 -4.5 -45t-4.5 -36q0 -18 7 -26q138 79 150 203l3 27l29 -4q95 -15 165 -69t109 -135.5t57 -174t18 -199.5q0 -130 -38 -309l-38 -184h-556l71 295h408q13 59 13 201v2 q0 124 -54 203.5t-145 81.5h-6q-81 -2 -143.5 -40.5t-123.5 -120.5q-74 -108 -116.5 -246t-43.5 -349v-27h-165l-2 25q-4 44 -4 85q0 193 64 344t217 279q5 23 5 31q-10 2 -42.5 5t-67.5 8q-78 14 -121 67t-43 116zM682 395q-44 0 -71 31.5t-27 77.5q0 47 28 78t70 31 q44 0 71 -31.5t27 -77.5q0 -47 -28 -78t-70 -31z"/>
<glyph glyph-name="nundagesh" horiz-adv-x="669" unicode="נּ" d="M398 1057l44 -5q40 -4 68.5 -17t42.5 -27t21 -37t8 -36.5t1 -36.5q0 -49 -18 -176.5t-18 -172.5q0 -97 31 -233.5t31 -182.5q0 -87 -11 -133h-5h-524l46 294l296 1v98v24q0 51 9.5 156t9.5 149v6q0 1 -1 8t-2.5 14.5t-4.5 13.5q-4 8 -11 11q-10 4 -28 4q-35 0 -64.5 8.5 t-58.5 27.5t-46 57t-18 91v4q0 105 69 165l8 8h61l4 -23q7 -33 8 -36q14 -21 52 -24zM254 460q-44 0 -71 31.5t-27 77.5q0 47 28 78t70 31q44 0 71 -31.5t27 -77.5q0 -47 -28 -78t-70 -31z"/>
<glyph glyph-name="samekhdagesh" horiz-adv-x="1148" unicode="סּ" d="M927 530q0 80 -14 130t-46.5 76t-74 35t-108.5 9h-309q-34 -61 -42 -104t-8 -121v-11q0 -150 64.5 -216t196.5 -66h102q239 0 239 268zM176 943q0 44 14.5 82.5t27.5 56.5t36 44h60l5 -20q15 -50 75 -50h278q98 0 168.5 -24.5t124.5 -82.5t80.5 -160t26.5 -251 q0 -240 -126.5 -401t-305.5 -161h-43q-105 0 -188 39.5t-132.5 106t-75 148t-25.5 171.5q0 105 25.5 181.5t77.5 157.5q-44 19 -73.5 70.5t-29.5 92.5zM627 425q-44 0 -71 31.5t-27 77.5q0 47 28 78t70 31q44 0 71 -31.5t27 -77.5q0 -47 -28 -78t-70 -31z"/>
<glyph glyph-name="finalpedagesh" horiz-adv-x="996" unicode="ףּ" d="M520 428v-4q-1 -4 -1.5 -8.5t-2.5 -10.5t-5 -11.5t-9 -11.5t-13 -10.5t-18.5 -7t-24.5 -2.5q-14 0 -48.5 4.5t-49.5 4.5q-28 0 -50 -10t-30.5 -19t-20.5 -24h-64q-35 75 -40 121q-2 16 -2 32q0 162 106 314q-38 21 -57.5 63.5t-19.5 92.5q0 45 14.5 84.5t28 58t35.5 42.5 h60q11 -41 23 -53q18 -17 54 -17h215q70 0 121 -8.5t85.5 -29t55.5 -45t33.5 -67.5t17.5 -84t8 -106l20 -432q12 -268 12 -458q0 -47 -6 -77t-23.5 -49t-35 -28.5t-53.5 -23.5l-51 18v832q0 82 -6.5 136t-15 83t-28.5 43.5t-36.5 17t-48.5 2.5h-297q-52 -83 -52 -120 q0 -13 5.5 -22t20 -15t26 -9t36.5 -8q42 -6 71 -20t41 -31.5t16 -31t4 -27.5v-68zM652 362.26q-34.4473 0 -55.5859 26.3721q-21.1377 26.373 -21.1377 64.8848q0 39.3496 21.9209 65.3037q21.9209 25.9531 54.8027 25.9531q34.4473 0 55.5859 -26.3721 q21.1377 -26.3721 21.1377 -64.8848q0 -39.3486 -21.9209 -65.3027t-54.8027 -25.9541z"/>
<glyph glyph-name="pedagesh" horiz-adv-x="1022" unicode="פּ" d="M491 523q0 -74 -62 -74q-11 0 -51 3.5t-49 3.5q-28 0 -49.5 -9t-30 -17t-21.5 -23h-63q-48 101 -48 178q0 74 18.5 125t65.5 97l-22 25q-18 18 -26 52.5t-8 61.5q0 45 15.5 85t27.5 55t34 40h60l5 -20q10 -47 74 -47h226q174 0 266 -124t92 -397q0 -333 -108 -435 q-107 -103 -363 -103h-364l71 295h386q54 0 88 3.5t68 16t52.5 36.5t30 64.5t11.5 100.5q0 61 -5.5 105.5t-18 73.5t-27 46.5t-39.5 26t-48 11t-59 2.5h-296q-46 -29 -46 -73q0 -21 26 -29.5t59 -9.5t68.5 -14.5t50.5 -41.5q9 -17 9 -38v-52zM656 447.099 q-35.6396 0 -57.5098 25.5156q-21.8701 25.5146 -21.8701 62.7744q0 38.0703 22.6797 63.1797q22.6807 25.1104 56.7002 25.1104q35.6396 0 57.5098 -25.5146q21.8701 -25.5156 21.8701 -62.7754q0 -38.0703 -22.6797 -63.1797q-22.6807 -25.1104 -56.7002 -25.1104z"/>
<glyph glyph-name="tsadidagesh" horiz-adv-x="1078" unicode="צּ" d="M356 730q0 15 -1.5 21.5t-7 14.5t-18.5 11t-35 3q-84 0 -126 52.5t-42 132.5q0 44 12.5 75t40.5 74h77q12 -53 57 -56l35 -2q96 -6 128 -32.5t32 -109.5q0 -27 -9 -99t-9 -93q0 -67 53 -106l75 -54q61 135 132 224q-108 44 -108 179q0 27 8.5 53.5t17 41.5t31.5 52h92 q3 -23 17 -35.5t46 -16.5l55 -4q123 -9 123 -147q0 -99 -71 -188h-53l-4 22q-7 30 -12 33q-3 2 -12 2q-8 0 -32 -32.5t-48 -89.5t-24 -109v-3q0 -74 78 -135l146 -118l-65 -291h-735l51 295h440l-254 171q-81 55 -81 127v3v128v6zM232 362q-44 0 -71 31.5t-27 77.5 q0 47 28 78t70 31q44 0 71 -31.5t27 -77.5q0 -47 -28 -78t-70 -31z"/>
<glyph glyph-name="kofdagesh" horiz-adv-x="1107" unicode="קּ" d="M256 -345l-52 13v880q0 101 87 176q22 11 76 13v-977q-2 -16 -6 -24.5t-29 -29t-76 -51.5zM166 943q0 45 14.5 84.5t27 57t34.5 41.5h61l4 -21q4 -13 8.5 -21.5t21 -18t42.5 -9.5h390q81 0 136 -19.5t85.5 -59t43 -89t12.5 -118.5v-93q0 -113 -26.5 -173t-91.5 -103 l-211 -125q-73 -33 -73 -111q0 -12 1 -18q6 -42 6 -59q0 -101 -115 -101q-51 0 -88 31.5t-37 77.5v2q0 29 3.5 53.5t13 46t16.5 37t24.5 32.5t27 26t34.5 24.5t35.5 21.5t41.5 22.5t42 22.5l187 108q66 41 66 128v68q0 55 -26 73.5t-119 18.5h-421q-81 0 -125.5 44.5 t-44.5 118.5zM590 403q-44 0 -71 31.5t-27 77.5q0 47 28 78t70 31q44 0 71 -31.5t27 -77.5q0 -47 -28 -78t-70 -31z"/>
<glyph glyph-name="reshdagesh" horiz-adv-x="993" unicode="רּ" d="M98 943q0 45 14.5 84.5t27 57t34.5 41.5h60l5 -20q13 -50 73 -50h202q138 0 221.5 -15t124.5 -53q77 -72 77 -297v-589q0 -26 -9 -47t-27 -36.5t-29.5 -23t-29.5 -16.5l-51 17v482q0 44 -0.5 67.5t-2 57t-5.5 50t-11 39.5t-17.5 33.5t-26 23.5t-36 18t-47.5 9t-61 4h-313 q-81 0 -127 45t-46 118zM463 383q-44 0 -71 31.5t-27 77.5q0 47 28 78t70 31q44 0 71 -31.5t27 -77.5q0 -47 -28 -78t-70 -31z"/>
<glyph glyph-name="shindagesh" horiz-adv-x="1402" unicode="שּ" d="M712 1128q2 -51 39 -59l69 -13q70 -17 97 -56.5t27 -99.5v-6q0 -57 -82 -150l-39 1q1 8 -6 15q-7 9 -17 9q-67 -252 -186 -474h274q27 67 85 149.5t174 227.5q4 5 9.5 12t8 10.5t6 8t4.5 6.5t3 5t2.5 5t1.5 4t1 4.5v5v6.5q0 19 -18 32t-43.5 23.5t-51 24t-43.5 42 t-18 69.5q0 47 27.5 101t64.5 97h78q0 -2 1 -14.5t2.5 -22t7 -19.5t14.5 -13l56 -18q65 -23 87 -50t22 -75q0 -55 -28 -118t-73 -135.5t-94 -159t-98.5 -219.5t-78.5 -284h-659q-20 105 -50 221t-45.5 190t-15.5 145q0 128 28 223q-55 24 -83.5 72t-28.5 103q0 94 57 177h76 q10 -34 25 -47q22 -20 72 -28q61 -11 93.5 -50.5t32.5 -101.5q0 -95 -74 -178l-47 2l-4 22q-3 9 -16 17q-11 -59 -11 -173q0 -151 100 -298h42q64 109 104.5 213.5t96.5 289.5q-59 26 -90.5 71.5t-31.5 100.5q0 28 13.5 58.5t27 48.5t40.5 50h63zM882 453.995 q-35.1992 0 -56.7988 25.1992q-21.5996 25.2002 -21.5996 61.999q0 37.5996 22.3994 62.3994t55.999 24.7998q35.1992 0 56.7988 -25.2002q21.5996 -25.1992 21.5996 -61.999q0 -37.5996 -22.3994 -62.3984q-22.3994 -24.7998 -55.999 -24.7998z"/>
<glyph glyph-name="tavdagesh" horiz-adv-x="1227" unicode="תּ" d="M494 299q29 -110 29 -147v-7l-8 -145h-363l52 295h120l-5 124v26q0 178 78 304l23 33q-81 2 -121 46.5t-40 117.5q0 19 3 38t7 33.5t10.5 29t12 24.5t13.5 20.5t12 15.5t10 11.5t7 7.5h63l6 -20q4 -13 9.5 -21.5t24 -17t48.5 -8.5q31 -2 92 -2q53 0 159 2q260 0 336 -70 q75 -71 75 -298v-563q0 -34 -9.5 -60.5t-28 -44t-30 -25t-31.5 -17.5l-51 19v502q0 163 -35.5 221.5t-128.5 58.5h-3l-301 -6l-25 -51q-37 -80 -37 -211q0 -116 27 -215zM715 386q-44 0 -71 31.5t-27 77.5q0 47 28 78t70 31q44 0 71 -31.5t27 -77.5q0 -47 -28 -78t-70 -31z "/>
<glyph glyph-name="vavholam" horiz-adv-x="539" unicode="וֹ" d="M153 1117q25 -5 59 -5q0 -1 2.5 -15.5t7 -20.5t23 -13t49.5 -7q69 0 111 -33t56 -81.5t14 -117.5v-717q0 -96 -93 -127l-52 16v667v4q0 59 -18 89q-26 0 -53 5q-75 21 -108 43q-77 54 -77 166q0 36 17 72.5t35 55.5t27 19zM413 1152q-44 0 -71 32t-27 77q0 47 28 78.5 t70 31.5q44 0 71 -32t27 -78q0 -47 -28 -78t-70 -31z"/>
<glyph glyph-name="betrafe" horiz-adv-x="1077" unicode="בֿ" d="M132 56q0 44 12.5 111.5t42.5 127.5h616q21 99 21 241q0 96 -10.5 156t-26.5 72q-25 18 -168 18h-257q-82 0 -130.5 47t-48.5 121q0 44 15 83.5t27 55.5t34 41h60l5 -20q14 -54 81 -54h167q93 0 157.5 -7.5t109.5 -27.5t71 -44.5t40.5 -70t18.5 -92t4 -120.5v-132 q0 -59 -18.5 -136.5t-44.5 -129.5l144 -1v-27q0 -158 -40 -268h-876q-6 27 -6 56zM730.5 1164h-353v149h353v-149z"/>
<glyph glyph-name="khafrafe" horiz-adv-x="1052" unicode="כֿ" d="M982 538q0 -124 -13.5 -210.5t-45 -151.5t-86.5 -102.5t-135 -55.5t-194 -18h-383l55 295h440q120 0 167.5 47.5t47.5 176.5v10q0 143 -38 197.5t-156 54.5h-316q-80 0 -121.5 45.5t-41.5 119.5q0 44 15 83.5t27 55.5t34 41h60l5 -20q12 -47 74 -47h243 q175 0 268.5 -124.5t93.5 -396.5zM773.779 1164h-359.559v149h359.559v-149z"/>
<glyph glyph-name="perafe" horiz-adv-x="1022" unicode="פֿ" d="M491 523q0 -74 -62 -74q-11 0 -51 3.5t-49 3.5q-28 0 -49.5 -9t-30 -17t-21.5 -23h-63q-48 101 -48 178q0 74 18.5 125t65.5 97l-22 25q-18 18 -26 52.5t-8 61.5q0 45 15.5 85t27.5 55t34 40h60l5 -20q10 -47 74 -47h226q174 0 266 -124t92 -397q0 -333 -108 -435 q-107 -103 -363 -103h-364l71 295h386q54 0 88 3.5t68 16t52.5 36.5t30 64.5t11.5 100.5q0 61 -5.5 105.5t-18 73.5t-27 46.5t-39.5 26t-48 11t-59 2.5h-296q-46 -29 -46 -73q0 -21 26 -29.5t59 -9.5t68.5 -14.5t50.5 -41.5q9 -17 9 -38v-52zM741 1169h-444v149h444v-149z "/>
<glyph glyph-name="aleflamed" horiz-adv-x="1148" unicode="ﭏ" d="M940 759q-11 9 -33 14l-24 -86q-3 -13 -12 -41.5t-12.5 -46.5t-3.5 -38q0 -62 41 -113l86 -105q91 -111 91 -188q0 -91 -86 -171h-63l-2 25q-3 50 -47 106l-441 535l-90 84q-32 39 -86 39h-30q-63 0 -102.5 52.5t-39.5 133.5q0 99 34 201l29 85q8 20 5.5 29.5t-20.5 18.5 l-55 27q-59 30 -59 84q0 24 17 81.5t49 104.5h63l5 -20q5 -20 23 -27l41 -16q84 -34 84 -103q0 -5 -10 -38t-24 -80t-21 -74l-14 -50q-10 -38 -10 -68q0 -57 33 -57h53q65 0 132 -79l289 -354q14 74 60 152q-74 23 -104 72t-30 124q0 87 60 165h70l6 -21q5 -19 29 -38.5 t53 -22.5q106 -10 152.5 -58t46.5 -108q0 -97 -73 -187h-55q6 42 -5 57z"/>
<glyph glyph-name="vavholamhaser" d="M107 1134q-44 0 -71 32t-27 77q0 47 28 78.5t70 31.5q44 0 71 -32t27 -78q0 -47 -28 -78t-70 -31zM153 1117q25 -5 59 -5q0 -1 2.5 -15.5t7 -20.5t23 -13t49.5 -7q69 0 111 -33t56 -81.5t14 -117.5v-717q0 -96 -93 -127l-52 16v667v4q0 59 -18 89q-26 0 -53 5 q-75 21 -108 43q-77 54 -77 166q0 36 17 72.5t35 55.5t27 19z" horiz-adv-x="539"/>
<glyph glyph-name="finalkafsheva" d="M689 -273l5 1053h-416q-81 0 -125.5 44t-44.5 118q0 45 14.5 84.5t27.5 58t34 42.5h61l4 -21q10 -46 81 -46l416 -1q83 0 118.5 -37t35.5 -95v-30q0 -49 -27 -80l-32 -46q-11 -13 -11 -52v-8l31 -867q0 -4 0.5 -13t0.5 -12q0 -58 -17 -93.5t-40 -50.5t-67 -31l-44 22z M475 448q-44 0 -71 32t-27 77q0 47 28 78.5t70 31.5q44 0 71 -32t27 -78q0 -47 -28 -78t-70 -31zM475 194q-44 0 -71 32t-27 77q0 47 28 78.5t70 31.5q44 0 71 -32t27 -78q0 -47 -28 -78t-70 -31z" horiz-adv-x="956"/>
<glyph glyph-name="finalkafqamats" d="M689 -273l5 1053h-416q-81 0 -125.5 44t-44.5 118q0 45 14.5 84.5t27.5 58t34 42.5h61l4 -21q10 -46 81 -46l416 -1q83 0 118.5 -37t35.5 -95v-30q0 -49 -27 -80l-32 -46q-11 -13 -11 -52v-8l31 -867q0 -4 0.5 -13t0.5 -12q0 -58 -17 -93.5t-40 -50.5t-67 -31l-44 22z M485.399 539.604v-8q0 -33.5996 8.7998 -59.999l32 -79.1982q-12.7998 -33.5996 -22.7998 -50.7998q-10 -17.1992 -30 -37.999q-16 -3.2002 -26.3994 -3.2002t-28 4.7998q-20.7988 16.7998 -29.999 34.3994t-21.2002 52.7998l31.2002 80.7979q8.7998 15.2002 8.7998 58.3994 v8h-101.599v119.198h281.596v-119.198h-102.398z" horiz-adv-x="956"/>
<glyph glyph-name="hatafsegol_meteg" d="M-320 -116q44 0 71 -32t27 -78q0 -47 -28 -78.5t-70 -31.5q-43 0 -69.5 32t-26.5 78q0 47 27 78.5t69 31.5zM-201 -370q43 0 70 -32t27 -78q0 -47 -27.5 -78.5t-69.5 -31.5q-44 0 -70.5 32t-26.5 78q0 47 27.5 78.5t69.5 31.5zM-83 -116q43 0 70 -32t27 -78 q0 -47 -27.5 -78.5t-69.5 -31.5q-44 0 -70.5 32t-26.5 78q0 47 27.5 78.5t69.5 31.5zM320 -336q-44 0 -71 31.5t-27 77.5q0 47 27.5 78.5t70.5 31.5t69.5 -32t26.5 -78q0 -47 -27 -78t-69 -31zM320 -590q-44 0 -71 31.5t-27 77.5q0 47 27.5 78.5t70.5 31.5t69.5 -32 t26.5 -78q0 -47 -27 -78t-69 -31zM166 -575l-106 2v445l106 -2v-445z"/>
<glyph glyph-name="hatafpatah_meteg" d="M256 -333q-43 0 -70 32t-27 77q0 47 28 78.5t69 31.5q44 0 71 -32t27 -78q0 -47 -28 -78t-70 -31zM256 -587q-43 0 -70 32t-27 77q0 47 28 78.5t69 31.5q44 0 71 -32t27 -78q0 -47 -28 -78t-70 -31zM113 -573l-94 -2v445l94 2v-445zM-39 -262h-315l2 125h315z"/>
<glyph glyph-name="hatafqamats_meteg" d="M257 -333q-44 0 -70.5 32t-26.5 77q0 47 27.5 78.5t69.5 31.5q43 0 70 -32t27 -78q0 -47 -27.5 -78t-69.5 -31zM257 -587q-44 0 -70.5 32t-26.5 77q0 47 27.5 78.5t69.5 31.5q43 0 70 -32t27 -78q0 -47 -27.5 -78t-69.5 -31zM136 -575h-104v445h104v-445zM-218 -573 q-35 23 -55 97l-3 9l39 99q3 8 6 44.5t3 47.5v11h-126v130l344 1v-131h-120v-7v-2q0 -67 12 -95l38 -99l-3 -10q-1 -2 -6.5 -18t-8.5 -22.5t-9 -19t-13.5 -20.5t-17.5 -15q-24 -11 -41 -11t-39 11z"/>
<glyph glyph-name="hatafsegol_leftmeteg" d="M-161 -115q44 0 71 -32t27 -78q0 -47 -28 -78.5t-70 -31.5q-43 0 -69.5 32t-26.5 78q0 47 27 78.5t69 31.5zM-42 -369q43 0 70 -32t27 -78q0 -47 -27.5 -78.5t-69.5 -31.5q-44 0 -70.5 32t-26.5 78q0 47 27.5 78.5t69.5 31.5zM76 -115q43 0 70 -32t27 -78 q0 -47 -27.5 -78.5t-69.5 -31.5q-44 0 -70.5 32t-26.5 78q0 47 27.5 78.5t69.5 31.5zM320 -335q-44 0 -71 31t-27 77q0 47 27.5 78.5t70.5 31.5t69.5 -32t26.5 -78q0 -47 -27 -77.5t-69 -30.5zM320 -589q-44 0 -71 31t-27 77q0 47 27.5 78.5t70.5 31.5t69.5 -32t26.5 -78 q0 -47 -27 -77.5t-69 -30.5zM-310 -581l-106 2v445l106 -2v-445z"/>
<glyph glyph-name="hatafpatah_leftmeteg" d="M256 -333q-43 0 -70 32t-27 77q0 47 28 78.5t69 31.5q44 0 71 -32t27 -78q0 -47 -28 -78t-70 -31zM256 -587q-43 0 -70 32t-27 77q0 47 28 78.5t69 31.5q44 0 71 -32t27 -78q0 -47 -28 -78t-70 -31zM-260 -581l-94 -2v445l94 2v-445zM110 -263h-315l2 125h315z"/>
<glyph glyph-name="hatafqamats_leftmeteg" d="M255 -333q-44 0 -70.5 32t-26.5 77q0 47 27.5 78.5t69.5 31.5q43 0 70 -32t27 -78q0 -47 -27.5 -78t-69.5 -31zM255 -587q-44 0 -70.5 32t-26.5 77q0 47 27.5 78.5t69.5 31.5q43 0 70 -32t27 -78q0 -47 -27.5 -78t-69.5 -31zM-248 -581h-104v445h104v-445zM-74 -571 q-35 23 -55 97l-3 9l39 99q3 8 6 44.5t3 47.5v11h-126v130l344 1v-131h-120v-7v-2q0 -67 12 -95l38 -99l-3 -10q-1 -2 -6.5 -18t-8.5 -22.5t-9 -19t-13.5 -20.5t-17.5 -15q-24 -11 -41 -11t-39 11z"/>
</font>
</defs>
</svg>
