<?xml version="1.0" standalone="no"?>
<!DOCTYPE svg PUBLIC "-//W3C//DTD SVG 1.1//EN" "http://www.w3.org/Graphics/SVG/1.1/DTD/svg11.dtd" >
<svg xmlns="http://www.w3.org/2000/svg">
<metadata></metadata>
<defs>
<font id="mekorot-vilnavilna" horiz-adv-x="853" >
<font-face units-per-em="2048" ascent="1638" descent="-410" />
<missing-glyph horiz-adv-x="512" />
<glyph horiz-adv-x="2048" />
<glyph horiz-adv-x="2048" />
<glyph unicode="&#xd;" horiz-adv-x="682" />
<glyph unicode=" "  horiz-adv-x="512" />
<glyph unicode="&#x09;" horiz-adv-x="512" />
<glyph unicode="&#xa0;" horiz-adv-x="512" />
<glyph unicode="!" horiz-adv-x="568" d="M138 1009q0 80 38.5 125t107 45t106 -45t37.5 -129q0 -51 -31 -148q-62 -195 -89 -458h-49q-17 157 -34 246t-55 212q-31 99 -31 152zM140 123q0 58 42.5 100.5t100.5 42.5q60 0 102.5 -43.5t42.5 -103t-42.5 -100.5t-103.5 -41q-60 0 -101 41.5t-41 103.5z" />
<glyph unicode="&#x22;" horiz-adv-x="947" d="M142 1058q0 55 29.5 88t79.5 33q48 0 79.5 -32.5t31.5 -81.5q0 -52 -75 -376h-70q-19 79 -19 82q-56 222 -56 287zM585 1058q0 55 30 88t80 33q48 0 79.5 -32.5t31.5 -81.5q-1 -53 -76 -376h-70q-17 75 -18 82q-56 225 -57 287z" />
<glyph unicode="#" d="M7 358v125h182l31 229h-164v124h181l51 359h132l-50 -359h193l51 359h132l-50 -359h151v-124h-168l-30 -229h148v-125h-167l-50 -358h-133l50 358h-193l-50 -358h-133l50 358h-164zM323 483h192l31 229h-193z" />
<glyph unicode="$" d="M49 847q0 167 147 252q67 38 169 48v133h94v-130q101 -17 156.5 -35t114.5 -53v-241h-35q-38 128 -91.5 190t-144.5 83v-367q125 -65 178.5 -100.5t98.5 -87.5q70 -79 70 -204q0 -145 -86 -227q-41 -41 -99 -65t-162 -43v-169h-94v169q-80 3 -131 17t-155 56v267l35 -4 q41 -138 97.5 -202t152.5 -83v429q-171 85 -243 168.5t-72 198.5zM212 945q0 -117 152 -170v324q-80 -20 -116 -56t-36 -98zM459 51q159 31 159 178q0 70 -28.5 105t-130.5 93v-376z" />
<glyph unicode="%" horiz-adv-x="1706" d="M212 734q0 164 118.5 293.5t266.5 129.5q63 0 128 -46q67 -48 159 -48q79 0 160 30t108 69q14 19 26 19h64l-672 -1195h-94l594 1058q-108 -46 -196 -46q-36 0 -80 9q-2 -208 -101 -353q-104 -152 -261 -152q-97 0 -158.5 64.5t-61.5 167.5zM406 676q-3 -41 21 -68.5 t61 -27.5q79 0 150 104q99 145 99 287q0 55 -49 75q-10 3 -28 17q-17 11 -27 14q-44 5 -106 -85q-44 -67 -80.5 -161.5t-40.5 -154.5zM913 213q0 157 120.5 289.5t265.5 132.5q90 0 144 -54t54 -142q0 -99 -40 -200t-110 -172q-85 -90 -207 -91q-102 0 -164.5 65t-62.5 172z M1113 150q0 -96 83 -95q96 0 174 143q70 125 70 227q0 53 -25 88t-63 35q-63 0 -125 -89q-43 -63 -78.5 -159.5t-35.5 -149.5z" />
<glyph unicode="&#x26;" horiz-adv-x="1421" d="M106 275q0 121 76.5 209.5t257.5 177.5q-51 89 -69.5 140t-18.5 108q0 125 89.5 197t242.5 72q130 0 207.5 -57t77.5 -151q0 -80 -61 -140t-198 -109l258 -365q75 94 102 145t27 102q0 38 -18.5 50t-93.5 20v41h351v-41q-55 -5 -77.5 -18t-46.5 -50l-46 -75 q-53 -84 -159 -231q72 -92 113 -123.5t90 -31.5q58 0 99 65l34 -21l-27 -44q-55 -89 -92 -119q-70 -53 -159 -53q-68 0 -123 32.5t-131 117.5q-200 -148 -379 -149q-143 0 -234.5 84.5t-91.5 216.5zM343 451q0 -67 34 -142t89 -133q68 -72 152 -72q61 0 153 67 q-63 81 -220 317l-82 123q-70 -41 -98 -77t-28 -83zM551 1027q1 -99 127 -256q65 22 92 54t27 85q0 85 -47 149t-110 64q-41 0 -65 -25.5t-24 -70.5z" />
<glyph unicode="'" horiz-adv-x="474" d="M128 1058q0 55 30 88t79 33q48 0 79.5 -32.5t31.5 -81.5q0 -48 -75 -376h-70q-17 73 -19 82q-56 222 -56 287z" />
<glyph unicode="(" horiz-adv-x="568" d="M79 442q0 338 223 580q49 53 95 86t125 76v-46q-77 -51 -114.5 -91t-64.5 -96q-72 -154 -72 -511q0 -341 75 -496q27 -58 65 -97.5t111 -85.5v-48q-125 75 -192 137.5t-127 154.5q-125 198 -124 437z" />
<glyph unicode=")" horiz-adv-x="568" d="M46 -241q77 51 115.5 91.5t63.5 96.5q72 154 72 510q0 341 -75 497q-27 56 -65 95.5t-111 87.5v47q125 -75 192 -137t127 -154q125 -198 125 -439q0 -338 -225 -579q-84 -90 -219 -162v46z" />
<glyph unicode="*" d="M96 951q0 38 22 60.5t59 22.5q34 0 57.5 -16t50.5 -61q32 -51 51 -69t67 -45l12 5q-2 55 -9 81.5t-34 74.5q-31 56 -31 90q0 36 26 60.5t63 24.5q36 0 59 -25.5t23 -68.5q0 -34 -27 -81q-38 -61 -38 -123v-33l14 -5q46 36 66.5 58t54.5 72q26 39 44.5 52.5t47.5 13.5 q34 0 61.5 -26.5t27.5 -58.5q0 -24 -18 -48t-44 -36q-29 -12 -76 -12q-55 -2 -81.5 -10.5t-69.5 -35.5v-13q73 -34 164 -43q68 -5 96.5 -24.5t28.5 -62.5q0 -36 -24 -60.5t-60 -24.5q-34 0 -60.5 21t-67.5 84q-39 56 -97 86l-12 -9q10 -92 50 -170q24 -46 23 -72 q0 -38 -24.5 -63.5t-62 -25.5t-60 26.5t-22.5 70.5q0 34 26 81q26 43 32 68.5t7 84.5l-12 9q-49 -36 -69.5 -57.5t-54.5 -70.5q-26 -39 -45.5 -53.5t-46.5 -14.5q-36 0 -61 24.5t-25 60.5q0 96 145 95q55 3 79 11t65 36v11q-80 36 -174 45q-67 5 -91.5 24t-24.5 65z" />
<glyph unicode="+" horiz-adv-x="972" d="M56 357v150h355v357h150v-357h355v-150h-355v-357h-150v357h-355z" />
<glyph unicode="," horiz-adv-x="426" d="M67 123q0 65 38 103.5t103 38.5q77 0 125 -55t48 -143q0 -111 -68 -200t-216 -174l-18 37q186 130 186 226q0 38 -33 37q-7 0 -12 -2q-10 -2 -29 -1q-55 0 -89.5 37.5t-34.5 95.5z" />
<glyph unicode="-" horiz-adv-x="568" d="M75 292v198h415v-198h-415z" />
<glyph unicode="." horiz-adv-x="426" d="M70 123q0 58 42.5 100.5t100.5 42.5q60 0 102.5 -43.5t42.5 -103t-42.5 -100.5t-103.5 -41q-60 0 -101 41.5t-41 103.5z" />
<glyph unicode="/" horiz-adv-x="474" d="M-41 -32l403 1211h153l-402 -1211h-154z" />
<glyph unicode="0" d="M41 580q0 106 25.5 216t66.5 180q53 92 131.5 145t162.5 53q166 0 275.5 -171.5t109.5 -427.5q0 -258 -109 -427.5t-275 -169.5q-171 0 -279 169t-108 433zM311 379q0 -189 27 -271t90 -82q58 0 86 73q29 87 29 280v391q0 189 -27.5 272.5t-90.5 83.5q-61 0 -87.5 -81.5 t-26.5 -274.5v-391z" />
<glyph unicode="1" d="M111 944v44l430 186h29v-973q0 -99 34 -128.5t150 -31.5v-41h-640v41q126 2 164.5 33.5t38.5 137.5v657q0 118 -61 117q-32 0 -111 -29q-7 -5 -34 -13z" />
<glyph unicode="2" d="M29 0v39q186 198 258.5 284.5t137.5 186.5q87 133 87 253q0 63 -34 123q-58 94 -169 94q-131 0 -208 -154h-48q36 96 67.5 149.5t80.5 103.5q92 96 227 95q138 0 227 -88t89 -224q0 -188 -194 -372l-277 -263h258q131 0 168.5 20.5t75.5 112.5h41l-77 -360h-710z" />
<glyph unicode="3" d="M27 130q0 43 31 71t80 28q75 0 169 -94q75 -73 130 -74q77 0 122 55t45 147q0 130 -83 208q-46 43 -99 71t-161 66v29q121 39 171.5 89.5t50.5 133.5q0 80 -47 128t-127 48q-67 0 -114 -32t-96 -111l-36 20q140 261 391 261q131 0 204.5 -62t73.5 -172q0 -75 -30 -121 t-111 -95q87 -39 133 -93q75 -90 75 -211q0 -186 -148.5 -315t-362.5 -129q-118 0 -189.5 42t-71.5 112z" />
<glyph unicode="4" d="M32 246v193q138 218 434 604l101 131h136v-739h108v-189h-108v-246h-247v246h-424zM102 435h357v507z" />
<glyph unicode="5" d="M38 137q0 44 29.5 73t75.5 29q67 0 169 -77q96 -72 154 -72q72 0 121.5 49.5t49.5 121.5q0 85 -64 153.5t-179 104.5q-96 31 -307 46l166 589h549l-73 -217h-475l-37 -138q177 -10 257 -34q140 -39 218 -136.5t78 -230.5q0 -181 -135 -296.5t-347 -115.5q-114 0 -182 41 t-68 110z" />
<glyph unicode="6" d="M48 466q0 348 292 549q97 67 195 101t267 58v-44q-186 -38 -296 -145.5t-158 -295.5q67 29 144 30q145 0 232 -92.5t87 -247.5q0 -174 -104.5 -287.5t-262.5 -113.5q-179 0 -287.5 133t-108.5 355zM314 413q0 -251 46 -340q26 -49 87 -49q63 0 83.5 50.5t20.5 201.5 q0 203 -34 284.5t-119 81.5q-39 0 -62 -17q-22 -15 -22 -212z" />
<glyph unicode="7" d="M29 775l75 379h710l-401 -1154h-162l341 920h-353q-70 0 -106.5 -31.5t-60.5 -113.5h-43z" />
<glyph unicode="8" d="M48 268q0 116 75 188q58 56 181 97q-126 75 -181.5 151t-55.5 172q0 135 104.5 216.5t277.5 81.5q152 0 242.5 -66.5t90.5 -180.5q0 -82 -55 -138.5t-177 -99.5q137 -87 196.5 -173t59.5 -197q0 -154 -109.5 -247.5t-286.5 -93.5q-162 0 -262 80t-100 210zM254 275 q0 -114 43.5 -178.5t122.5 -64.5q68 0 108 49.5t40 135.5q0 94 -43.5 152.5t-183.5 152.5q-51 -75 -69 -126t-18 -121zM287 983q0 -149 222 -263q43 56 56.5 95.5t13.5 99.5q0 101 -39.5 155.5t-111.5 54.5q-60 0 -100.5 -41t-40.5 -101z" />
<glyph unicode="9" d="M44 771q0 176 103.5 289.5t263.5 113.5q179 0 287.5 -133t108.5 -355q0 -329 -266 -531q-101 -75 -205 -113t-283 -64v44q184 38 293.5 143.5t163.5 300.5q-63 -32 -155 -33q-140 0 -225.5 93.5t-85.5 244.5zM304 879q0 -201 33 -285t112 -84q48 0 70 16q6 3 8 34l5 44 q9 128 9 178q0 208 -43 288q-27 58 -90 58t-83.5 -50.5t-20.5 -198.5z" />
<glyph unicode=":" horiz-adv-x="568" d="M140 123q0 58 42.5 100.5t100.5 42.5q60 0 102.5 -43.5t42.5 -103t-42.5 -100.5t-103.5 -41q-60 0 -101 41.5t-41 103.5zM140 664q0 58 42.5 100t100.5 42q60 0 102.5 -43t42.5 -102.5t-42.5 -101.5t-102.5 -42q-61 0 -102 42t-41 105z" />
<glyph unicode=";" horiz-adv-x="568" d="M140 123q0 65 39 103.5t103 38.5q77 0 124.5 -55t47.5 -143q0 -111 -67.5 -200t-215.5 -174l-19 37q186 130 186 227q0 14 -9.5 25t-21.5 11h-12l-20 -3h-14q-44 0 -77 29q-44 36 -44 104zM140 664q0 58 42.5 100t100.5 42q60 0 102.5 -43t42.5 -102.5t-42.5 -101.5 t-102.5 -42q-61 0 -102 42t-41 105z" />
<glyph unicode="&#x3c;" horiz-adv-x="972" d="M53 360v143l867 381v-164l-657 -288l657 -289v-163z" />
<glyph unicode="=" horiz-adv-x="972" d="M56 183v150h860v-150h-860zM56 531v150h860v-150h-860z" />
<glyph unicode="&#x3e;" horiz-adv-x="972" d="M53 -20v163l657 289l-657 288v164l867 -381v-143z" />
<glyph unicode="?" d="M97 930q0 108 90.5 177t230.5 69q154 0 247.5 -77.5t93.5 -205.5q0 -89 -45 -150.5t-161 -133.5q-80 -49 -100.5 -85t-20.5 -130h-51q-3 51 -4 79q0 61 55 165q73 138 73 255q0 106 -37.5 163.5t-105.5 57.5q-46 0 -75 -18.5t-29 -49.5q0 -22 25 -49q38 -43 38 -87 q0 -49 -30 -79.5t-78 -30.5q-49 0 -82.5 37t-33.5 93zM263 123q0 58 43.5 100.5t101.5 42.5t100.5 -42.5t42.5 -102.5t-41.5 -101.5t-101.5 -41.5q-61 0 -103 41.5t-42 103.5z" />
<glyph unicode="@" horiz-adv-x="1587" d="M184 563q0 258 188 437t456 179q244 0 409.5 -148.5t165.5 -364.5q0 -171 -96.5 -296.5t-226.5 -125.5q-63 0 -107.5 35t-52.5 93q-44 -58 -102.5 -92t-112.5 -34q-68 0 -114.5 56t-46.5 140q0 94 38.5 189.5t105.5 165.5q85 89 203 89q46 0 71.5 -18t52.5 -73l19 69h121 l-112 -444q-3 -17 -4 -31q0 -82 65 -82q85 0 152 107.5t67 242.5q0 184 -147 320t-347 136q-213 0 -350.5 -158t-137.5 -400q0 -224 143.5 -366.5t367.5 -142.5q154 0 339 84l22 -60q-125 -58 -205.5 -80t-176.5 -22q-273 0 -460 172t-187 423zM676 473q0 -68 27 -107.5 t74 -39.5q80 0 139 116q63 123 69 251q5 106 -72 111q-70 5 -148 -87q-89 -99 -89 -244z" />
<glyph unicode="A" horiz-adv-x="1232" d="M15 0v43q61 12 89.5 46t78.5 153l378 936h48l381 -898q63 -150 96.5 -193.5t82.5 -43.5h7v-43h-553v43q36 5 55 5q82 5 82 55.5t-79 232.5h-384l-26 -66q-49 -128 -49 -157q0 -32 32.5 -48.5t107.5 -21.5v-43h-347zM323 403h332l-172 414z" />
<glyph unicode="B" horiz-adv-x="1138" d="M27 0v43q94 10 122 33t28 88v826q0 65 -30.5 90.5t-119.5 30.5v43h528q213 0 328 -71t115 -202q0 -97 -61 -156t-210 -102q157 -34 237 -102q92 -82 92 -200q0 -145 -131 -233t-348 -88h-550zM451 159q0 -56 23.5 -80t80.5 -24q208 0 208 250q0 280 -261 280h-51v-426z M451 637q157 3 211.5 50t54.5 182q0 121 -43 177.5t-131 56.5q-49 0 -70.5 -19t-21.5 -65v-382z" />
<glyph unicode="C" horiz-adv-x="1232" d="M84 568q0 261 169.5 436t424.5 175q118 0 264 -59q53 -24 79 -24q24 0 41 17t34 61h46v-399h-43q-44 97 -80 150t-92 102q-108 96 -227 96q-154 0 -234 -138t-80 -403q0 -249 73 -384q38 -67 112 -108t158 -41q80 0 153 31q63 24 113.5 62t125.5 117l51 -42 q-97 -108 -168 -157q-137 -92 -316 -92q-265 0 -434.5 168.5t-169.5 431.5z" />
<glyph unicode="D" horiz-adv-x="1232" d="M24 0v43q73 2 107.5 29t34.5 83v842q0 58 -30 82t-112 32v43h520q295 0 464.5 -150.5t169.5 -415t-169 -426.5t-446 -162h-539zM442 159q0 -58 20.5 -78.5t78.5 -20.5q164 0 251 117q89 125 89 386q0 222 -70 359q-85 174 -268 174q-101 0 -101 -60v-877z" />
<glyph unicode="E" horiz-adv-x="1138" d="M27 0v43q96 10 123 32t27 89v826q0 65 -30.5 90.5t-119.5 30.5v43h985v-343h-43q-32 171 -114 228t-290 57q-67 0 -89 -16.5t-22 -64.5v-395h10q130 0 188 52q60 54 78 202h45v-577h-45q-15 148 -75.5 206t-200.5 58v-413q0 -55 30 -75t112 -20q189 0 302 90 q46 38 77.5 82.5t70.5 129.5h48l-68 -355h-999z" />
<glyph unicode="F" horiz-adv-x="1042" d="M27 0v43q96 10 123 32t27 89v826q0 67 -30.5 91.5t-119.5 29.5v43h968v-343h-41q-31 140 -80 196q-79 89 -311 89q-65 0 -87 -16.5t-22 -64.5v-395q128 0 182.5 53.5t78.5 200.5h43v-577h-43q-17 148 -73.5 204.5t-187.5 59.5v-397q0 -70 35 -93t153 -28v-43h-615z" />
<glyph unicode="G" horiz-adv-x="1327" d="M63 565q0 263 170 438.5t424 175.5q118 0 265 -59q53 -24 78 -24q24 0 41 17t34 61h46v-399h-42q-44 97 -81 151t-92 101q-111 96 -227 96q-155 0 -234.5 -139t-79.5 -407q0 -305 111 -447q82 -106 236 -106q85 0 124.5 30t39.5 94v180q0 70 -32 91t-141 28v43h586v-43 q-96 -10 -121.5 -37.5t-25.5 -119.5v-217q-82 -48 -210 -76.5t-261 -28.5q-268 0 -438 166t-170 431z" />
<glyph unicode="H" horiz-adv-x="1327" d="M36 0v43q89 12 117 35t28 86v826q0 63 -30 88t-115 33v43h575v-43q-89 -7 -121.5 -31.5t-32.5 -89.5v-353h412v353q0 65 -32.5 89.5t-121.5 31.5v43h580v-43q-87 -7 -118.5 -32.5t-31.5 -88.5v-826q0 -63 29 -86t121 -35v-43h-580v43q94 10 124 34t30 87v392h-412v-392 q0 -63 30 -87t124 -34v-43h-575z" />
<glyph unicode="I" horiz-adv-x="663" d="M34 0v43q96 9 127.5 32.5t31.5 88.5v826q0 65 -33.5 89.5t-125.5 31.5v43h597v-43q-94 -3 -128 -29t-34 -92v-826q0 -67 32.5 -91t129.5 -30v-43h-597z" />
<glyph unicode="J" d="M5 61q0 49 36 86t84 37q49 0 86.5 -38t37.5 -90q0 -32 -25 -65q-20 -27 -21 -44q0 -24 21.5 -39.5t55.5 -15.5q58 0 83.5 35t25.5 114v949q0 68 -34 93t-138 28v43h600v-43q-96 -7 -123.5 -36t-27.5 -121v-744q0 -183 -93 -278.5t-273 -95.5q-108 0 -181 39 q-49 29 -81.5 81.5t-32.5 104.5z" />
<glyph unicode="K" horiz-adv-x="1327" d="M51 0v43q92 10 120.5 33t28.5 88v826q0 67 -30 91.5t-119 29.5v43h577v-43q-94 -7 -123 -37t-29 -120v-365l371 372q39 39 50 56t11 38q0 26 -19 37.5t-65 13.5q-10 2 -61 5v43h493v-43q-125 -10 -216 -75t-332 -312l521 -645q28 -34 83 -36v-43h-573v43q24 2 55 1 q80 5 80 35q0 24 -41 75l-311 387l-46 -43v-334q0 -63 29 -86t121 -35v-43h-575z" />
<glyph unicode="L" horiz-adv-x="1138" d="M32 0v43q94 12 120.5 34t26.5 87v826q0 65 -30 90.5t-117 30.5v43h596v-43q-111 -5 -141.5 -33t-30.5 -124v-806q0 -55 29 -75t107 -20q193 0 297 94q46 41 77.5 91t72.5 149h50l-70 -387h-987z" />
<glyph unicode="M" horiz-adv-x="1611" d="M24 0v43q99 10 127 34.5t28 101.5v811q0 67 -29 90.5t-123 30.5v43h432l341 -806l342 806h430v-43q-94 -7 -122 -36t-28 -121v-754q0 -90 25.5 -117.5t124.5 -39.5v-43h-567v43q96 9 124 32.5t28 95.5v868l-430 -1039h-46l-430 1014v-802q0 -96 34 -129.5t138 -39.5v-43 h-399z" />
<glyph unicode="N" horiz-adv-x="1232" d="M27 0v43q94 12 122 37.5t28 98.5v809q-61 73 -90 98t-55 25v43h361l595 -732v520q0 90 -32.5 125.5t-126.5 43.5v43h367v-43q-84 -14 -108.5 -38.5t-24.5 -97.5v-1006h-48l-762 929v-686q0 -90 31.5 -123.5t130.5 -45.5v-43h-388z" />
<glyph unicode="O" horiz-adv-x="1327" d="M60 572q0 266 171.5 436.5t439.5 170.5q258 0 427.5 -172t169.5 -434q0 -265 -170 -435t-434.5 -170t-434 169.5t-169.5 434.5zM362 556q0 -259 77.5 -395.5t224.5 -136.5t224.5 137.5t77.5 399.5q0 266 -77.5 414t-219.5 148q-150 0 -228.5 -145t-78.5 -422z" />
<glyph unicode="P" horiz-adv-x="1042" d="M27 0v43q38 7 41 6q60 7 81.5 38.5t21.5 112.5v754q0 90 -27.5 120t-116.5 37v43h550q213 0 330 -81t117 -230q0 -99 -55.5 -174t-157.5 -114q-56 -22 -123 -29t-241 -9v-317q0 -94 25 -119t125 -38v-43h-570zM447 577q164 0 219 46q64 57 64 207q0 143 -46 203.5 t-152 60.5q-85 0 -85 -60v-457z" />
<glyph unicode="Q" horiz-adv-x="1327" d="M60 565q0 266 171.5 440t432.5 174q265 0 434.5 -171.5t169.5 -437.5q0 -253 -160 -423q-55 -58 -111.5 -90.5t-160.5 -66.5q39 -80 80 -121q89 -89 216 -89q41 0 114 20l10 -41q-163 -59 -300 -59h-5q-239 0 -390 150q-49 49 -95 147q-97 36 -149 69t-105 91 q-152 167 -152 408zM362 565q0 -266 76.5 -403.5t225.5 -137.5q147 0 224.5 138t77.5 401q0 266 -78.5 413t-221.5 147q-147 0 -225.5 -145t-78.5 -413z" />
<glyph unicode="R" horiz-adv-x="1232" d="M44 0v43q101 12 126 37.5t25 119.5v754q0 92 -28.5 121t-122.5 36v43h550q234 0 357.5 -78.5t123.5 -225.5q0 -119 -77 -191q-63 -56 -191 -98l343 -486q26 -32 70 -32v-43h-350l-353 534h-46v-334q0 -90 25.5 -117.5t124.5 -39.5v-43h-577zM471 589q171 2 232 42 q80 53 80 212q0 135 -51 194t-169 59q-65 0 -80 -26q-12 -24 -12 -46v-435z" />
<glyph unicode="S" horiz-adv-x="948" d="M60 -32v421h49q38 -155 99 -239q97 -126 249 -126q99 0 157 53t58 141q0 67 -39 109.5t-152 95.5l-114 55q-152 73 -222 157.5t-70 197.5q0 162 100 254t274 92q89 0 200 -37q51 -19 71 -19q22 0 34 13t21 45h51v-370h-48q-26 84 -50.5 129.5t-68.5 90.5q-91 95 -208 95 h-2q-87 0 -137.5 -46t-50.5 -124q0 -61 37 -101.5t139 -91.5l251 -125q82 -41 135 -128t53 -182q0 -160 -117 -260t-307 -100q-101 0 -222 41q-53 17 -70 17q-38 0 -51 -58h-49z" />
<glyph unicode="T" horiz-adv-x="1138" d="M53 811l5 343h1024l3 -343h-49q-22 152 -96.5 217.5t-231.5 70.5v-899q0 -97 28.5 -123t139.5 -34v-43h-610v43q109 9 137.5 35t28.5 122v899q-159 -5 -233 -70.5t-97 -217.5h-49z" />
<glyph unicode="U" horiz-adv-x="1232" d="M27 1111v43h577v-43q-102 -3 -130 -27q-35 -33 -35 -125v-5v-570q0 -174 59.5 -253.5t190.5 -79.5q152 0 225.5 90.5t73.5 280.5v520q0 94 -33 127.5t-134 41.5v43h375v-43q-82 -12 -107.5 -41t-25.5 -104v-544q0 -251 -121 -354q-117 -100 -315 -100h-4q-191 0 -316 90 q-79 56 -109.5 128t-30.5 198v570q0 92 -24.5 120.5t-115.5 36.5z" />
<glyph unicode="V" horiz-adv-x="1232" d="M27 1111v43h574v-43q-51 -3 -57 -3q-90 -5 -90 -62q0 -31 39 -123l236 -570l216 562q34 87 35 121q0 41 -27.5 54.5t-119.5 20.5v43h363v-43q-67 -9 -95 -34.5t-58 -105.5l-389 -1002h-46l-437 1023q-32 70 -56.5 90.5t-87.5 28.5z" />
<glyph unicode="W" horiz-adv-x="1706" d="M32 1111v43h502v-43q-67 -5 -88 -19.5t-21 -52.5q0 -19 12 -56l205 -621l201 525l-60 164q-26 55 -123 60v43h533v-43q-10 -2 -22 -2q-56 -3 -78.5 -16.5t-22.5 -44.5q0 -19 24 -96l184 -573l191 585q12 34 12 72q0 39 -24.5 55.5t-92.5 19.5v43h310v-43 q-85 -9 -118 -109l-341 -1028h-46l-292 814l-317 -814h-48l-362 1028q-22 63 -42.5 82t-75.5 27z" />
<glyph unicode="X" horiz-adv-x="1232" d="M27 0v43q63 7 101 27t77 68l298 377l-337 497q-39 58 -65 77t-72 22v43h591v-43q-48 -3 -53 -3q-46 -2 -64 -14t-18 -39q0 -24 25 -63l166 -256q80 111 95 131q99 135 99 181q0 31 -18.5 44.5t-69.5 15.5q-2 0 -7 0.5t-13.5 1.5t-13.5 1v43h426v-43q-96 -9 -152 -53 t-169 -196l-136 -190l310 -483q61 -92 91.5 -118.5t74.5 -27.5v-43h-580v43q44 3 47 3q89 5 89 48q0 36 -36 92l-172 277l-65 -88q-96 -130 -128 -182.5t-32 -79.5q0 -32 29.5 -47t108.5 -23v-43h-427z" />
<glyph unicode="Y" horiz-adv-x="1232" d="M26 1111v43h571v-43l-42 -2q-53 0 -74.5 -12t-21.5 -39q0 -26 31 -80q9 -15 10 -21l205 -396l189 316q67 109 67 162q0 38 -29 51.5t-115 20.5v43h376v-43q-80 -12 -116 -67l-326 -530v-314q0 -94 26.5 -120.5t130.5 -36.5v-43h-592v43q104 10 131 36.5t27 120.5v251 l-312 566q-53 89 -136 94z" />
<glyph unicode="Z" horiz-adv-x="1138" d="M48 0v27l652 1067q-119 -3 -142 -5h-13q-179 1 -255 -53q-80 -56 -142 -234h-47l36 352h894v-28l-647 -1066h126q268 0 362 66q60 43 96 103.5t70 181.5h44l-44 -411h-990z" />
<glyph unicode="[" horiz-adv-x="568" d="M114 -254v1411h400v-56h-108q-72 0 -93 -22.5t-21 -97.5v-1089q0 -55 16 -72.5t69 -17.5h137v-56h-400z" />
<glyph unicode="\" horiz-adv-x="474" d="M-43 1179h159l401 -1211h-157z" />
<glyph unicode="]" horiz-adv-x="568" d="M55 -198h136q53 0 69 17t16 73v1089q0 75 -21 97.5t-93 22.5h-107v56h399v-1411h-399v56z" />
<glyph unicode="^" horiz-adv-x="991" d="M125 531l303 623h137l304 -623h-152l-220 464l-221 -464h-151z" />
<glyph unicode="_" d="M0 -128h853v-85h-853v85z" />
<glyph unicode="`" horiz-adv-x="568" d="M14 1140q0 32 23 54.5t57 22.5q49 0 92 -48l234 -268h-96l-242 150q-68 43 -68 89z" />
<glyph unicode="a" d="M43 157q0 106 109 183q87 58 350 138v124q0 79 -34.5 115t-109.5 36q-44 0 -75.5 -18t-31.5 -46q0 -15 20 -37q31 -41 31 -73q0 -44 -32.5 -71.5t-83.5 -27.5q-53 0 -82 29.5t-29 82.5q0 96 89 155.5t234 59.5q155 0 246.5 -63t91.5 -171v-445q0 -43 35 -43q12 0 19 7 l17 17l26 -36q-90 -97 -191 -97q-63 0 -95 27.5t-45 92.5q-131 -119 -270 -120q-82 0 -135.5 51.5t-53.5 129.5zM292 212q0 -51 24 -83t63 -32q58 1 121 74v247q-208 -55 -208 -206z" />
<glyph unicode="b" horiz-adv-x="948" d="M29 1113v41h331v-442q89 95 206 95h2q142 0 231.5 -111t89.5 -288q0 -191 -107.5 -311.5t-278.5 -120.5q-116 0 -225 97l-135 -95h-20v1036q0 51 -17 69t-77 30zM360 166q0 -61 32.5 -98t85.5 -37q160 0 160 346q0 338 -158 338q-81 0 -120 -101v-448z" />
<glyph unicode="c" horiz-adv-x="757" d="M43 381q0 184 114 305t288 121q113 0 189 -53.5t76 -133.5q0 -49 -30.5 -78.5t-85.5 -29.5q-94 0 -96 123q0 72 -8 87q-17 32 -63 32q-67 0 -105.5 -76t-38.5 -207q0 -174 66 -277.5t177 -103.5q53 0 91 21.5t86 74.5l31 -31q-75 -96 -151 -137.5t-175 -41.5 q-159 0 -262 114.5t-103 290.5z" />
<glyph unicode="d" horiz-adv-x="948" d="M43 377q0 186 93 308t234 122q58 0 103.5 -23t99.5 -83v313q0 60 -22 76t-107 23v41h367v-982q0 -55 21 -75t79 -24v-39l-105 -14q-126 -13 -227 -42v111q-60 -63 -109.5 -88t-117.5 -25q-135 0 -222 113.5t-87 287.5zM295 391q0 -319 133 -319q56 0 108 58q37 41 37 61 v415q-17 48 -53.5 77t-79.5 29q-145 0 -145 -321z" />
<glyph unicode="e" horiz-adv-x="757" d="M43 389q0 188 98 303t258 115q143 0 229 -100q77 -90 91 -289h-431q9 -154 52 -229q55 -90 152 -90q55 0 99 25.5t95 88.5l41 -24q-84 -119 -156.5 -166t-176.5 -47q-159 0 -255 113.5t-96 299.5zM280 481h229v26q-5 128 -16 167q-20 80 -94 80q-63 0 -89.5 -59.5 t-29.5 -213.5z" />
<glyph unicode="f" horiz-adv-x="568" d="M24 0v41q58 7 77.5 27.5t19.5 74.5v569h-97v75h97q0 198 50 276q72 116 249 116q108 0 176 -47.5t68 -122.5q0 -48 -29 -77t-77 -29q-43 0 -72.5 27t-29.5 67q0 24 22 61q15 26 15 36q0 32 -49 32q-44 0 -65 -30.5t-21 -100.5v-208h149v-75h-149v-536q0 -84 26 -108.5 t114 -26.5v-41h-474z" />
<glyph unicode="g" d="M48 -195q0 104 164 128q-82 29 -111 58t-29 82q0 130 203 200q-101 43 -150 97q-61 75 -62 162q0 121 97.5 198t249.5 77q89 0 191 -37h222v-91h-139q68 -68 69 -167q0 -138 -116 -205q-75 -44 -181 -44l-77 2q-51 0 -83.5 -25t-32.5 -64q0 -36 34 -48t136 -12h111 q131 0 205.5 -55.5t74.5 -154.5q0 -126 -110 -192t-323 -66q-162 0 -252.5 42t-90.5 115zM198 -183q0 -114 229 -114q126 0 194 31.5t68 92.5q0 84 -136 84h-295q-36 -29 -48 -47.5t-12 -46.5zM297 530.5q0 -119.5 25.5 -169.5t87.5 -50q60 0 86 50t26 169.5t-26.5 171.5 t-86 52t-86 -52t-26.5 -171.5z" />
<glyph unicode="h" horiz-adv-x="948" d="M27 0v41q58 12 74.5 30.5t16.5 71.5v871q0 53 -16.5 70t-74.5 29v41h328v-480q67 73 120.5 103t121.5 30q106 0 168.5 -65.5t62.5 -174.5v-424q0 -53 18.5 -76t64.5 -26v-41h-401v41q43 5 62 27t19 70v413q0 142 -89 142q-61 0 -118 -60q-29 -26 -29 -39v-456 q0 -48 18 -69t66 -28v-41h-412z" />
<glyph unicode="i" horiz-adv-x="474" d="M27 0v41q58 14 74.5 31.5t16.5 70.5v502q0 53 -17 71t-74 30v41h328v-649q0 -48 18 -69t62 -28v-41h-408zM102 1048q0 55 39.5 93t94 38t93 -39t38.5 -94q0 -56 -38.5 -93.5t-95 -37.5t-94 37.5t-37.5 95.5z" />
<glyph unicode="j" horiz-adv-x="568" d="M-97 -176q0 46 29 75t77 29q41 0 70.5 -27t29.5 -65q0 -26 -24 -63q-15 -26 -15 -38q0 -29 55 -29q82 0 82 130v809q0 55 -21.5 75.5t-86.5 25.5v41h345v-784q0 -143 -46 -220q-72 -129 -253 -129h-3q-106 0 -172.5 47.5t-66.5 122.5zM184 1048q0 55 38.5 93t93 38 t94 -39t39.5 -93.5t-39.5 -93t-93.5 -38.5q-58 0 -95 37.5t-37 95.5z" />
<glyph unicode="k" horiz-adv-x="948" d="M38 0v41q82 7 81 102v871q0 92 -81 99v41h319v-736l218 219q36 36 36 64q0 32 -60 40q-3 2 -17.5 3.5t-23.5 3.5v39h366v-39q-80 -10 -137.5 -49.5t-185.5 -174.5l331 -457q19 -26 43 -26v-41h-400v41q72 3 72 32q0 17 -41 77l-162 229l-39 -41v-195q0 -60 14.5 -77 t73.5 -25v-41h-407z" />
<glyph unicode="l" horiz-adv-x="474" d="M27 0v41q87 7 87 102v871q0 92 -87 99v41h325v-1011q0 -101 83 -102v-41h-408z" />
<glyph unicode="m" horiz-adv-x="1421" d="M27 0v41q56 10 75 29.5t19 72.5v502q0 53 -18.5 73.5t-75.5 27.5v41h326v-128q94 148 251 148q80 0 129.5 -34t89.5 -114q67 82 122 115t128 33q106 0 168.5 -65.5t62.5 -174.5v-429q0 -55 18 -74.5t67 -22.5v-41h-406v41q49 3 66.5 23.5t17.5 73.5v413q0 75 -21.5 108.5 t-69.5 33.5q-43 0 -95 -41q-17 -12 -33.5 -31.5t-16.5 -26.5v-456q0 -49 18 -70.5t62 -26.5v-41h-399v41q48 3 65 23.5t17 73.5v413q0 77 -21.5 109.5t-70.5 32.5q-43 0 -94 -39q-17 -14 -33.5 -33.5t-16.5 -26.5v-456q0 -49 17.5 -69.5t61.5 -27.5v-41h-410z" />
<glyph unicode="n" horiz-adv-x="948" d="M36 0v41q58 12 74 30.5t16 71.5v502q0 53 -17 72.5t-73 28.5v41h326v-128q94 148 244 148q106 0 168 -65.5t62 -174.5v-429q0 -55 17 -74.5t67 -22.5v-41h-401v41q43 5 61.5 27t18.5 70v413q0 142 -89 142q-61 0 -117 -60q-29 -26 -29 -39v-456q0 -48 17.5 -69t65.5 -28 v-41h-411z" />
<glyph unicode="o" d="M43 396q0 174 111.5 292.5t273.5 118.5q166 0 275 -118.5t109 -297.5q0 -177 -109 -296t-275 -119q-167 0 -276 118.5t-109 301.5zM294 365q0 -188 29.5 -262t104.5 -74t104 77.5t29 274.5q0 210 -29 291.5t-102 81.5q-79 0 -107.5 -81.5t-28.5 -307.5z" />
<glyph unicode="p" horiz-adv-x="948" d="M32 -309q61 10 78.5 28t17.5 71v855q0 53 -18 72.5t-74 28.5v41h326v-118q39 73 89.5 105.5t125.5 32.5q142 0 229.5 -111t87.5 -288q0 -189 -92 -309.5t-235 -120.5q-56 0 -98 21t-104 81v-240q0 -85 27.5 -118t105.5 -36v-36h-466v41zM365 176q41 -104 132 -104 q145 0 145 312q0 326 -130 326q-58 0 -111 -58q-36 -39 -36 -61v-415z" />
<glyph unicode="q" horiz-adv-x="948" d="M58 374q0 191 106 312t273 121q63 0 111 -20.5t114 -76.5l133 96h26v-1016q0 -51 17 -69t77 -30v-41h-456v43q84 15 104.5 38.5t20.5 102.5v238q-97 -96 -210 -96q-140 0 -228 111t-88 287zM307 403q0 -335 159 -335q91 0 118 99v449q0 61 -31.5 99t-83.5 38 q-162 0 -162 -350z" />
<glyph unicode="r" horiz-adv-x="757" d="M49 0v41q56 10 74.5 29.5t18.5 72.5v502q0 51 -19 72.5t-74 28.5v41h323v-140q60 85 113.5 122.5t116.5 37.5q60 0 99.5 -37.5t39.5 -95.5q0 -49 -30 -81.5t-78 -32.5q-60 0 -102 61q-27 39 -48 39q-43 0 -73.5 -47.5t-30.5 -114.5v-322q0 -80 23 -105t101 -30v-41h-454z " />
<glyph unicode="s" horiz-adv-x="663" d="M43 -22v281h47q55 -225 234 -225q58 0 93 31t35 80q0 41 -38.5 75t-125.5 74q-128 55 -185 117t-57 147q0 108 76 178.5t192 70.5q56 0 133 -25q38 -12 55 -12q27 0 41 34h37v-248h-42q-32 94 -81 140q-58 55 -128 55q-48 0 -80 -28t-32 -71t38.5 -78t125.5 -72 q128 -55 181.5 -115.5t53.5 -150.5q0 -114 -73.5 -187t-189.5 -73q-96 0 -184 39q-26 10 -39 11q-19 0 -45 -48h-42z" />
<glyph unicode="t" horiz-adv-x="568" d="M34 712v46q84 70 144.5 138t138.5 179h43v-288h161v-75h-161v-514q0 -51 15.5 -74t51.5 -23q51 0 97 88l43 -18q-53 -104 -110.5 -147.5t-142.5 -43.5q-89 0 -140 47.5t-51 131.5v553h-89z" />
<glyph unicode="u" horiz-adv-x="948" d="M27 746v41h321v-579q0 -65 21.5 -93t74.5 -28q65 0 140 75v483q0 55 -21.5 75.5t-84.5 25.5v41h343v-615q0 -55 19.5 -76t75.5 -23v-39l-105 -12q-142 -15 -226 -44v111q-75 -65 -128 -89t-119 -24q-106 0 -166.5 63t-60.5 176v430q0 53 -15.5 72t-68.5 29z" />
<glyph unicode="v" d="M36 746v41h427v-41q-27 -3 -31 -4q-60 -5 -60 -41q0 -12 15 -52l135 -347l123 311q19 48 19 76q0 31 -19.5 42t-74.5 15v41h258v-41q-39 -3 -57 -20.5t-42 -73.5l-273 -676h-45l-204 505q-20 51 -64 146t-47 93q-14 19 -60 26z" />
<glyph unicode="w" horiz-adv-x="1232" d="M39 746v41h379v-41q-65 -9 -65 -48q0 -29 67 -196q19 -51 36 -92l41 -110l116 292l-11 33q-24 84 -37.5 100t-62.5 21v41h399v-41q-48 -3 -65 -12t-17 -29q0 -22 46 -181q38 -130 58 -217q22 61 60 161q75 191 75 218q0 29 -17 42t-65 18v41h231v-41q-32 -7 -48.5 -22.5 t-37.5 -63.5l-264 -684h-40l-174 529l-213 -529h-41l-252 638q-34 85 -49.5 105t-48.5 27z" />
<glyph unicode="x" d="M20 746v41h427v-41q-80 -2 -80 -33q0 -38 99 -167q19 -26 22 -29q43 60 62 79q65 72 65 108q0 37 -54 38q-3 0 -34 4v41h287v-41q-75 -12 -119 -67l-173 -215l253 -389q13 -22 51 -34v-41h-411v41q77 5 77 34t-57 109l-71 108q-5 -7 -15.5 -19t-12.5 -15 q-109 -131 -109 -176q0 -36 85 -41v-41h-288v41q48 2 84.5 32.5t108.5 126.5q7 10 111 143l-219 336q-26 39 -41 50.5t-48 16.5z" />
<glyph unicode="y" d="M27 -215q0 48 31 78.5t79 30.5q44 0 71.5 -23t27.5 -60q0 -7 -4 -24q-2 -5 -2 -11q0 -12 8.5 -20.5t20.5 -8.5q29 0 60 38.5t53 101.5l31 91l-205 503q-22 56 -65 147.5t-46 91.5q-14 19 -60 26v41h427v-41l-27 -2q-63 -5 -63 -43q0 -14 34 -100l123 -316l116 328 q19 53 18 76q0 31 -19.5 42t-74.5 15v41h258v-41q-39 -3 -58 -21t-41 -73l-254 -678q-79 -213 -130 -268q-56 -56 -143 -56q-73 0 -119.5 37.5t-46.5 97.5z" />
<glyph unicode="z" horiz-adv-x="757" d="M36 0v43l399 689h-20q-162 0 -216 -32q-57 -34 -90 -156h-44l12 243h633v-45l-394 -687h49q102 0 154.5 20.5t93.5 76.5q36 46 56 121h48l-28 -273h-653z" />
<glyph unicode="{" horiz-adv-x="672" d="M38 445q109 27 145.5 67.5t36.5 130.5v306q0 140 85 193q72 48 275 49v-20q-102 -22 -141.5 -68.5t-39.5 -143.5v-292q0 -108 -40 -152t-161 -70q121 -26 161 -70t40 -151v-292q0 -97 40.5 -143.5t140.5 -66.5v-21q-224 2 -293 63q-67 55 -67 178v305q0 90 -36.5 130.5 t-145.5 67.5z" />
<glyph unicode="|" horiz-adv-x="375" d="M113 -32v1211h150v-1211h-150z" />
<glyph unicode="}" horiz-adv-x="672" d="M92 -278q102 22 141.5 68t39.5 143v292q0 106 41 151.5t160 70.5q-121 26 -161 70t-40 152v292q0 96 -40 142.5t-141 67.5v20q203 -2 275 -49q85 -53 85 -191v-306q0 -90 37 -130.5t146 -67.5q-109 -27 -146 -67t-37 -131v-305q0 -140 -85 -193q-72 -48 -275 -50v21z" />
<glyph unicode="~" horiz-adv-x="887" d="M49 422q82 143 212 143q70 0 229 -72q102 -44 138 -44q56 0 116 77l94 -82q-58 -80 -104 -112.5t-106 -32.5q-75 0 -179 56q-109 60 -191 60q-38 0 -63.5 -15.5t-54.5 -56.5z" />
<glyph unicode="&#xad;" horiz-adv-x="568" d="M75 292v198h415v-198h-415z" />
<glyph unicode="&#x2000;" horiz-adv-x="682" />
<glyph unicode="&#x2001;" horiz-adv-x="1365" />
<glyph unicode="&#x2002;" horiz-adv-x="682" />
<glyph unicode="&#x2003;" horiz-adv-x="1365" />
<glyph unicode="&#x2004;" horiz-adv-x="455" />
<glyph unicode="&#x2005;" horiz-adv-x="341" />
<glyph unicode="&#x2006;" horiz-adv-x="227" />
<glyph unicode="&#x2007;" horiz-adv-x="227" />
<glyph unicode="&#x2008;" horiz-adv-x="170" />
<glyph unicode="&#x2009;" horiz-adv-x="273" />
<glyph unicode="&#x200a;" horiz-adv-x="75" />
<glyph unicode="&#x2010;" horiz-adv-x="568" d="M75 292v198h415v-198h-415z" />
<glyph unicode="&#x2011;" horiz-adv-x="568" d="M75 292v198h415v-198h-415z" />
<glyph unicode="&#x2012;" horiz-adv-x="568" d="M75 292v198h415v-198h-415z" />
<glyph unicode="&#x2013;" horiz-adv-x="1177" d="M75 292v198h1024v-198h-1024z" />
<glyph unicode="&#x2014;" horiz-adv-x="2201" d="M75 292v198h2048v-198h-2048z" />
<glyph unicode="&#x202f;" horiz-adv-x="273" />
<glyph unicode="&#x205f;" horiz-adv-x="341" />
<glyph unicode="&#x25fc;" horiz-adv-x="785" d="M0 0v785h785v-785h-785z" />
</font>
</defs>
</svg>
